<?xml version="1.0" encoding="utf-8" standalone="no"?>
<!DOCTYPE svg PUBLIC "-//W3C//DTD SVG 1.1//EN"
  "http://www.w3.org/Graphics/SVG/1.1/DTD/svg11.dtd">
<!-- Created with matplotlib (http://matplotlib.org/) -->
<svg height="460pt" version="1.1" viewBox="0 0 683 460" width="683pt" xmlns="http://www.w3.org/2000/svg" xmlns:xlink="http://www.w3.org/1999/xlink">
 <defs>
  <style type="text/css">
*{stroke-linecap:butt;stroke-linejoin:round;stroke-miterlimit:100000;}
  </style>
 </defs>
 <g id="figure_1">
  <g id="patch_1">
   <path d="M 0 460.8 
L 684 460.8 
L 684 0 
L 0 0 
z
" style="fill:#ffffff;"/>
  </g>
  <g id="patch_2">
   <path d="M 7.2 453.6 
L 676.8 453.6 
L 676.8 7.2 
L 7.2 7.2 
z
" style="fill:#ffffff;"/>
  </g>
  <g id="axes_1">
   <g id="Poly3DCollection_1">
    <path clip-path="url(#p254c7701eb)" d="M 380.065295 237.827858 
L 385.162263 205.56344 
L 284.142663 209.057863 
L 294.1608 240.868798 
L 380.065295 237.827858 
L 380.065295 237.827858 
z
" style="fill:none;stroke:#000000;stroke-width:2.5;"/>
    <path clip-path="url(#p254c7701eb)" d="M 385.162263 205.56344 
L 387.146135 167.759127 
L 280.241284 171.355586 
L 284.142663 209.057863 
L 385.162263 205.56344 
L 385.162263 205.56344 
z
" style="fill:none;stroke:#000000;stroke-width:2.5;"/>
    <path clip-path="url(#p254c7701eb)" d="M 372.257905 262.721736 
L 380.065295 237.827858 
L 294.1608 240.868798 
L 309.491555 264.982485 
L 372.257905 262.721736 
L 372.257905 262.721736 
z
" style="fill:none;stroke:#000000;stroke-width:2.5;"/>
    <path clip-path="url(#p254c7701eb)" d="M 455.845091 252.493807 
L 474.479346 222.440971 
L 385.162263 205.56344 
L 380.065295 237.827858 
L 455.845091 252.493807 
L 455.845091 252.493807 
z
" style="fill:none;stroke:#000000;stroke-width:2.5;"/>
    <path clip-path="url(#p254c7701eb)" d="M 294.1608 240.868798 
L 284.142663 209.057863 
L 206.235074 231.855066 
L 228.222967 260.650991 
L 294.1608 240.868798 
L 294.1608 240.868798 
z
" style="fill:none;stroke:#000000;stroke-width:2.5;"/>
    <path clip-path="url(#p254c7701eb)" d="M 427.433647 273.600777 
L 455.845091 252.493807 
L 380.065295 237.827858 
L 372.257905 262.721736 
L 427.433647 273.600777 
L 427.433647 273.600777 
z
" style="fill:none;stroke:#000000;stroke-width:2.5;"/>
    <path clip-path="url(#p254c7701eb)" d="M 474.479346 222.440971 
L 481.750787 185.139323 
L 387.146135 167.759127 
L 385.162263 205.56344 
L 474.479346 222.440971 
L 474.479346 222.440971 
z
" style="fill:none;stroke:#000000;stroke-width:2.5;"/>
    <path clip-path="url(#p254c7701eb)" d="M 309.491555 264.982485 
L 294.1608 240.868798 
L 228.222967 260.650991 
L 261.66142 279.625385 
L 309.491555 264.982485 
L 309.491555 264.982485 
z
" style="fill:none;stroke:#000000;stroke-width:2.5;"/>
    <path clip-path="url(#p254c7701eb)" d="M 387.146135 167.759127 
L 385.738179 134.688213 
L 283.010215 138.058521 
L 280.241284 171.355586 
L 387.146135 167.759127 
L 387.146135 167.759127 
z
" style="fill:none;stroke:#000000;stroke-width:2.5;"/>
    <path clip-path="url(#p254c7701eb)" d="M 284.142663 209.057863 
L 280.241284 171.355586 
L 197.642791 194.844596 
L 206.235074 231.855066 
L 284.142663 209.057863 
L 284.142663 209.057863 
z
" style="fill:none;stroke:#000000;stroke-width:2.5;"/>
    <path clip-path="url(#p254c7701eb)" d="M 362.314266 283.669597 
L 372.257905 262.721736 
L 309.491555 264.982485 
L 328.991302 284.887099 
L 362.314266 283.669597 
L 362.314266 283.669597 
z
" style="fill:none;stroke:#000000;stroke-width:2.5;"/>
    <path clip-path="url(#p254c7701eb)" d="M 391.477644 289.511909 
L 427.433647 273.600777 
L 372.257905 262.721736 
L 362.314266 283.669597 
L 391.477644 289.511909 
L 391.477644 289.511909 
z
" style="fill:none;stroke:#000000;stroke-width:2.5;"/>
    <path clip-path="url(#p254c7701eb)" d="M 328.991302 284.887099 
L 309.491555 264.982485 
L 261.66142 279.625385 
L 303.83068 292.729458 
L 328.991302 284.887099 
L 328.991302 284.887099 
z
" style="fill:none;stroke:#000000;stroke-width:2.5;"/>
    <path clip-path="url(#p254c7701eb)" d="M 481.750787 185.139323 
L 476.589169 150.968967 
L 385.738179 134.688213 
L 387.146135 167.759127 
L 481.750787 185.139323 
L 481.750787 185.139323 
z
" style="fill:none;stroke:#000000;stroke-width:2.5;"/>
    <path clip-path="url(#p254c7701eb)" d="M 280.241284 171.355586 
L 283.010215 138.058521 
L 203.742712 160.053121 
L 197.642791 194.844596 
L 280.241284 171.355586 
L 280.241284 171.355586 
z
" style="fill:none;stroke:#000000;stroke-width:2.5;"/>
    <path clip-path="url(#p254c7701eb)" d="M 454.711143 293.910854 
L 494.017262 280.095032 
L 455.845091 252.493807 
L 427.433647 273.600777 
L 454.711143 293.910854 
L 454.711143 293.910854 
z
" style="fill:none;stroke:#000000;stroke-width:2.5;"/>
    <path clip-path="url(#p254c7701eb)" d="M 385.738179 134.688213 
L 380.907825 116.865522 
L 292.505325 119.725834 
L 283.010215 138.058521 
L 385.738179 134.688213 
L 385.738179 134.688213 
z
" style="fill:none;stroke:#000000;stroke-width:2.5;"/>
    <path clip-path="url(#p254c7701eb)" d="M 405.553782 300.308631 
L 454.711143 293.910854 
L 427.433647 273.600777 
L 391.477644 289.511909 
L 405.553782 300.308631 
L 405.553782 300.308631 
z
" style="fill:none;stroke:#000000;stroke-width:2.5;"/>
    <path clip-path="url(#p254c7701eb)" d="M 494.017262 280.095032 
L 520.022557 254.37293 
L 474.479346 222.440971 
L 455.845091 252.493807 
L 494.017262 280.095032 
L 494.017262 280.095032 
z
" style="fill:none;stroke:#000000;stroke-width:2.5;"/>
    <path clip-path="url(#p254c7701eb)" d="M 351.048649 303.531175 
L 362.314266 283.669597 
L 328.991302 284.887099 
L 351.048649 303.531175 
L 351.048649 303.531175 
L 351.048649 303.531175 
z
" style="fill:none;stroke:#000000;stroke-width:2.5;"/>
    <path clip-path="url(#p254c7701eb)" d="M 261.66142 279.625385 
L 228.222967 260.650991 
L 207.044529 290.588955 
L 246.84284 301.57699 
L 261.66142 279.625385 
L 261.66142 279.625385 
z
" style="fill:none;stroke:#000000;stroke-width:2.5;"/>
    <path clip-path="url(#p254c7701eb)" d="M 351.048649 303.531175 
L 391.477644 289.511909 
L 362.314266 283.669597 
L 351.048649 303.531175 
L 351.048649 303.531175 
L 351.048649 303.531175 
z
" style="fill:none;stroke:#000000;stroke-width:2.5;"/>
    <path clip-path="url(#p254c7701eb)" d="M 351.048649 303.531175 
L 328.991302 284.887099 
L 303.83068 292.729458 
L 351.048649 303.531175 
L 351.048649 303.531175 
L 351.048649 303.531175 
z
" style="fill:none;stroke:#000000;stroke-width:2.5;"/>
    <path clip-path="url(#p254c7701eb)" d="M 303.83068 292.729458 
L 261.66142 279.625385 
L 246.84284 301.57699 
L 296.393683 304.347035 
L 303.83068 292.729458 
L 303.83068 292.729458 
z
" style="fill:none;stroke:#000000;stroke-width:2.5;"/>
    <path clip-path="url(#p254c7701eb)" d="M 228.222967 260.650991 
L 206.235074 231.855066 
L 180.626358 266.571528 
L 207.044529 290.588955 
L 228.222967 260.650991 
L 228.222967 260.650991 
z
" style="fill:none;stroke:#000000;stroke-width:2.5;"/>
    <path clip-path="url(#p254c7701eb)" d="M 351.048649 303.531175 
L 405.553782 300.308631 
L 391.477644 289.511909 
L 351.048649 303.531175 
L 351.048649 303.531175 
L 351.048649 303.531175 
z
" style="fill:none;stroke:#000000;stroke-width:2.5;"/>
    <path clip-path="url(#p254c7701eb)" d="M 351.048649 303.531175 
L 303.83068 292.729458 
L 296.393683 304.347035 
L 351.048649 303.531175 
L 351.048649 303.531175 
L 351.048649 303.531175 
z
" style="fill:none;stroke:#000000;stroke-width:2.5;"/>
    <path clip-path="url(#p254c7701eb)" d="M 476.589169 150.968967 
L 458.920627 130.663644 
L 380.907825 116.865522 
L 385.738179 134.688213 
L 476.589169 150.968967 
L 476.589169 150.968967 
z
" style="fill:none;stroke:#000000;stroke-width:2.5;"/>
    <path clip-path="url(#p254c7701eb)" d="M 520.022557 254.37293 
L 530.219268 218.090371 
L 481.750787 185.139323 
L 474.479346 222.440971 
L 520.022557 254.37293 
L 520.022557 254.37293 
z
" style="fill:none;stroke:#000000;stroke-width:2.5;"/>
    <path clip-path="url(#p254c7701eb)" d="M 351.048649 303.531175 
L 398.890745 312.047499 
L 405.553782 300.308631 
L 351.048649 303.531175 
L 351.048649 303.531175 
L 351.048649 303.531175 
z
" style="fill:none;stroke:#000000;stroke-width:2.5;"/>
    <path clip-path="url(#p254c7701eb)" d="M 283.010215 138.058521 
L 292.505325 119.725834 
L 224.597015 138.34176 
L 203.742712 160.053121 
L 283.010215 138.058521 
L 283.010215 138.058521 
z
" style="fill:none;stroke:#000000;stroke-width:2.5;"/>
    <path clip-path="url(#p254c7701eb)" d="M 351.048649 303.531175 
L 296.393683 304.347035 
L 309.902896 315.365375 
L 351.048649 303.531175 
L 351.048649 303.531175 
L 351.048649 303.531175 
z
" style="fill:none;stroke:#000000;stroke-width:2.5;"/>
    <path clip-path="url(#p254c7701eb)" d="M 206.235074 231.855066 
L 197.642791 194.844596 
L 170.248725 230.701847 
L 180.626358 266.571528 
L 206.235074 231.855066 
L 206.235074 231.855066 
z
" style="fill:none;stroke:#000000;stroke-width:2.5;"/>
    <path clip-path="url(#p254c7701eb)" d="M 351.048649 303.531175 
L 373.64162 320.186474 
L 398.890745 312.047499 
L 351.048649 303.531175 
L 351.048649 303.531175 
L 351.048649 303.531175 
z
" style="fill:none;stroke:#000000;stroke-width:2.5;"/>
    <path clip-path="url(#p254c7701eb)" d="M 351.048649 303.531175 
L 309.902896 315.365375 
L 339.489868 321.465994 
L 351.048649 303.531175 
L 351.048649 303.531175 
L 351.048649 303.531175 
z
" style="fill:none;stroke:#000000;stroke-width:2.5;"/>
    <path clip-path="url(#p254c7701eb)" d="M 398.890745 312.047499 
L 442.699309 316.300959 
L 454.711143 293.910854 
L 405.553782 300.308631 
L 398.890745 312.047499 
L 398.890745 312.047499 
z
" style="fill:none;stroke:#000000;stroke-width:2.5;"/>
    <path clip-path="url(#p254c7701eb)" d="M 351.048649 303.531175 
L 339.489868 321.465994 
L 373.64162 320.186474 
L 351.048649 303.531175 
L 351.048649 303.531175 
L 351.048649 303.531175 
z
" style="fill:none;stroke:#000000;stroke-width:2.5;"/>
    <path clip-path="url(#p254c7701eb)" d="M 380.907825 116.865522 
L 373.010548 115.770599 
L 308.014425 117.871376 
L 292.505325 119.725834 
L 380.907825 116.865522 
L 380.907825 116.865522 
z
" style="fill:none;stroke:#000000;stroke-width:2.5;"/>
    <path clip-path="url(#p254c7701eb)" d="M 296.393683 304.347035 
L 246.84284 301.57699 
L 272.064061 322.688346 
L 309.902896 315.365375 
L 296.393683 304.347035 
L 296.393683 304.347035 
z
" style="fill:none;stroke:#000000;stroke-width:2.5;"/>
    <path clip-path="url(#p254c7701eb)" d="M 530.219268 218.090371 
L 522.978312 181.790317 
L 476.589169 150.968967 
L 481.750787 185.139323 
L 530.219268 218.090371 
L 530.219268 218.090371 
z
" style="fill:none;stroke:#000000;stroke-width:2.5;"/>
    <path clip-path="url(#p254c7701eb)" d="M 442.699309 316.300959 
L 478.188808 310.861783 
L 494.017262 280.095032 
L 454.711143 293.910854 
L 442.699309 316.300959 
L 442.699309 316.300959 
z
" style="fill:none;stroke:#000000;stroke-width:2.5;"/>
    <path clip-path="url(#p254c7701eb)" d="M 458.920627 130.663644 
L 430.165624 125.881992 
L 373.010548 115.770599 
L 380.907825 116.865522 
L 458.920627 130.663644 
L 458.920627 130.663644 
z
" style="fill:none;stroke:#000000;stroke-width:2.5;"/>
    <path clip-path="url(#p254c7701eb)" d="M 292.505325 119.725834 
L 308.014425 117.871376 
L 258.450573 131.483838 
L 224.597015 138.34176 
L 292.505325 119.725834 
L 292.505325 119.725834 
z
" style="fill:none;stroke:#000000;stroke-width:2.5;"/>
    <path clip-path="url(#p254c7701eb)" d="M 197.642791 194.844596 
L 203.742712 160.053121 
L 177.619264 193.571029 
L 170.248725 230.701847 
L 197.642791 194.844596 
L 197.642791 194.844596 
z
" style="fill:none;stroke:#000000;stroke-width:2.5;"/>
    <path clip-path="url(#p254c7701eb)" d="M 246.84284 301.57699 
L 207.044529 290.588955 
L 241.2964 319.704804 
L 272.064061 322.688346 
L 246.84284 301.57699 
L 246.84284 301.57699 
z
" style="fill:none;stroke:#000000;stroke-width:2.5;"/>
    <path clip-path="url(#p254c7701eb)" d="M 373.64162 320.186474 
L 394.548726 332.016599 
L 442.699309 316.300959 
L 398.890745 312.047499 
L 373.64162 320.186474 
L 373.64162 320.186474 
z
" style="fill:none;stroke:#000000;stroke-width:2.5;"/>
    <path clip-path="url(#p254c7701eb)" d="M 309.902896 315.365375 
L 272.064061 322.688346 
L 328.775881 334.501711 
L 339.489868 321.465994 
L 309.902896 315.365375 
L 309.902896 315.365375 
z
" style="fill:none;stroke:#000000;stroke-width:2.5;"/>
    <path clip-path="url(#p254c7701eb)" d="M 478.188808 310.861783 
L 501.89765 290.228932 
L 520.022557 254.37293 
L 494.017262 280.095032 
L 478.188808 310.861783 
L 478.188808 310.861783 
z
" style="fill:none;stroke:#000000;stroke-width:2.5;"/>
    <path clip-path="url(#p254c7701eb)" d="M 522.978312 181.790317 
L 498.296987 156.654301 
L 458.920627 130.663644 
L 476.589169 150.968967 
L 522.978312 181.790317 
L 522.978312 181.790317 
z
" style="fill:none;stroke:#000000;stroke-width:2.5;"/>
    <path clip-path="url(#p254c7701eb)" d="M 373.010548 115.770599 
L 362.745075 126.112856 
L 328.147071 127.239831 
L 308.014425 117.871376 
L 373.010548 115.770599 
L 373.010548 115.770599 
z
" style="fill:none;stroke:#000000;stroke-width:2.5;"/>
    <path clip-path="url(#p254c7701eb)" d="M 339.489868 321.465994 
L 328.775881 334.501711 
L 394.548726 332.016599 
L 373.64162 320.186474 
L 339.489868 321.465994 
L 339.489868 321.465994 
z
" style="fill:none;stroke:#000000;stroke-width:2.5;"/>
    <path clip-path="url(#p254c7701eb)" d="M 207.044529 290.588955 
L 180.626358 266.571528 
L 220.684732 300.586218 
L 241.2964 319.704804 
L 207.044529 290.588955 
L 207.044529 290.588955 
z
" style="fill:none;stroke:#000000;stroke-width:2.5;"/>
    <path clip-path="url(#p254c7701eb)" d="M 203.742712 160.053121 
L 224.597015 138.34176 
L 202.701643 166.543669 
L 177.619264 193.571029 
L 203.742712 160.053121 
L 203.742712 160.053121 
z
" style="fill:none;stroke:#000000;stroke-width:2.5;"/>
    <path clip-path="url(#p254c7701eb)" d="M 430.165624 125.881992 
L 393.030151 131.52142 
L 362.745075 126.112856 
L 373.010548 115.770599 
L 430.165624 125.881992 
L 430.165624 125.881992 
z
" style="fill:none;stroke:#000000;stroke-width:2.5;"/>
    <path clip-path="url(#p254c7701eb)" d="M 308.014425 117.871376 
L 328.147071 127.239831 
L 302.013317 134.500801 
L 258.450573 131.483838 
L 308.014425 117.871376 
L 308.014425 117.871376 
z
" style="fill:none;stroke:#000000;stroke-width:2.5;"/>
    <path clip-path="url(#p254c7701eb)" d="M 394.548726 332.016599 
L 411.641374 332.67245 
L 478.188808 310.861783 
L 442.699309 316.300959 
L 394.548726 332.016599 
L 394.548726 332.016599 
z
" style="fill:none;stroke:#000000;stroke-width:2.5;"/>
    <path clip-path="url(#p254c7701eb)" d="M 501.89765 290.228932 
L 511.244176 255.197211 
L 530.219268 218.090371 
L 520.022557 254.37293 
L 501.89765 290.228932 
L 501.89765 290.228932 
z
" style="fill:none;stroke:#000000;stroke-width:2.5;"/>
    <path clip-path="url(#p254c7701eb)" d="M 498.296987 156.654301 
L 458.472825 144.773552 
L 430.165624 125.881992 
L 458.920627 130.663644 
L 498.296987 156.654301 
L 498.296987 156.654301 
z
" style="fill:none;stroke:#000000;stroke-width:2.5;"/>
    <path clip-path="url(#p254c7701eb)" d="M 272.064061 322.688346 
L 241.2964 319.704804 
L 320.00396 336.137815 
L 328.775881 334.501711 
L 272.064061 322.688346 
L 272.064061 322.688346 
z
" style="fill:none;stroke:#000000;stroke-width:2.5;"/>
    <path clip-path="url(#p254c7701eb)" d="M 224.597015 138.34176 
L 258.450573 131.483838 
L 243.0409 151.909213 
L 202.701643 166.543669 
L 224.597015 138.34176 
L 224.597015 138.34176 
z
" style="fill:none;stroke:#000000;stroke-width:2.5;"/>
    <path clip-path="url(#p254c7701eb)" d="M 180.626358 266.571528 
L 170.248725 230.701847 
L 212.546531 265.936856 
L 220.684732 300.586218 
L 180.626358 266.571528 
L 180.626358 266.571528 
z
" style="fill:none;stroke:#000000;stroke-width:2.5;"/>
    <path clip-path="url(#p254c7701eb)" d="M 328.775881 334.501711 
L 320.00396 336.137815 
L 411.641374 332.67245 
L 394.548726 332.016599 
L 328.775881 334.501711 
L 328.775881 334.501711 
z
" style="fill:none;stroke:#000000;stroke-width:2.5;"/>
    <path clip-path="url(#p254c7701eb)" d="M 362.745075 126.112856 
L 351.048649 142.086936 
L 351.048649 142.086936 
L 328.147071 127.239831 
L 362.745075 126.112856 
L 362.745075 126.112856 
z
" style="fill:none;stroke:#000000;stroke-width:2.5;"/>
    <path clip-path="url(#p254c7701eb)" d="M 458.472825 144.773552 
L 407.66292 141.520945 
L 393.030151 131.52142 
L 430.165624 125.881992 
L 458.472825 144.773552 
L 458.472825 144.773552 
z
" style="fill:none;stroke:#000000;stroke-width:2.5;"/>
    <path clip-path="url(#p254c7701eb)" d="M 258.450573 131.483838 
L 302.013317 134.500801 
L 294.272708 145.262627 
L 243.0409 151.909213 
L 258.450573 131.483838 
L 258.450573 131.483838 
z
" style="fill:none;stroke:#000000;stroke-width:2.5;"/>
    <path clip-path="url(#p254c7701eb)" d="M 328.147071 127.239831 
L 351.048649 142.086936 
L 351.048649 142.086936 
L 302.013317 134.500801 
L 328.147071 127.239831 
L 328.147071 127.239831 
z
" style="fill:none;stroke:#000000;stroke-width:2.5;"/>
    <path clip-path="url(#p254c7701eb)" d="M 393.030151 131.52142 
L 351.048649 142.086936 
L 351.048649 142.086936 
L 362.745075 126.112856 
L 393.030151 131.52142 
L 393.030151 131.52142 
z
" style="fill:none;stroke:#000000;stroke-width:2.5;"/>
    <path clip-path="url(#p254c7701eb)" d="M 511.244176 255.197211 
L 504.604032 216.428079 
L 522.978312 181.790317 
L 530.219268 218.090371 
L 511.244176 255.197211 
L 511.244176 255.197211 
z
" style="fill:none;stroke:#000000;stroke-width:2.5;"/>
    <path clip-path="url(#p254c7701eb)" d="M 411.641374 332.67245 
L 423.138746 315.816286 
L 501.89765 290.228932 
L 478.188808 310.861783 
L 411.641374 332.67245 
L 411.641374 332.67245 
z
" style="fill:none;stroke:#000000;stroke-width:2.5;"/>
    <path clip-path="url(#p254c7701eb)" d="M 302.013317 134.500801 
L 351.048649 142.086936 
L 351.048649 142.086936 
L 294.272708 145.262627 
L 302.013317 134.500801 
L 302.013317 134.500801 
z
" style="fill:none;stroke:#000000;stroke-width:2.5;"/>
    <path clip-path="url(#p254c7701eb)" d="M 407.66292 141.520945 
L 351.048649 142.086936 
L 351.048649 142.086936 
L 393.030151 131.52142 
L 407.66292 141.520945 
L 407.66292 141.520945 
z
" style="fill:none;stroke:#000000;stroke-width:2.5;"/>
    <path clip-path="url(#p254c7701eb)" d="M 241.2964 319.704804 
L 220.684732 300.586218 
L 314.097097 319.894698 
L 320.00396 336.137815 
L 241.2964 319.704804 
L 241.2964 319.704804 
z
" style="fill:none;stroke:#000000;stroke-width:2.5;"/>
    <path clip-path="url(#p254c7701eb)" d="M 170.248725 230.701847 
L 177.619264 193.571029 
L 218.328969 226.439153 
L 212.546531 265.936856 
L 170.248725 230.701847 
L 170.248725 230.701847 
z
" style="fill:none;stroke:#000000;stroke-width:2.5;"/>
    <path clip-path="url(#p254c7701eb)" d="M 504.604032 216.428079 
L 482.078004 185.660731 
L 498.296987 156.654301 
L 522.978312 181.790317 
L 504.604032 216.428079 
L 504.604032 216.428079 
z
" style="fill:none;stroke:#000000;stroke-width:2.5;"/>
    <path clip-path="url(#p254c7701eb)" d="M 294.272708 145.262627 
L 351.048649 142.086936 
L 351.048649 142.086936 
L 308.293757 155.475446 
L 294.272708 145.262627 
L 294.272708 145.262627 
z
" style="fill:none;stroke:#000000;stroke-width:2.5;"/>
    <path clip-path="url(#p254c7701eb)" d="M 400.75742 152.399507 
L 351.048649 142.086936 
L 351.048649 142.086936 
L 407.66292 141.520945 
L 400.75742 152.399507 
L 400.75742 152.399507 
z
" style="fill:none;stroke:#000000;stroke-width:2.5;"/>
    <path clip-path="url(#p254c7701eb)" d="M 320.00396 336.137815 
L 314.097097 319.894698 
L 423.138746 315.816286 
L 411.641374 332.67245 
L 320.00396 336.137815 
L 320.00396 336.137815 
z
" style="fill:none;stroke:#000000;stroke-width:2.5;"/>
    <path clip-path="url(#p254c7701eb)" d="M 177.619264 193.571029 
L 202.701643 166.543669 
L 237.918415 194.004628 
L 218.328969 226.439153 
L 177.619264 193.571029 
L 177.619264 193.571029 
z
" style="fill:none;stroke:#000000;stroke-width:2.5;"/>
    <path clip-path="url(#p254c7701eb)" d="M 446.077895 165.621941 
L 400.75742 152.399507 
L 407.66292 141.520945 
L 458.472825 144.773552 
L 446.077895 165.621941 
L 446.077895 165.621941 
z
" style="fill:none;stroke:#000000;stroke-width:2.5;"/>
    <path clip-path="url(#p254c7701eb)" d="M 482.078004 185.660731 
L 446.077895 165.621941 
L 458.472825 144.773552 
L 498.296987 156.654301 
L 482.078004 185.660731 
L 482.078004 185.660731 
z
" style="fill:none;stroke:#000000;stroke-width:2.5;"/>
    <path clip-path="url(#p254c7701eb)" d="M 243.0409 151.909213 
L 294.272708 145.262627 
L 308.293757 155.475446 
L 269.139406 171.57376 
L 243.0409 151.909213 
L 243.0409 151.909213 
z
" style="fill:none;stroke:#000000;stroke-width:2.5;"/>
    <path clip-path="url(#p254c7701eb)" d="M 308.293757 155.475446 
L 351.048649 142.086936 
L 351.048649 142.086936 
L 339.035894 161.132616 
L 308.293757 155.475446 
L 308.293757 155.475446 
z
" style="fill:none;stroke:#000000;stroke-width:2.5;"/>
    <path clip-path="url(#p254c7701eb)" d="M 374.528174 159.945953 
L 351.048649 142.086936 
L 351.048649 142.086936 
L 400.75742 152.399507 
L 374.528174 159.945953 
L 374.528174 159.945953 
z
" style="fill:none;stroke:#000000;stroke-width:2.5;"/>
    <path clip-path="url(#p254c7701eb)" d="M 202.701643 166.543669 
L 243.0409 151.909213 
L 269.139406 171.57376 
L 237.918415 194.004628 
L 202.701643 166.543669 
L 202.701643 166.543669 
z
" style="fill:none;stroke:#000000;stroke-width:2.5;"/>
    <path clip-path="url(#p254c7701eb)" d="M 423.138746 315.816286 
L 427.68869 281.746352 
L 511.244176 255.197211 
L 501.89765 290.228932 
L 423.138746 315.816286 
L 423.138746 315.816286 
z
" style="fill:none;stroke:#000000;stroke-width:2.5;"/>
    <path clip-path="url(#p254c7701eb)" d="M 339.035894 161.132616 
L 351.048649 142.086936 
L 351.048649 142.086936 
L 374.528174 159.945953 
L 339.035894 161.132616 
L 339.035894 161.132616 
z
" style="fill:none;stroke:#000000;stroke-width:2.5;"/>
    <path clip-path="url(#p254c7701eb)" d="M 220.684732 300.586218 
L 212.546531 265.936856 
L 311.758099 285.983401 
L 314.097097 319.894698 
L 220.684732 300.586218 
L 220.684732 300.586218 
z
" style="fill:none;stroke:#000000;stroke-width:2.5;"/>
    <path clip-path="url(#p254c7701eb)" d="M 396.169904 180.269295 
L 374.528174 159.945953 
L 400.75742 152.399507 
L 446.077895 165.621941 
L 396.169904 180.269295 
L 396.169904 180.269295 
z
" style="fill:none;stroke:#000000;stroke-width:2.5;"/>
    <path clip-path="url(#p254c7701eb)" d="M 269.139406 171.57376 
L 308.293757 155.475446 
L 339.035894 161.132616 
L 327.944385 182.586526 
L 269.139406 171.57376 
L 269.139406 171.57376 
z
" style="fill:none;stroke:#000000;stroke-width:2.5;"/>
    <path clip-path="url(#p254c7701eb)" d="M 314.097097 319.894698 
L 311.758099 285.983401 
L 427.68869 281.746352 
L 423.138746 315.816286 
L 314.097097 319.894698 
L 314.097097 319.894698 
z
" style="fill:none;stroke:#000000;stroke-width:2.5;"/>
    <path clip-path="url(#p254c7701eb)" d="M 427.68869 281.746352 
L 424.455212 241.164761 
L 504.604032 216.428079 
L 511.244176 255.197211 
L 427.68869 281.746352 
L 427.68869 281.746352 
z
" style="fill:none;stroke:#000000;stroke-width:2.5;"/>
    <path clip-path="url(#p254c7701eb)" d="M 212.546531 265.936856 
L 218.328969 226.439153 
L 313.420423 245.109021 
L 311.758099 285.983401 
L 212.546531 265.936856 
L 212.546531 265.936856 
z
" style="fill:none;stroke:#000000;stroke-width:2.5;"/>
    <path clip-path="url(#p254c7701eb)" d="M 327.944385 182.586526 
L 339.035894 161.132616 
L 374.528174 159.945953 
L 396.169904 180.269295 
L 327.944385 182.586526 
L 327.944385 182.586526 
z
" style="fill:none;stroke:#000000;stroke-width:2.5;"/>
    <path clip-path="url(#p254c7701eb)" d="M 413.523066 206.245863 
L 396.169904 180.269295 
L 446.077895 165.621941 
L 482.078004 185.660731 
L 413.523066 206.245863 
L 413.523066 206.245863 
z
" style="fill:none;stroke:#000000;stroke-width:2.5;"/>
    <path clip-path="url(#p254c7701eb)" d="M 424.455212 241.164761 
L 413.523066 206.245863 
L 482.078004 185.660731 
L 504.604032 216.428079 
L 424.455212 241.164761 
L 424.455212 241.164761 
z
" style="fill:none;stroke:#000000;stroke-width:2.5;"/>
    <path clip-path="url(#p254c7701eb)" d="M 237.918415 194.004628 
L 269.139406 171.57376 
L 327.944385 182.586526 
L 319.03758 209.518219 
L 237.918415 194.004628 
L 237.918415 194.004628 
z
" style="fill:none;stroke:#000000;stroke-width:2.5;"/>
    <path clip-path="url(#p254c7701eb)" d="M 218.328969 226.439153 
L 237.918415 194.004628 
L 319.03758 209.518219 
L 313.420423 245.109021 
L 218.328969 226.439153 
L 218.328969 226.439153 
z
" style="fill:none;stroke:#000000;stroke-width:2.5;"/>
    <path clip-path="url(#p254c7701eb)" d="M 311.758099 285.983401 
L 313.420423 245.109021 
L 424.455212 241.164761 
L 427.68869 281.746352 
L 311.758099 285.983401 
L 311.758099 285.983401 
z
" style="fill:none;stroke:#000000;stroke-width:2.5;"/>
    <path clip-path="url(#p254c7701eb)" d="M 319.03758 209.518219 
L 327.944385 182.586526 
L 396.169904 180.269295 
L 413.523066 206.245863 
L 319.03758 209.518219 
L 319.03758 209.518219 
z
" style="fill:none;stroke:#000000;stroke-width:2.5;"/>
    <path clip-path="url(#p254c7701eb)" d="M 313.420423 245.109021 
L 319.03758 209.518219 
L 413.523066 206.245863 
L 424.455212 241.164761 
L 313.420423 245.109021 
L 313.420423 245.109021 
z
" style="fill:none;stroke:#000000;stroke-width:2.5;"/>
   </g>
  </g>
 </g>
 <defs>
  <clipPath id="p254c7701eb">
   <rect height="446.4" width="669.6" x="7.2" y="7.2"/>
  </clipPath>
 </defs>
</svg>
