G04 #@! TF.FileFunction,Legend,Top*
%FSLAX46Y46*%
G04 Gerber Fmt 4.6, Leading zero omitted, Abs format (unit mm)*
G04 Created by KiCad (PCBNEW 4.0.2-stable) date Wednesday, 22 June 2016 'pmt' 15:55:54*
%MOMM*%
G01*
G04 APERTURE LIST*
%ADD10C,0.100000*%
%ADD11C,0.150000*%
%ADD12C,0.200000*%
%ADD13C,0.350000*%
%ADD14C,0.400000*%
%ADD15C,0.075000*%
%ADD16R,2.400000X1.700000*%
%ADD17R,1.020000X1.020000*%
%ADD18C,2.200000*%
%ADD19R,1.350000X1.400000*%
%ADD20R,1.620000X1.310000*%
%ADD21R,1.300000X0.900000*%
%ADD22R,1.000000X1.500000*%
%ADD23R,0.800000X1.350000*%
%ADD24R,1.150000X0.700000*%
%ADD25R,0.700000X1.150000*%
%ADD26R,2.602000X2.602000*%
%ADD27R,2.200000X1.100000*%
%ADD28R,2.200000X1.200000*%
%ADD29R,0.950000X1.250000*%
%ADD30O,0.700000X1.300000*%
%ADD31O,1.300000X0.700000*%
%ADD32R,3.600000X3.600000*%
%ADD33R,0.680000X0.900000*%
%ADD34R,1.900000X1.680000*%
%ADD35R,1.000000X1.400000*%
%ADD36R,2.400000X1.400000*%
%ADD37R,2.300000X2.300000*%
%ADD38C,2.300000*%
%ADD39R,1.550000X2.200000*%
%ADD40R,3.190000X1.140000*%
%ADD41R,1.400000X1.350000*%
%ADD42R,0.950000X1.945000*%
%ADD43R,1.945000X0.950000*%
%ADD44R,1.000000X1.150000*%
%ADD45C,1.400000*%
%ADD46R,2.400000X2.900000*%
%ADD47C,3.400000*%
%ADD48R,1.000000X0.750000*%
%ADD49R,1.350000X0.800000*%
%ADD50C,0.152400*%
G04 APERTURE END LIST*
D10*
D11*
X124535714Y-123333333D02*
X125202381Y-123333333D01*
X124154762Y-123571429D02*
X124869048Y-123809524D01*
X124869048Y-123190476D01*
X124202381Y-122904762D02*
X124202381Y-122285714D01*
X124583333Y-122619048D01*
X124583333Y-122476190D01*
X124630952Y-122380952D01*
X124678571Y-122333333D01*
X124773810Y-122285714D01*
X125011905Y-122285714D01*
X125107143Y-122333333D01*
X125154762Y-122380952D01*
X125202381Y-122476190D01*
X125202381Y-122761905D01*
X125154762Y-122857143D01*
X125107143Y-122904762D01*
X124535714Y-121428571D02*
X125202381Y-121428571D01*
X124154762Y-121666667D02*
X124869048Y-121904762D01*
X124869048Y-121285714D01*
X125202381Y-120904762D02*
X124202381Y-120904762D01*
X124916667Y-120571428D01*
X124202381Y-120238095D01*
X125202381Y-120238095D01*
X126380952Y-125047619D02*
X126333333Y-125142857D01*
X126285714Y-125190476D01*
X126190476Y-125238095D01*
X126142857Y-125238095D01*
X126047619Y-125190476D01*
X126000000Y-125142857D01*
X125952381Y-125047619D01*
X125952381Y-124857142D01*
X126000000Y-124761904D01*
X126047619Y-124714285D01*
X126142857Y-124666666D01*
X126190476Y-124666666D01*
X126285714Y-124714285D01*
X126333333Y-124761904D01*
X126380952Y-124857142D01*
X126380952Y-125047619D01*
X126428571Y-125142857D01*
X126476190Y-125190476D01*
X126571429Y-125238095D01*
X126761905Y-125238095D01*
X126857143Y-125190476D01*
X126904762Y-125142857D01*
X126952381Y-125047619D01*
X126952381Y-124857142D01*
X126904762Y-124761904D01*
X126857143Y-124714285D01*
X126761905Y-124666666D01*
X126571429Y-124666666D01*
X126476190Y-124714285D01*
X126428571Y-124761904D01*
X126380952Y-124857142D01*
X125952381Y-123809523D02*
X125952381Y-124000000D01*
X126000000Y-124095238D01*
X126047619Y-124142857D01*
X126190476Y-124238095D01*
X126380952Y-124285714D01*
X126761905Y-124285714D01*
X126857143Y-124238095D01*
X126904762Y-124190476D01*
X126952381Y-124095238D01*
X126952381Y-123904761D01*
X126904762Y-123809523D01*
X126857143Y-123761904D01*
X126761905Y-123714285D01*
X126523810Y-123714285D01*
X126428571Y-123761904D01*
X126380952Y-123809523D01*
X126333333Y-123904761D01*
X126333333Y-124095238D01*
X126380952Y-124190476D01*
X126428571Y-124238095D01*
X126523810Y-124285714D01*
X126380952Y-123142857D02*
X126333333Y-123238095D01*
X126285714Y-123285714D01*
X126190476Y-123333333D01*
X126142857Y-123333333D01*
X126047619Y-123285714D01*
X126000000Y-123238095D01*
X125952381Y-123142857D01*
X125952381Y-122952380D01*
X126000000Y-122857142D01*
X126047619Y-122809523D01*
X126142857Y-122761904D01*
X126190476Y-122761904D01*
X126285714Y-122809523D01*
X126333333Y-122857142D01*
X126380952Y-122952380D01*
X126380952Y-123142857D01*
X126428571Y-123238095D01*
X126476190Y-123285714D01*
X126571429Y-123333333D01*
X126761905Y-123333333D01*
X126857143Y-123285714D01*
X126904762Y-123238095D01*
X126952381Y-123142857D01*
X126952381Y-122952380D01*
X126904762Y-122857142D01*
X126857143Y-122809523D01*
X126761905Y-122761904D01*
X126571429Y-122761904D01*
X126476190Y-122809523D01*
X126428571Y-122857142D01*
X126380952Y-122952380D01*
X126952381Y-122333333D02*
X125952381Y-122333333D01*
X126666667Y-121999999D01*
X125952381Y-121666666D01*
X126952381Y-121666666D01*
X126952381Y-121190476D02*
X125952381Y-121190476D01*
X126428571Y-121190476D02*
X126428571Y-120619047D01*
X126952381Y-120619047D02*
X125952381Y-120619047D01*
X126285714Y-120238095D02*
X126285714Y-119714285D01*
X126952381Y-120238095D01*
X126952381Y-119714285D01*
D12*
X125500000Y-121500000D02*
X125500000Y-120500000D01*
X125500000Y-123500000D02*
X125500000Y-122500000D01*
X125500000Y-125500000D02*
X125500000Y-124500000D01*
D11*
X67650000Y-114307143D02*
X68259524Y-114307143D01*
X67954762Y-114611905D02*
X67954762Y-114002381D01*
X68564286Y-113811905D02*
X69059524Y-113811905D01*
X68792857Y-114116667D01*
X68907143Y-114116667D01*
X68983333Y-114154762D01*
X69021429Y-114192857D01*
X69059524Y-114269048D01*
X69059524Y-114459524D01*
X69021429Y-114535714D01*
X68983333Y-114573810D01*
X68907143Y-114611905D01*
X68678571Y-114611905D01*
X68602381Y-114573810D01*
X68564286Y-114535714D01*
X69402381Y-114535714D02*
X69440476Y-114573810D01*
X69402381Y-114611905D01*
X69364286Y-114573810D01*
X69402381Y-114535714D01*
X69402381Y-114611905D01*
X69707143Y-113811905D02*
X70202381Y-113811905D01*
X69935714Y-114116667D01*
X70050000Y-114116667D01*
X70126190Y-114154762D01*
X70164286Y-114192857D01*
X70202381Y-114269048D01*
X70202381Y-114459524D01*
X70164286Y-114535714D01*
X70126190Y-114573810D01*
X70050000Y-114611905D01*
X69821428Y-114611905D01*
X69745238Y-114573810D01*
X69707143Y-114535714D01*
X70430952Y-113811905D02*
X70697619Y-114611905D01*
X70964286Y-113811905D01*
X67783333Y-116061905D02*
X68050000Y-116861905D01*
X68316667Y-116061905D01*
X68850000Y-116442857D02*
X68964286Y-116480952D01*
X69002381Y-116519048D01*
X69040476Y-116595238D01*
X69040476Y-116709524D01*
X69002381Y-116785714D01*
X68964286Y-116823810D01*
X68888095Y-116861905D01*
X68583333Y-116861905D01*
X68583333Y-116061905D01*
X68850000Y-116061905D01*
X68926190Y-116100000D01*
X68964286Y-116138095D01*
X69002381Y-116214286D01*
X69002381Y-116290476D01*
X68964286Y-116366667D01*
X68926190Y-116404762D01*
X68850000Y-116442857D01*
X68583333Y-116442857D01*
X69383333Y-116061905D02*
X69383333Y-116709524D01*
X69421428Y-116785714D01*
X69459524Y-116823810D01*
X69535714Y-116861905D01*
X69688095Y-116861905D01*
X69764286Y-116823810D01*
X69802381Y-116785714D01*
X69840476Y-116709524D01*
X69840476Y-116061905D01*
X70183333Y-116823810D02*
X70297619Y-116861905D01*
X70488095Y-116861905D01*
X70564285Y-116823810D01*
X70602381Y-116785714D01*
X70640476Y-116709524D01*
X70640476Y-116633333D01*
X70602381Y-116557143D01*
X70564285Y-116519048D01*
X70488095Y-116480952D01*
X70335714Y-116442857D01*
X70259523Y-116404762D01*
X70221428Y-116366667D01*
X70183333Y-116290476D01*
X70183333Y-116214286D01*
X70221428Y-116138095D01*
X70259523Y-116100000D01*
X70335714Y-116061905D01*
X70526190Y-116061905D01*
X70640476Y-116100000D01*
D12*
X69500000Y-113000000D02*
X68000000Y-113000000D01*
X72500000Y-113000000D02*
X71000000Y-113000000D01*
X72500000Y-113500000D02*
X72500000Y-113000000D01*
X72500000Y-115500000D02*
X72500000Y-114500000D01*
X85000000Y-113500000D02*
X85000000Y-112000000D01*
X85000000Y-116500000D02*
X85000000Y-115000000D01*
X85000000Y-119000000D02*
X85000000Y-118000000D01*
X84500000Y-119000000D02*
X85000000Y-119000000D01*
X81500000Y-119000000D02*
X83000000Y-119000000D01*
X78500000Y-119000000D02*
X80000000Y-119000000D01*
X75500000Y-119000000D02*
X77000000Y-119000000D01*
X73500000Y-119000000D02*
X74000000Y-119000000D01*
X72500000Y-119000000D02*
X73500000Y-119000000D01*
X72500000Y-118000000D02*
X72500000Y-119000000D01*
X72500000Y-115500000D02*
X72500000Y-116500000D01*
X71000000Y-115500000D02*
X72500000Y-115500000D01*
X68000000Y-115500000D02*
X69500000Y-115500000D01*
D11*
X126750000Y-108500000D02*
X126750000Y-106000000D01*
X125000000Y-108500000D02*
X125000000Y-106000000D01*
X125000000Y-106000000D02*
X126750000Y-106000000D01*
X125000000Y-108500000D02*
X126750000Y-108500000D01*
X121250000Y-105500000D02*
X116500000Y-105500000D01*
X116500000Y-105500000D02*
X116500000Y-110500000D01*
X116500000Y-110500000D02*
X121250000Y-110500000D01*
X121250000Y-110500000D02*
X121250000Y-105500000D01*
X121250000Y-105500000D02*
X121250000Y-110000000D01*
X129500000Y-103500000D02*
X113500000Y-103500000D01*
X113500000Y-103500000D02*
X113500000Y-119500000D01*
X113500000Y-119500000D02*
X129500000Y-119500000D01*
X129500000Y-119500000D02*
X129500000Y-103500000D01*
X123750000Y-124900000D02*
G75*
G03X125750000Y-122900000I0J2000000D01*
G01*
X93250000Y-122925000D02*
G75*
G03X95275000Y-124900000I2000000J25000D01*
G01*
X125750000Y-105600000D02*
G75*
G03X123750000Y-103600000I-2000000J0D01*
G01*
X95250000Y-103600000D02*
G75*
G03X93250000Y-105600000I0J-2000000D01*
G01*
X93250000Y-105600000D02*
X93250000Y-122900000D01*
X95250000Y-124900000D02*
X123750000Y-124900000D01*
X125750000Y-122900000D02*
X125750000Y-105600000D01*
X123750000Y-103600000D02*
X95250000Y-103600000D01*
X91250000Y-116900000D02*
X93250000Y-116900000D01*
X93250000Y-111600000D02*
X91250000Y-111600000D01*
X129125000Y-98500000D02*
X128875000Y-98825000D01*
X129125000Y-98500000D02*
X128875000Y-98175000D01*
X128875000Y-98825000D02*
X128875000Y-98175000D01*
X129125000Y-101500000D02*
X128875000Y-101825000D01*
X129125000Y-101500000D02*
X128875000Y-101175000D01*
X128875000Y-101825000D02*
X128875000Y-101175000D01*
X69500000Y-121817500D02*
X69500000Y-122198500D01*
X69500000Y-120801500D02*
X69500000Y-121182500D01*
X69500000Y-121182500D02*
X69881000Y-121817500D01*
X69881000Y-121817500D02*
X69119000Y-121817500D01*
X69119000Y-121817500D02*
X69500000Y-121182500D01*
X70008000Y-121182500D02*
X68992000Y-121182500D01*
X68600000Y-119500000D02*
X68600000Y-123040000D01*
X70400000Y-119500000D02*
X70400000Y-123040000D01*
X72750000Y-121817500D02*
X72750000Y-122198500D01*
X72750000Y-120801500D02*
X72750000Y-121182500D01*
X72750000Y-121182500D02*
X73131000Y-121817500D01*
X73131000Y-121817500D02*
X72369000Y-121817500D01*
X72369000Y-121817500D02*
X72750000Y-121182500D01*
X73258000Y-121182500D02*
X72242000Y-121182500D01*
X71850000Y-119500000D02*
X71850000Y-123040000D01*
X73650000Y-119500000D02*
X73650000Y-123040000D01*
X76000000Y-121817500D02*
X76000000Y-122198500D01*
X76000000Y-120801500D02*
X76000000Y-121182500D01*
X76000000Y-121182500D02*
X76381000Y-121817500D01*
X76381000Y-121817500D02*
X75619000Y-121817500D01*
X75619000Y-121817500D02*
X76000000Y-121182500D01*
X76508000Y-121182500D02*
X75492000Y-121182500D01*
X75100000Y-119500000D02*
X75100000Y-123040000D01*
X76900000Y-119500000D02*
X76900000Y-123040000D01*
X79250000Y-121817500D02*
X79250000Y-122198500D01*
X79250000Y-120801500D02*
X79250000Y-121182500D01*
X79250000Y-121182500D02*
X79631000Y-121817500D01*
X79631000Y-121817500D02*
X78869000Y-121817500D01*
X78869000Y-121817500D02*
X79250000Y-121182500D01*
X79758000Y-121182500D02*
X78742000Y-121182500D01*
X78350000Y-119500000D02*
X78350000Y-123040000D01*
X80150000Y-119500000D02*
X80150000Y-123040000D01*
X82500000Y-121817500D02*
X82500000Y-122198500D01*
X82500000Y-120801500D02*
X82500000Y-121182500D01*
X82500000Y-121182500D02*
X82881000Y-121817500D01*
X82881000Y-121817500D02*
X82119000Y-121817500D01*
X82119000Y-121817500D02*
X82500000Y-121182500D01*
X83008000Y-121182500D02*
X81992000Y-121182500D01*
X81600000Y-119500000D02*
X81600000Y-123040000D01*
X83400000Y-119500000D02*
X83400000Y-123040000D01*
X85750000Y-121817500D02*
X85750000Y-122198500D01*
X85750000Y-120801500D02*
X85750000Y-121182500D01*
X85750000Y-121182500D02*
X86131000Y-121817500D01*
X86131000Y-121817500D02*
X85369000Y-121817500D01*
X85369000Y-121817500D02*
X85750000Y-121182500D01*
X86258000Y-121182500D02*
X85242000Y-121182500D01*
X84850000Y-119500000D02*
X84850000Y-123040000D01*
X86650000Y-119500000D02*
X86650000Y-123040000D01*
X89000000Y-121817500D02*
X89000000Y-122198500D01*
X89000000Y-120801500D02*
X89000000Y-121182500D01*
X89000000Y-121182500D02*
X89381000Y-121817500D01*
X89381000Y-121817500D02*
X88619000Y-121817500D01*
X88619000Y-121817500D02*
X89000000Y-121182500D01*
X89508000Y-121182500D02*
X88492000Y-121182500D01*
X88100000Y-119500000D02*
X88100000Y-123040000D01*
X89900000Y-119500000D02*
X89900000Y-123040000D01*
X92250000Y-121817500D02*
X92250000Y-122198500D01*
X92250000Y-120801500D02*
X92250000Y-121182500D01*
X92250000Y-121182500D02*
X92631000Y-121817500D01*
X92631000Y-121817500D02*
X91869000Y-121817500D01*
X91869000Y-121817500D02*
X92250000Y-121182500D01*
X92758000Y-121182500D02*
X91742000Y-121182500D01*
X91350000Y-119500000D02*
X91350000Y-123040000D01*
X93150000Y-119500000D02*
X93150000Y-123040000D01*
X70650000Y-118600000D02*
X69350000Y-118600000D01*
X69350000Y-118600000D02*
X69350000Y-117400000D01*
X69350000Y-117400000D02*
X70650000Y-117400000D01*
X70650000Y-117400000D02*
X70650000Y-118600000D01*
X70325000Y-118600000D02*
X70325000Y-117400000D01*
X108200000Y-110750000D02*
X108200000Y-110750000D01*
X108200000Y-110750000D02*
X106300000Y-110750000D01*
X106300000Y-110750000D02*
X106300000Y-110250000D01*
X106300000Y-110250000D02*
X107700000Y-110250000D01*
X107700000Y-110250000D02*
X108200000Y-110750000D01*
X95950000Y-121000000D02*
X95950000Y-121000000D01*
X95950000Y-121000000D02*
X94050000Y-121000000D01*
X94050000Y-121000000D02*
X94050000Y-120500000D01*
X94050000Y-120500000D02*
X95450000Y-120500000D01*
X95450000Y-120500000D02*
X95950000Y-121000000D01*
X111150000Y-111125000D02*
X111150000Y-111125000D01*
X111150000Y-111125000D02*
X109850000Y-111125000D01*
X109850000Y-111125000D02*
X109850000Y-110875000D01*
X109850000Y-110875000D02*
X110900000Y-110875000D01*
X110900000Y-110875000D02*
X111150000Y-111125000D01*
X109050000Y-122650000D02*
X108400000Y-123300000D01*
X105600000Y-123300000D02*
X104950000Y-123300000D01*
X104950000Y-123300000D02*
X104950000Y-122650000D01*
X105600000Y-119200000D02*
X104950000Y-119200000D01*
X104950000Y-119200000D02*
X104950000Y-119850000D01*
X108400000Y-119200000D02*
X109050000Y-119200000D01*
X109050000Y-119200000D02*
X109050000Y-119850000D01*
X82000000Y-117800000D02*
G75*
G03X82000000Y-117800000I-200000J0D01*
G01*
X81900000Y-117800000D02*
G75*
G03X81900000Y-117800000I-100000J0D01*
G01*
X73900000Y-108300000D02*
X83600000Y-108300000D01*
X73900000Y-118500000D02*
X83600000Y-118500000D01*
X81200000Y-106250000D02*
X81200000Y-106250000D01*
X81200000Y-106250000D02*
X79300000Y-106250000D01*
X79300000Y-106250000D02*
X79300000Y-105750000D01*
X79300000Y-105750000D02*
X80700000Y-105750000D01*
X80700000Y-105750000D02*
X81200000Y-106250000D01*
X86900000Y-113125000D02*
X86900000Y-113125000D01*
X86900000Y-113125000D02*
X85600000Y-113125000D01*
X85600000Y-113125000D02*
X85600000Y-112875000D01*
X85600000Y-112875000D02*
X86650000Y-112875000D01*
X86650000Y-112875000D02*
X86900000Y-113125000D01*
D13*
X102654000Y-111873000D02*
X103127000Y-111873000D01*
X103127000Y-111873000D02*
X103127000Y-112346000D01*
X103127000Y-116654000D02*
X103127000Y-117127000D01*
X103127000Y-117127000D02*
X102654000Y-117127000D01*
X98346000Y-111873000D02*
X97873000Y-111873000D01*
X97873000Y-111873000D02*
X97873000Y-112346000D01*
X97873000Y-116654000D02*
X97873000Y-117127000D01*
X97873000Y-117127000D02*
X98346000Y-117127000D01*
X102908000Y-111365000D02*
X103035000Y-111492000D01*
X103035000Y-111492000D02*
X102908000Y-111619000D01*
X102908000Y-111619000D02*
X102781000Y-111492000D01*
X102781000Y-111492000D02*
X102908000Y-111365000D01*
D11*
X72100000Y-110650000D02*
X72100000Y-108700000D01*
X72100000Y-108700000D02*
X71750000Y-108350000D01*
X71750000Y-108350000D02*
X70400000Y-108350000D01*
X70400000Y-108350000D02*
X70400000Y-110650000D01*
X70400000Y-110650000D02*
X72100000Y-110650000D01*
X87300000Y-116600000D02*
X87300000Y-116600000D01*
X87300000Y-116600000D02*
X89200000Y-116600000D01*
X89200000Y-116600000D02*
X89200000Y-116900000D01*
X89200000Y-116900000D02*
X87600000Y-116900000D01*
X87600000Y-116900000D02*
X87300000Y-116600000D01*
X70750000Y-103750000D02*
X70750000Y-102250000D01*
X70750000Y-102250000D02*
X70250000Y-102250000D01*
X70250000Y-102250000D02*
X70250000Y-103750000D01*
X70250000Y-103750000D02*
X70750000Y-103750000D01*
X69500000Y-104500000D02*
X71500000Y-104500000D01*
X71500000Y-104500000D02*
X71500000Y-97500000D01*
X71500000Y-97500000D02*
X69500000Y-97500000D01*
X69500000Y-97500000D02*
X69500000Y-104500000D01*
X129500000Y-126500000D02*
G75*
G03X132500000Y-123500000I0J3000000D01*
G01*
X132500000Y-99500000D02*
G75*
G03X129500000Y-96500000I-3000000J0D01*
G01*
X70500000Y-96500000D02*
G75*
G03X67500000Y-99500000I0J-3000000D01*
G01*
X67500000Y-123500000D02*
G75*
G03X70500000Y-126500000I3000000J0D01*
G01*
X132500000Y-123500000D02*
X132500000Y-100000000D01*
X70500000Y-126500000D02*
X129500000Y-126500000D01*
X67500000Y-100000000D02*
X67500000Y-123500000D01*
X132500000Y-100000000D02*
X132500000Y-99500000D01*
X70500000Y-96500000D02*
X129500000Y-96500000D01*
X67500000Y-100000000D02*
X67500000Y-99500000D01*
X67500000Y-99500000D02*
X67500000Y-100000000D01*
X74600000Y-97460000D02*
X125400000Y-97460000D01*
X125400000Y-97460000D02*
X125400000Y-102540000D01*
X125400000Y-102540000D02*
X101270000Y-102540000D01*
X98730000Y-102540000D02*
X74600000Y-102540000D01*
X74600000Y-102540000D02*
X74600000Y-97460000D01*
X77225000Y-104725000D02*
X75775000Y-104725000D01*
X75775000Y-104725000D02*
X75775000Y-103275000D01*
X75775000Y-103275000D02*
X77225000Y-103275000D01*
X77225000Y-103275000D02*
X77225000Y-104725000D01*
X89500000Y-102900000D02*
X88600000Y-102900000D01*
X89500000Y-109100000D02*
X88600000Y-109100000D01*
X88600000Y-109100000D02*
X88600000Y-107100000D01*
X88600000Y-102900000D02*
X88600000Y-104900000D01*
X89500000Y-102900000D02*
X89500000Y-109100000D01*
X97500000Y-125125000D02*
X97175000Y-124875000D01*
X97500000Y-125125000D02*
X97825000Y-124875000D01*
X97175000Y-124875000D02*
X97825000Y-124875000D01*
X99000000Y-125125000D02*
X98675000Y-124875000D01*
X99000000Y-125125000D02*
X99325000Y-124875000D01*
X98675000Y-124875000D02*
X99325000Y-124875000D01*
X105125000Y-104675000D02*
X105375000Y-104675000D01*
X105375000Y-104675000D02*
X105375000Y-105325000D01*
X105375000Y-105325000D02*
X105125000Y-105325000D01*
X105125000Y-105325000D02*
X105125000Y-104675000D01*
X98200000Y-107250000D02*
G75*
G03X98200000Y-107250000I-200000J0D01*
G01*
X98100000Y-107250000D02*
G75*
G03X98100000Y-107250000I-100000J0D01*
G01*
X98000000Y-107250000D02*
X98100000Y-107250000D01*
X103000000Y-107250000D02*
X102900000Y-107250000D01*
X103000000Y-104250000D02*
X102900000Y-104250000D01*
X98000000Y-104250000D02*
X98100000Y-104250000D01*
X103000000Y-105250000D02*
X103000000Y-104250000D01*
X103000000Y-107250000D02*
X103000000Y-106250000D01*
X98000000Y-105250000D02*
X98000000Y-104250000D01*
X98000000Y-107250000D02*
X98000000Y-106250000D01*
D12*
X109000000Y-107000000D02*
X110750000Y-107000000D01*
X110750000Y-107000000D02*
X110250000Y-106500000D01*
D11*
X110250000Y-106500000D02*
X110750000Y-107000000D01*
D12*
X110750000Y-107000000D02*
X110250000Y-107500000D01*
X107750000Y-104000000D02*
X107250000Y-104500000D01*
D11*
X108250000Y-104500000D02*
X107750000Y-104000000D01*
D12*
X107750000Y-104000000D02*
X108250000Y-104500000D01*
X107750000Y-105750000D02*
X107750000Y-104000000D01*
X107750000Y-105750000D02*
X107750000Y-104000000D01*
X107750000Y-104000000D02*
X108250000Y-104500000D01*
D11*
X108250000Y-104500000D02*
X107750000Y-104000000D01*
D12*
X107750000Y-104000000D02*
X107250000Y-104500000D01*
D14*
X107950000Y-107000000D02*
G75*
G03X107950000Y-107000000I-200000J0D01*
G01*
D12*
X108450000Y-107000000D02*
G75*
G03X108450000Y-107000000I-700000J0D01*
G01*
D11*
X107000000Y-124350000D02*
G75*
G03X107150000Y-124200000I0J150000D01*
G01*
X107150000Y-125800000D02*
G75*
G03X107000000Y-125650000I-150000J0D01*
G01*
X109000000Y-125650000D02*
G75*
G03X108850000Y-125800000I0J-150000D01*
G01*
X108850000Y-124200000D02*
G75*
G03X109000000Y-124350000I150000J0D01*
G01*
X107000000Y-125650000D02*
X107000000Y-124350000D01*
X109000000Y-125650000D02*
X109000000Y-124350000D01*
X108850000Y-124200000D02*
X107150000Y-124200000D01*
X108850000Y-125800000D02*
X107150000Y-125800000D01*
X131100000Y-119050000D02*
X131100000Y-119150000D01*
X131100000Y-119150000D02*
X131900000Y-119150000D01*
X131900000Y-119150000D02*
X131900000Y-119050000D01*
X131100000Y-118950000D02*
X131100000Y-119050000D01*
X131100000Y-119050000D02*
X131900000Y-119050000D01*
X131900000Y-119050000D02*
X131900000Y-118950000D01*
X131900000Y-118950000D02*
X131900000Y-117950000D01*
X131100000Y-118950000D02*
X131100000Y-117950000D01*
X119150000Y-122950000D02*
X119150000Y-122850000D01*
X119150000Y-122850000D02*
X118350000Y-122850000D01*
X118350000Y-122850000D02*
X118350000Y-122950000D01*
X119150000Y-123050000D02*
X119150000Y-122950000D01*
X119150000Y-122950000D02*
X118350000Y-122950000D01*
X118350000Y-122950000D02*
X118350000Y-123050000D01*
X118350000Y-123050000D02*
X118350000Y-124050000D01*
X119150000Y-123050000D02*
X119150000Y-124050000D01*
X98275000Y-120250000D02*
X98275000Y-120250000D01*
X98275000Y-120250000D02*
X98275000Y-118950000D01*
X98275000Y-118950000D02*
X98525000Y-118950000D01*
X98525000Y-118950000D02*
X98525000Y-120000000D01*
X98525000Y-120000000D02*
X98275000Y-120250000D01*
X114828571Y-103042857D02*
X114828571Y-101842857D01*
X116085715Y-102928571D02*
X116028572Y-102985714D01*
X115857143Y-103042857D01*
X115742857Y-103042857D01*
X115571429Y-102985714D01*
X115457143Y-102871429D01*
X115400000Y-102757143D01*
X115342857Y-102528571D01*
X115342857Y-102357143D01*
X115400000Y-102128571D01*
X115457143Y-102014286D01*
X115571429Y-101900000D01*
X115742857Y-101842857D01*
X115857143Y-101842857D01*
X116028572Y-101900000D01*
X116085715Y-101957143D01*
X117114286Y-102242857D02*
X117114286Y-103042857D01*
X116828572Y-101785714D02*
X116542857Y-102642857D01*
X117285715Y-102642857D01*
X95083334Y-118357143D02*
X95035715Y-118404762D01*
X94892858Y-118452381D01*
X94797620Y-118452381D01*
X94654762Y-118404762D01*
X94559524Y-118309524D01*
X94511905Y-118214286D01*
X94464286Y-118023810D01*
X94464286Y-117880952D01*
X94511905Y-117690476D01*
X94559524Y-117595238D01*
X94654762Y-117500000D01*
X94797620Y-117452381D01*
X94892858Y-117452381D01*
X95035715Y-117500000D01*
X95083334Y-117547619D01*
X96035715Y-118452381D02*
X95464286Y-118452381D01*
X95750000Y-118452381D02*
X95750000Y-117452381D01*
X95654762Y-117595238D01*
X95559524Y-117690476D01*
X95464286Y-117738095D01*
X106583334Y-113607143D02*
X106535715Y-113654762D01*
X106392858Y-113702381D01*
X106297620Y-113702381D01*
X106154762Y-113654762D01*
X106059524Y-113559524D01*
X106011905Y-113464286D01*
X105964286Y-113273810D01*
X105964286Y-113130952D01*
X106011905Y-112940476D01*
X106059524Y-112845238D01*
X106154762Y-112750000D01*
X106297620Y-112702381D01*
X106392858Y-112702381D01*
X106535715Y-112750000D01*
X106583334Y-112797619D01*
X106964286Y-112797619D02*
X107011905Y-112750000D01*
X107107143Y-112702381D01*
X107345239Y-112702381D01*
X107440477Y-112750000D01*
X107488096Y-112797619D01*
X107535715Y-112892857D01*
X107535715Y-112988095D01*
X107488096Y-113130952D01*
X106916667Y-113702381D01*
X107535715Y-113702381D01*
X95333334Y-124607143D02*
X95285715Y-124654762D01*
X95142858Y-124702381D01*
X95047620Y-124702381D01*
X94904762Y-124654762D01*
X94809524Y-124559524D01*
X94761905Y-124464286D01*
X94714286Y-124273810D01*
X94714286Y-124130952D01*
X94761905Y-123940476D01*
X94809524Y-123845238D01*
X94904762Y-123750000D01*
X95047620Y-123702381D01*
X95142858Y-123702381D01*
X95285715Y-123750000D01*
X95333334Y-123797619D01*
X95666667Y-123702381D02*
X96285715Y-123702381D01*
X95952381Y-124083333D01*
X96095239Y-124083333D01*
X96190477Y-124130952D01*
X96238096Y-124178571D01*
X96285715Y-124273810D01*
X96285715Y-124511905D01*
X96238096Y-124607143D01*
X96190477Y-124654762D01*
X96095239Y-124702381D01*
X95809524Y-124702381D01*
X95714286Y-124654762D01*
X95666667Y-124607143D01*
X97107143Y-111166666D02*
X97154762Y-111214285D01*
X97202381Y-111357142D01*
X97202381Y-111452380D01*
X97154762Y-111595238D01*
X97059524Y-111690476D01*
X96964286Y-111738095D01*
X96773810Y-111785714D01*
X96630952Y-111785714D01*
X96440476Y-111738095D01*
X96345238Y-111690476D01*
X96250000Y-111595238D01*
X96202381Y-111452380D01*
X96202381Y-111357142D01*
X96250000Y-111214285D01*
X96297619Y-111166666D01*
X96202381Y-110261904D02*
X96202381Y-110738095D01*
X96678571Y-110785714D01*
X96630952Y-110738095D01*
X96583333Y-110642857D01*
X96583333Y-110404761D01*
X96630952Y-110309523D01*
X96678571Y-110261904D01*
X96773810Y-110214285D01*
X97011905Y-110214285D01*
X97107143Y-110261904D01*
X97154762Y-110309523D01*
X97202381Y-110404761D01*
X97202381Y-110642857D01*
X97154762Y-110738095D01*
X97107143Y-110785714D01*
X106583334Y-114857143D02*
X106535715Y-114904762D01*
X106392858Y-114952381D01*
X106297620Y-114952381D01*
X106154762Y-114904762D01*
X106059524Y-114809524D01*
X106011905Y-114714286D01*
X105964286Y-114523810D01*
X105964286Y-114380952D01*
X106011905Y-114190476D01*
X106059524Y-114095238D01*
X106154762Y-114000000D01*
X106297620Y-113952381D01*
X106392858Y-113952381D01*
X106535715Y-114000000D01*
X106583334Y-114047619D01*
X107440477Y-113952381D02*
X107250000Y-113952381D01*
X107154762Y-114000000D01*
X107107143Y-114047619D01*
X107011905Y-114190476D01*
X106964286Y-114380952D01*
X106964286Y-114761905D01*
X107011905Y-114857143D01*
X107059524Y-114904762D01*
X107154762Y-114952381D01*
X107345239Y-114952381D01*
X107440477Y-114904762D01*
X107488096Y-114857143D01*
X107535715Y-114761905D01*
X107535715Y-114523810D01*
X107488096Y-114428571D01*
X107440477Y-114380952D01*
X107345239Y-114333333D01*
X107154762Y-114333333D01*
X107059524Y-114380952D01*
X107011905Y-114428571D01*
X106964286Y-114523810D01*
X111083334Y-124357143D02*
X111035715Y-124404762D01*
X110892858Y-124452381D01*
X110797620Y-124452381D01*
X110654762Y-124404762D01*
X110559524Y-124309524D01*
X110511905Y-124214286D01*
X110464286Y-124023810D01*
X110464286Y-123880952D01*
X110511905Y-123690476D01*
X110559524Y-123595238D01*
X110654762Y-123500000D01*
X110797620Y-123452381D01*
X110892858Y-123452381D01*
X111035715Y-123500000D01*
X111083334Y-123547619D01*
X111654762Y-123880952D02*
X111559524Y-123833333D01*
X111511905Y-123785714D01*
X111464286Y-123690476D01*
X111464286Y-123642857D01*
X111511905Y-123547619D01*
X111559524Y-123500000D01*
X111654762Y-123452381D01*
X111845239Y-123452381D01*
X111940477Y-123500000D01*
X111988096Y-123547619D01*
X112035715Y-123642857D01*
X112035715Y-123690476D01*
X111988096Y-123785714D01*
X111940477Y-123833333D01*
X111845239Y-123880952D01*
X111654762Y-123880952D01*
X111559524Y-123928571D01*
X111511905Y-123976190D01*
X111464286Y-124071429D01*
X111464286Y-124261905D01*
X111511905Y-124357143D01*
X111559524Y-124404762D01*
X111654762Y-124452381D01*
X111845239Y-124452381D01*
X111940477Y-124404762D01*
X111988096Y-124357143D01*
X112035715Y-124261905D01*
X112035715Y-124071429D01*
X111988096Y-123976190D01*
X111940477Y-123928571D01*
X111845239Y-123880952D01*
X110107143Y-115666666D02*
X110154762Y-115714285D01*
X110202381Y-115857142D01*
X110202381Y-115952380D01*
X110154762Y-116095238D01*
X110059524Y-116190476D01*
X109964286Y-116238095D01*
X109773810Y-116285714D01*
X109630952Y-116285714D01*
X109440476Y-116238095D01*
X109345238Y-116190476D01*
X109250000Y-116095238D01*
X109202381Y-115952380D01*
X109202381Y-115857142D01*
X109250000Y-115714285D01*
X109297619Y-115666666D01*
X110202381Y-115190476D02*
X110202381Y-115000000D01*
X110154762Y-114904761D01*
X110107143Y-114857142D01*
X109964286Y-114761904D01*
X109773810Y-114714285D01*
X109392857Y-114714285D01*
X109297619Y-114761904D01*
X109250000Y-114809523D01*
X109202381Y-114904761D01*
X109202381Y-115095238D01*
X109250000Y-115190476D01*
X109297619Y-115238095D01*
X109392857Y-115285714D01*
X109630952Y-115285714D01*
X109726190Y-115238095D01*
X109773810Y-115190476D01*
X109821429Y-115095238D01*
X109821429Y-114904761D01*
X109773810Y-114809523D01*
X109726190Y-114761904D01*
X109630952Y-114714285D01*
X114607143Y-105607143D02*
X114559524Y-105654762D01*
X114416667Y-105702381D01*
X114321429Y-105702381D01*
X114178571Y-105654762D01*
X114083333Y-105559524D01*
X114035714Y-105464286D01*
X113988095Y-105273810D01*
X113988095Y-105130952D01*
X114035714Y-104940476D01*
X114083333Y-104845238D01*
X114178571Y-104750000D01*
X114321429Y-104702381D01*
X114416667Y-104702381D01*
X114559524Y-104750000D01*
X114607143Y-104797619D01*
X115559524Y-105702381D02*
X114988095Y-105702381D01*
X115273809Y-105702381D02*
X115273809Y-104702381D01*
X115178571Y-104845238D01*
X115083333Y-104940476D01*
X114988095Y-104988095D01*
X116178571Y-104702381D02*
X116273810Y-104702381D01*
X116369048Y-104750000D01*
X116416667Y-104797619D01*
X116464286Y-104892857D01*
X116511905Y-105083333D01*
X116511905Y-105321429D01*
X116464286Y-105511905D01*
X116416667Y-105607143D01*
X116369048Y-105654762D01*
X116273810Y-105702381D01*
X116178571Y-105702381D01*
X116083333Y-105654762D01*
X116035714Y-105607143D01*
X115988095Y-105511905D01*
X115940476Y-105321429D01*
X115940476Y-105083333D01*
X115988095Y-104892857D01*
X116035714Y-104797619D01*
X116083333Y-104750000D01*
X116178571Y-104702381D01*
X92119048Y-110571429D02*
X92880953Y-110571429D01*
X92119048Y-116071429D02*
X92880953Y-116071429D01*
X92500001Y-116452381D02*
X92500001Y-115690476D01*
X108857143Y-115642857D02*
X108904762Y-115690476D01*
X108952381Y-115833333D01*
X108952381Y-115928571D01*
X108904762Y-116071429D01*
X108809524Y-116166667D01*
X108714286Y-116214286D01*
X108523810Y-116261905D01*
X108380952Y-116261905D01*
X108190476Y-116214286D01*
X108095238Y-116166667D01*
X108000000Y-116071429D01*
X107952381Y-115928571D01*
X107952381Y-115833333D01*
X108000000Y-115690476D01*
X108047619Y-115642857D01*
X108952381Y-114690476D02*
X108952381Y-115261905D01*
X108952381Y-114976191D02*
X107952381Y-114976191D01*
X108095238Y-115071429D01*
X108190476Y-115166667D01*
X108238095Y-115261905D01*
X108952381Y-113738095D02*
X108952381Y-114309524D01*
X108952381Y-114023810D02*
X107952381Y-114023810D01*
X108095238Y-114119048D01*
X108190476Y-114214286D01*
X108238095Y-114309524D01*
X105607143Y-116107143D02*
X105559524Y-116154762D01*
X105416667Y-116202381D01*
X105321429Y-116202381D01*
X105178571Y-116154762D01*
X105083333Y-116059524D01*
X105035714Y-115964286D01*
X104988095Y-115773810D01*
X104988095Y-115630952D01*
X105035714Y-115440476D01*
X105083333Y-115345238D01*
X105178571Y-115250000D01*
X105321429Y-115202381D01*
X105416667Y-115202381D01*
X105559524Y-115250000D01*
X105607143Y-115297619D01*
X106559524Y-116202381D02*
X105988095Y-116202381D01*
X106273809Y-116202381D02*
X106273809Y-115202381D01*
X106178571Y-115345238D01*
X106083333Y-115440476D01*
X105988095Y-115488095D01*
X106892857Y-115202381D02*
X107511905Y-115202381D01*
X107178571Y-115583333D01*
X107321429Y-115583333D01*
X107416667Y-115630952D01*
X107464286Y-115678571D01*
X107511905Y-115773810D01*
X107511905Y-116011905D01*
X107464286Y-116107143D01*
X107416667Y-116154762D01*
X107321429Y-116202381D01*
X107035714Y-116202381D01*
X106940476Y-116154762D01*
X106892857Y-116107143D01*
X95107143Y-117107143D02*
X95059524Y-117154762D01*
X94916667Y-117202381D01*
X94821429Y-117202381D01*
X94678571Y-117154762D01*
X94583333Y-117059524D01*
X94535714Y-116964286D01*
X94488095Y-116773810D01*
X94488095Y-116630952D01*
X94535714Y-116440476D01*
X94583333Y-116345238D01*
X94678571Y-116250000D01*
X94821429Y-116202381D01*
X94916667Y-116202381D01*
X95059524Y-116250000D01*
X95107143Y-116297619D01*
X96059524Y-117202381D02*
X95488095Y-117202381D01*
X95773809Y-117202381D02*
X95773809Y-116202381D01*
X95678571Y-116345238D01*
X95583333Y-116440476D01*
X95488095Y-116488095D01*
X96916667Y-116535714D02*
X96916667Y-117202381D01*
X96678571Y-116154762D02*
X96440476Y-116869048D01*
X97059524Y-116869048D01*
X72857143Y-106607143D02*
X72809524Y-106654762D01*
X72666667Y-106702381D01*
X72571429Y-106702381D01*
X72428571Y-106654762D01*
X72333333Y-106559524D01*
X72285714Y-106464286D01*
X72238095Y-106273810D01*
X72238095Y-106130952D01*
X72285714Y-105940476D01*
X72333333Y-105845238D01*
X72428571Y-105750000D01*
X72571429Y-105702381D01*
X72666667Y-105702381D01*
X72809524Y-105750000D01*
X72857143Y-105797619D01*
X73809524Y-106702381D02*
X73238095Y-106702381D01*
X73523809Y-106702381D02*
X73523809Y-105702381D01*
X73428571Y-105845238D01*
X73333333Y-105940476D01*
X73238095Y-105988095D01*
X74714286Y-105702381D02*
X74238095Y-105702381D01*
X74190476Y-106178571D01*
X74238095Y-106130952D01*
X74333333Y-106083333D01*
X74571429Y-106083333D01*
X74666667Y-106130952D01*
X74714286Y-106178571D01*
X74761905Y-106273810D01*
X74761905Y-106511905D01*
X74714286Y-106607143D01*
X74666667Y-106654762D01*
X74571429Y-106702381D01*
X74333333Y-106702381D01*
X74238095Y-106654762D01*
X74190476Y-106607143D01*
X88107143Y-113607143D02*
X88059524Y-113654762D01*
X87916667Y-113702381D01*
X87821429Y-113702381D01*
X87678571Y-113654762D01*
X87583333Y-113559524D01*
X87535714Y-113464286D01*
X87488095Y-113273810D01*
X87488095Y-113130952D01*
X87535714Y-112940476D01*
X87583333Y-112845238D01*
X87678571Y-112750000D01*
X87821429Y-112702381D01*
X87916667Y-112702381D01*
X88059524Y-112750000D01*
X88107143Y-112797619D01*
X89059524Y-113702381D02*
X88488095Y-113702381D01*
X88773809Y-113702381D02*
X88773809Y-112702381D01*
X88678571Y-112845238D01*
X88583333Y-112940476D01*
X88488095Y-112988095D01*
X89916667Y-112702381D02*
X89726190Y-112702381D01*
X89630952Y-112750000D01*
X89583333Y-112797619D01*
X89488095Y-112940476D01*
X89440476Y-113130952D01*
X89440476Y-113511905D01*
X89488095Y-113607143D01*
X89535714Y-113654762D01*
X89630952Y-113702381D01*
X89821429Y-113702381D01*
X89916667Y-113654762D01*
X89964286Y-113607143D01*
X90011905Y-113511905D01*
X90011905Y-113273810D01*
X89964286Y-113178571D01*
X89916667Y-113130952D01*
X89821429Y-113083333D01*
X89630952Y-113083333D01*
X89535714Y-113130952D01*
X89488095Y-113178571D01*
X89440476Y-113273810D01*
X110357143Y-122607143D02*
X110309524Y-122654762D01*
X110166667Y-122702381D01*
X110071429Y-122702381D01*
X109928571Y-122654762D01*
X109833333Y-122559524D01*
X109785714Y-122464286D01*
X109738095Y-122273810D01*
X109738095Y-122130952D01*
X109785714Y-121940476D01*
X109833333Y-121845238D01*
X109928571Y-121750000D01*
X110071429Y-121702381D01*
X110166667Y-121702381D01*
X110309524Y-121750000D01*
X110357143Y-121797619D01*
X111309524Y-122702381D02*
X110738095Y-122702381D01*
X111023809Y-122702381D02*
X111023809Y-121702381D01*
X110928571Y-121845238D01*
X110833333Y-121940476D01*
X110738095Y-121988095D01*
X111642857Y-121702381D02*
X112309524Y-121702381D01*
X111880952Y-122702381D01*
X83107143Y-103607143D02*
X83059524Y-103654762D01*
X82916667Y-103702381D01*
X82821429Y-103702381D01*
X82678571Y-103654762D01*
X82583333Y-103559524D01*
X82535714Y-103464286D01*
X82488095Y-103273810D01*
X82488095Y-103130952D01*
X82535714Y-102940476D01*
X82583333Y-102845238D01*
X82678571Y-102750000D01*
X82821429Y-102702381D01*
X82916667Y-102702381D01*
X83059524Y-102750000D01*
X83107143Y-102797619D01*
X84059524Y-103702381D02*
X83488095Y-103702381D01*
X83773809Y-103702381D02*
X83773809Y-102702381D01*
X83678571Y-102845238D01*
X83583333Y-102940476D01*
X83488095Y-102988095D01*
X84630952Y-103130952D02*
X84535714Y-103083333D01*
X84488095Y-103035714D01*
X84440476Y-102940476D01*
X84440476Y-102892857D01*
X84488095Y-102797619D01*
X84535714Y-102750000D01*
X84630952Y-102702381D01*
X84821429Y-102702381D01*
X84916667Y-102750000D01*
X84964286Y-102797619D01*
X85011905Y-102892857D01*
X85011905Y-102940476D01*
X84964286Y-103035714D01*
X84916667Y-103083333D01*
X84821429Y-103130952D01*
X84630952Y-103130952D01*
X84535714Y-103178571D01*
X84488095Y-103226190D01*
X84440476Y-103321429D01*
X84440476Y-103511905D01*
X84488095Y-103607143D01*
X84535714Y-103654762D01*
X84630952Y-103702381D01*
X84821429Y-103702381D01*
X84916667Y-103654762D01*
X84964286Y-103607143D01*
X85011905Y-103511905D01*
X85011905Y-103321429D01*
X84964286Y-103226190D01*
X84916667Y-103178571D01*
X84821429Y-103130952D01*
X111607143Y-126107143D02*
X111559524Y-126154762D01*
X111416667Y-126202381D01*
X111321429Y-126202381D01*
X111178571Y-126154762D01*
X111083333Y-126059524D01*
X111035714Y-125964286D01*
X110988095Y-125773810D01*
X110988095Y-125630952D01*
X111035714Y-125440476D01*
X111083333Y-125345238D01*
X111178571Y-125250000D01*
X111321429Y-125202381D01*
X111416667Y-125202381D01*
X111559524Y-125250000D01*
X111607143Y-125297619D01*
X112559524Y-126202381D02*
X111988095Y-126202381D01*
X112273809Y-126202381D02*
X112273809Y-125202381D01*
X112178571Y-125345238D01*
X112083333Y-125440476D01*
X111988095Y-125488095D01*
X113035714Y-126202381D02*
X113226190Y-126202381D01*
X113321429Y-126154762D01*
X113369048Y-126107143D01*
X113464286Y-125964286D01*
X113511905Y-125773810D01*
X113511905Y-125392857D01*
X113464286Y-125297619D01*
X113416667Y-125250000D01*
X113321429Y-125202381D01*
X113130952Y-125202381D01*
X113035714Y-125250000D01*
X112988095Y-125297619D01*
X112940476Y-125392857D01*
X112940476Y-125630952D01*
X112988095Y-125726190D01*
X113035714Y-125773810D01*
X113130952Y-125821429D01*
X113321429Y-125821429D01*
X113416667Y-125773810D01*
X113464286Y-125726190D01*
X113511905Y-125630952D01*
X114607143Y-126107143D02*
X114559524Y-126154762D01*
X114416667Y-126202381D01*
X114321429Y-126202381D01*
X114178571Y-126154762D01*
X114083333Y-126059524D01*
X114035714Y-125964286D01*
X113988095Y-125773810D01*
X113988095Y-125630952D01*
X114035714Y-125440476D01*
X114083333Y-125345238D01*
X114178571Y-125250000D01*
X114321429Y-125202381D01*
X114416667Y-125202381D01*
X114559524Y-125250000D01*
X114607143Y-125297619D01*
X114988095Y-125297619D02*
X115035714Y-125250000D01*
X115130952Y-125202381D01*
X115369048Y-125202381D01*
X115464286Y-125250000D01*
X115511905Y-125297619D01*
X115559524Y-125392857D01*
X115559524Y-125488095D01*
X115511905Y-125630952D01*
X114940476Y-126202381D01*
X115559524Y-126202381D01*
X116178571Y-125202381D02*
X116273810Y-125202381D01*
X116369048Y-125250000D01*
X116416667Y-125297619D01*
X116464286Y-125392857D01*
X116511905Y-125583333D01*
X116511905Y-125821429D01*
X116464286Y-126011905D01*
X116416667Y-126107143D01*
X116369048Y-126154762D01*
X116273810Y-126202381D01*
X116178571Y-126202381D01*
X116083333Y-126154762D01*
X116035714Y-126107143D01*
X115988095Y-126011905D01*
X115940476Y-125821429D01*
X115940476Y-125583333D01*
X115988095Y-125392857D01*
X116035714Y-125297619D01*
X116083333Y-125250000D01*
X116178571Y-125202381D01*
X117607143Y-120642857D02*
X117654762Y-120690476D01*
X117702381Y-120833333D01*
X117702381Y-120928571D01*
X117654762Y-121071429D01*
X117559524Y-121166667D01*
X117464286Y-121214286D01*
X117273810Y-121261905D01*
X117130952Y-121261905D01*
X116940476Y-121214286D01*
X116845238Y-121166667D01*
X116750000Y-121071429D01*
X116702381Y-120928571D01*
X116702381Y-120833333D01*
X116750000Y-120690476D01*
X116797619Y-120642857D01*
X116797619Y-120261905D02*
X116750000Y-120214286D01*
X116702381Y-120119048D01*
X116702381Y-119880952D01*
X116750000Y-119785714D01*
X116797619Y-119738095D01*
X116892857Y-119690476D01*
X116988095Y-119690476D01*
X117130952Y-119738095D01*
X117702381Y-120309524D01*
X117702381Y-119690476D01*
X117702381Y-118738095D02*
X117702381Y-119309524D01*
X117702381Y-119023810D02*
X116702381Y-119023810D01*
X116845238Y-119119048D01*
X116940476Y-119214286D01*
X116988095Y-119309524D01*
X83107143Y-106107143D02*
X83059524Y-106154762D01*
X82916667Y-106202381D01*
X82821429Y-106202381D01*
X82678571Y-106154762D01*
X82583333Y-106059524D01*
X82535714Y-105964286D01*
X82488095Y-105773810D01*
X82488095Y-105630952D01*
X82535714Y-105440476D01*
X82583333Y-105345238D01*
X82678571Y-105250000D01*
X82821429Y-105202381D01*
X82916667Y-105202381D01*
X83059524Y-105250000D01*
X83107143Y-105297619D01*
X83488095Y-105297619D02*
X83535714Y-105250000D01*
X83630952Y-105202381D01*
X83869048Y-105202381D01*
X83964286Y-105250000D01*
X84011905Y-105297619D01*
X84059524Y-105392857D01*
X84059524Y-105488095D01*
X84011905Y-105630952D01*
X83440476Y-106202381D01*
X84059524Y-106202381D01*
X84392857Y-105202381D02*
X85011905Y-105202381D01*
X84678571Y-105583333D01*
X84821429Y-105583333D01*
X84916667Y-105630952D01*
X84964286Y-105678571D01*
X85011905Y-105773810D01*
X85011905Y-106011905D01*
X84964286Y-106107143D01*
X84916667Y-106154762D01*
X84821429Y-106202381D01*
X84535714Y-106202381D01*
X84440476Y-106154762D01*
X84392857Y-106107143D01*
X131677381Y-99238095D02*
X130677381Y-99238095D01*
X130677381Y-99000000D01*
X130725000Y-98857142D01*
X130820238Y-98761904D01*
X130915476Y-98714285D01*
X131105952Y-98666666D01*
X131248810Y-98666666D01*
X131439286Y-98714285D01*
X131534524Y-98761904D01*
X131629762Y-98857142D01*
X131677381Y-99000000D01*
X131677381Y-99238095D01*
X131677381Y-97714285D02*
X131677381Y-98285714D01*
X131677381Y-98000000D02*
X130677381Y-98000000D01*
X130820238Y-98095238D01*
X130915476Y-98190476D01*
X130963095Y-98285714D01*
X131677381Y-102238095D02*
X130677381Y-102238095D01*
X130677381Y-102000000D01*
X130725000Y-101857142D01*
X130820238Y-101761904D01*
X130915476Y-101714285D01*
X131105952Y-101666666D01*
X131248810Y-101666666D01*
X131439286Y-101714285D01*
X131534524Y-101761904D01*
X131629762Y-101857142D01*
X131677381Y-102000000D01*
X131677381Y-102238095D01*
X130772619Y-101285714D02*
X130725000Y-101238095D01*
X130677381Y-101142857D01*
X130677381Y-100904761D01*
X130725000Y-100809523D01*
X130772619Y-100761904D01*
X130867857Y-100714285D01*
X130963095Y-100714285D01*
X131105952Y-100761904D01*
X131677381Y-101333333D01*
X131677381Y-100714285D01*
X103523810Y-109702381D02*
X103523810Y-108702381D01*
X104571429Y-109607143D02*
X104523810Y-109654762D01*
X104380953Y-109702381D01*
X104285715Y-109702381D01*
X104142857Y-109654762D01*
X104047619Y-109559524D01*
X104000000Y-109464286D01*
X103952381Y-109273810D01*
X103952381Y-109130952D01*
X104000000Y-108940476D01*
X104047619Y-108845238D01*
X104142857Y-108750000D01*
X104285715Y-108702381D01*
X104380953Y-108702381D01*
X104523810Y-108750000D01*
X104571429Y-108797619D01*
X105523810Y-109702381D02*
X104952381Y-109702381D01*
X105238095Y-109702381D02*
X105238095Y-108702381D01*
X105142857Y-108845238D01*
X105047619Y-108940476D01*
X104952381Y-108988095D01*
X104273810Y-118452381D02*
X104273810Y-117452381D01*
X105321429Y-118357143D02*
X105273810Y-118404762D01*
X105130953Y-118452381D01*
X105035715Y-118452381D01*
X104892857Y-118404762D01*
X104797619Y-118309524D01*
X104750000Y-118214286D01*
X104702381Y-118023810D01*
X104702381Y-117880952D01*
X104750000Y-117690476D01*
X104797619Y-117595238D01*
X104892857Y-117500000D01*
X105035715Y-117452381D01*
X105130953Y-117452381D01*
X105273810Y-117500000D01*
X105321429Y-117547619D01*
X105654762Y-117452381D02*
X106321429Y-117452381D01*
X105892857Y-118452381D01*
X79273810Y-117952381D02*
X79273810Y-116952381D01*
X80321429Y-117857143D02*
X80273810Y-117904762D01*
X80130953Y-117952381D01*
X80035715Y-117952381D01*
X79892857Y-117904762D01*
X79797619Y-117809524D01*
X79750000Y-117714286D01*
X79702381Y-117523810D01*
X79702381Y-117380952D01*
X79750000Y-117190476D01*
X79797619Y-117095238D01*
X79892857Y-117000000D01*
X80035715Y-116952381D01*
X80130953Y-116952381D01*
X80273810Y-117000000D01*
X80321429Y-117047619D01*
X80892857Y-117380952D02*
X80797619Y-117333333D01*
X80750000Y-117285714D01*
X80702381Y-117190476D01*
X80702381Y-117142857D01*
X80750000Y-117047619D01*
X80797619Y-117000000D01*
X80892857Y-116952381D01*
X81083334Y-116952381D01*
X81178572Y-117000000D01*
X81226191Y-117047619D01*
X81273810Y-117142857D01*
X81273810Y-117190476D01*
X81226191Y-117285714D01*
X81178572Y-117333333D01*
X81083334Y-117380952D01*
X80892857Y-117380952D01*
X80797619Y-117428571D01*
X80750000Y-117476190D01*
X80702381Y-117571429D01*
X80702381Y-117761905D01*
X80750000Y-117857143D01*
X80797619Y-117904762D01*
X80892857Y-117952381D01*
X81083334Y-117952381D01*
X81178572Y-117904762D01*
X81226191Y-117857143D01*
X81273810Y-117761905D01*
X81273810Y-117571429D01*
X81226191Y-117476190D01*
X81178572Y-117428571D01*
X81083334Y-117380952D01*
X68333334Y-108952381D02*
X67857143Y-108952381D01*
X67857143Y-107952381D01*
X69190477Y-108952381D02*
X68619048Y-108952381D01*
X68904762Y-108952381D02*
X68904762Y-107952381D01*
X68809524Y-108095238D01*
X68714286Y-108190476D01*
X68619048Y-108238095D01*
X69492381Y-111916666D02*
X69492381Y-112392857D01*
X68492381Y-112392857D01*
X68587619Y-111630952D02*
X68540000Y-111583333D01*
X68492381Y-111488095D01*
X68492381Y-111249999D01*
X68540000Y-111154761D01*
X68587619Y-111107142D01*
X68682857Y-111059523D01*
X68778095Y-111059523D01*
X68920952Y-111107142D01*
X69492381Y-111678571D01*
X69492381Y-111059523D01*
X111952381Y-119416666D02*
X111952381Y-119892857D01*
X110952381Y-119892857D01*
X110952381Y-119178571D02*
X110952381Y-118559523D01*
X111333333Y-118892857D01*
X111333333Y-118749999D01*
X111380952Y-118654761D01*
X111428571Y-118607142D01*
X111523810Y-118559523D01*
X111761905Y-118559523D01*
X111857143Y-118607142D01*
X111904762Y-118654761D01*
X111952381Y-118749999D01*
X111952381Y-119035714D01*
X111904762Y-119130952D01*
X111857143Y-119178571D01*
X113702381Y-120416666D02*
X113702381Y-120892857D01*
X112702381Y-120892857D01*
X113035714Y-119654761D02*
X113702381Y-119654761D01*
X112654762Y-119892857D02*
X113369048Y-120130952D01*
X113369048Y-119511904D01*
X115952381Y-120666666D02*
X115952381Y-121142857D01*
X114952381Y-121142857D01*
X114952381Y-119857142D02*
X114952381Y-120333333D01*
X115428571Y-120380952D01*
X115380952Y-120333333D01*
X115333333Y-120238095D01*
X115333333Y-119999999D01*
X115380952Y-119904761D01*
X115428571Y-119857142D01*
X115523810Y-119809523D01*
X115761905Y-119809523D01*
X115857143Y-119857142D01*
X115904762Y-119904761D01*
X115952381Y-119999999D01*
X115952381Y-120238095D01*
X115904762Y-120333333D01*
X115857143Y-120380952D01*
X117952381Y-123666666D02*
X117952381Y-124142857D01*
X116952381Y-124142857D01*
X116952381Y-122904761D02*
X116952381Y-123095238D01*
X117000000Y-123190476D01*
X117047619Y-123238095D01*
X117190476Y-123333333D01*
X117380952Y-123380952D01*
X117761905Y-123380952D01*
X117857143Y-123333333D01*
X117904762Y-123285714D01*
X117952381Y-123190476D01*
X117952381Y-122999999D01*
X117904762Y-122904761D01*
X117857143Y-122857142D01*
X117761905Y-122809523D01*
X117523810Y-122809523D01*
X117428571Y-122857142D01*
X117380952Y-122904761D01*
X117333333Y-122999999D01*
X117333333Y-123190476D01*
X117380952Y-123285714D01*
X117428571Y-123333333D01*
X117523810Y-123380952D01*
X85904762Y-111297619D02*
X85809524Y-111250000D01*
X85714286Y-111154762D01*
X85571429Y-111011905D01*
X85476190Y-110964286D01*
X85380952Y-110964286D01*
X85428571Y-111202381D02*
X85333333Y-111154762D01*
X85238095Y-111059524D01*
X85190476Y-110869048D01*
X85190476Y-110535714D01*
X85238095Y-110345238D01*
X85333333Y-110250000D01*
X85428571Y-110202381D01*
X85619048Y-110202381D01*
X85714286Y-110250000D01*
X85809524Y-110345238D01*
X85857143Y-110535714D01*
X85857143Y-110869048D01*
X85809524Y-111059524D01*
X85714286Y-111154762D01*
X85619048Y-111202381D01*
X85428571Y-111202381D01*
X86809524Y-111202381D02*
X86238095Y-111202381D01*
X86523809Y-111202381D02*
X86523809Y-110202381D01*
X86428571Y-110345238D01*
X86333333Y-110440476D01*
X86238095Y-110488095D01*
X112202381Y-108416666D02*
X111726190Y-108750000D01*
X112202381Y-108988095D02*
X111202381Y-108988095D01*
X111202381Y-108607142D01*
X111250000Y-108511904D01*
X111297619Y-108464285D01*
X111392857Y-108416666D01*
X111535714Y-108416666D01*
X111630952Y-108464285D01*
X111678571Y-108511904D01*
X111726190Y-108607142D01*
X111726190Y-108988095D01*
X112202381Y-107464285D02*
X112202381Y-108035714D01*
X112202381Y-107750000D02*
X111202381Y-107750000D01*
X111345238Y-107845238D01*
X111440476Y-107940476D01*
X111488095Y-108035714D01*
X94452381Y-106166666D02*
X93976190Y-106500000D01*
X94452381Y-106738095D02*
X93452381Y-106738095D01*
X93452381Y-106357142D01*
X93500000Y-106261904D01*
X93547619Y-106214285D01*
X93642857Y-106166666D01*
X93785714Y-106166666D01*
X93880952Y-106214285D01*
X93928571Y-106261904D01*
X93976190Y-106357142D01*
X93976190Y-106738095D01*
X93547619Y-105785714D02*
X93500000Y-105738095D01*
X93452381Y-105642857D01*
X93452381Y-105404761D01*
X93500000Y-105309523D01*
X93547619Y-105261904D01*
X93642857Y-105214285D01*
X93738095Y-105214285D01*
X93880952Y-105261904D01*
X94452381Y-105833333D01*
X94452381Y-105214285D01*
X104583334Y-112202381D02*
X104250000Y-111726190D01*
X104011905Y-112202381D02*
X104011905Y-111202381D01*
X104392858Y-111202381D01*
X104488096Y-111250000D01*
X104535715Y-111297619D01*
X104583334Y-111392857D01*
X104583334Y-111535714D01*
X104535715Y-111630952D01*
X104488096Y-111678571D01*
X104392858Y-111726190D01*
X104011905Y-111726190D01*
X104916667Y-111202381D02*
X105535715Y-111202381D01*
X105202381Y-111583333D01*
X105345239Y-111583333D01*
X105440477Y-111630952D01*
X105488096Y-111678571D01*
X105535715Y-111773810D01*
X105535715Y-112011905D01*
X105488096Y-112107143D01*
X105440477Y-112154762D01*
X105345239Y-112202381D01*
X105059524Y-112202381D01*
X104964286Y-112154762D01*
X104916667Y-112107143D01*
X127833334Y-100252381D02*
X127500000Y-99776190D01*
X127261905Y-100252381D02*
X127261905Y-99252381D01*
X127642858Y-99252381D01*
X127738096Y-99300000D01*
X127785715Y-99347619D01*
X127833334Y-99442857D01*
X127833334Y-99585714D01*
X127785715Y-99680952D01*
X127738096Y-99728571D01*
X127642858Y-99776190D01*
X127261905Y-99776190D01*
X128690477Y-99585714D02*
X128690477Y-100252381D01*
X128452381Y-99204762D02*
X128214286Y-99919048D01*
X128833334Y-99919048D01*
X103702032Y-121187732D02*
X103129611Y-121086717D01*
X103297971Y-121591794D02*
X102590864Y-120884687D01*
X102860238Y-120615312D01*
X102961254Y-120581641D01*
X103028597Y-120581641D01*
X103129612Y-120615312D01*
X103230627Y-120716328D01*
X103264299Y-120817343D01*
X103264299Y-120884686D01*
X103230627Y-120985701D01*
X102961253Y-121255076D01*
X103634689Y-119840862D02*
X103297971Y-120177580D01*
X103601016Y-120547969D01*
X103601016Y-120480626D01*
X103634688Y-120379610D01*
X103803047Y-120211251D01*
X103904062Y-120177579D01*
X103971406Y-120177579D01*
X104072422Y-120211252D01*
X104240780Y-120379610D01*
X104274452Y-120480626D01*
X104274452Y-120547969D01*
X104240780Y-120648984D01*
X104072421Y-120817343D01*
X103971406Y-120851015D01*
X103904062Y-120851015D01*
X102702031Y-120187732D02*
X102129610Y-120086717D01*
X102297970Y-120591794D02*
X101590863Y-119884687D01*
X101860237Y-119615312D01*
X101961253Y-119581641D01*
X102028596Y-119581641D01*
X102129611Y-119615312D01*
X102230626Y-119716328D01*
X102264298Y-119817343D01*
X102264298Y-119884686D01*
X102230626Y-119985701D01*
X101961252Y-120255076D01*
X102601016Y-118874534D02*
X102466328Y-119009222D01*
X102432657Y-119110237D01*
X102432657Y-119177580D01*
X102466328Y-119345939D01*
X102567343Y-119514297D01*
X102836718Y-119783672D01*
X102937733Y-119817343D01*
X103005076Y-119817343D01*
X103106092Y-119783672D01*
X103240779Y-119648984D01*
X103274451Y-119547969D01*
X103274451Y-119480626D01*
X103240779Y-119379610D01*
X103072421Y-119211252D01*
X102971405Y-119177579D01*
X102904061Y-119177579D01*
X102803046Y-119211251D01*
X102668359Y-119345939D01*
X102634687Y-119446954D01*
X102634687Y-119514297D01*
X102668359Y-119615313D01*
X127833334Y-103252381D02*
X127500000Y-102776190D01*
X127261905Y-103252381D02*
X127261905Y-102252381D01*
X127642858Y-102252381D01*
X127738096Y-102300000D01*
X127785715Y-102347619D01*
X127833334Y-102442857D01*
X127833334Y-102585714D01*
X127785715Y-102680952D01*
X127738096Y-102728571D01*
X127642858Y-102776190D01*
X127261905Y-102776190D01*
X128166667Y-102252381D02*
X128833334Y-102252381D01*
X128404762Y-103252381D01*
X88333334Y-111202381D02*
X88000000Y-110726190D01*
X87761905Y-111202381D02*
X87761905Y-110202381D01*
X88142858Y-110202381D01*
X88238096Y-110250000D01*
X88285715Y-110297619D01*
X88333334Y-110392857D01*
X88333334Y-110535714D01*
X88285715Y-110630952D01*
X88238096Y-110678571D01*
X88142858Y-110726190D01*
X87761905Y-110726190D01*
X88904762Y-110630952D02*
X88809524Y-110583333D01*
X88761905Y-110535714D01*
X88714286Y-110440476D01*
X88714286Y-110392857D01*
X88761905Y-110297619D01*
X88809524Y-110250000D01*
X88904762Y-110202381D01*
X89095239Y-110202381D01*
X89190477Y-110250000D01*
X89238096Y-110297619D01*
X89285715Y-110392857D01*
X89285715Y-110440476D01*
X89238096Y-110535714D01*
X89190477Y-110583333D01*
X89095239Y-110630952D01*
X88904762Y-110630952D01*
X88809524Y-110678571D01*
X88761905Y-110726190D01*
X88714286Y-110821429D01*
X88714286Y-111011905D01*
X88761905Y-111107143D01*
X88809524Y-111154762D01*
X88904762Y-111202381D01*
X89095239Y-111202381D01*
X89190477Y-111154762D01*
X89238096Y-111107143D01*
X89285715Y-111011905D01*
X89285715Y-110821429D01*
X89238096Y-110726190D01*
X89190477Y-110678571D01*
X89095239Y-110630952D01*
X85833334Y-116202381D02*
X85500000Y-115726190D01*
X85261905Y-116202381D02*
X85261905Y-115202381D01*
X85642858Y-115202381D01*
X85738096Y-115250000D01*
X85785715Y-115297619D01*
X85833334Y-115392857D01*
X85833334Y-115535714D01*
X85785715Y-115630952D01*
X85738096Y-115678571D01*
X85642858Y-115726190D01*
X85261905Y-115726190D01*
X86309524Y-116202381D02*
X86500000Y-116202381D01*
X86595239Y-116154762D01*
X86642858Y-116107143D01*
X86738096Y-115964286D01*
X86785715Y-115773810D01*
X86785715Y-115392857D01*
X86738096Y-115297619D01*
X86690477Y-115250000D01*
X86595239Y-115202381D01*
X86404762Y-115202381D01*
X86309524Y-115250000D01*
X86261905Y-115297619D01*
X86214286Y-115392857D01*
X86214286Y-115630952D01*
X86261905Y-115726190D01*
X86309524Y-115773810D01*
X86404762Y-115821429D01*
X86595239Y-115821429D01*
X86690477Y-115773810D01*
X86738096Y-115726190D01*
X86785715Y-115630952D01*
X102140476Y-110061905D02*
X102140476Y-110709524D01*
X102178571Y-110785714D01*
X102216667Y-110823810D01*
X102292857Y-110861905D01*
X102445238Y-110861905D01*
X102521429Y-110823810D01*
X102559524Y-110785714D01*
X102597619Y-110709524D01*
X102597619Y-110061905D01*
X103397619Y-110861905D02*
X102940476Y-110861905D01*
X103169047Y-110861905D02*
X103169047Y-110061905D01*
X103092857Y-110176190D01*
X103016666Y-110252381D01*
X102940476Y-110290476D01*
D15*
X72776190Y-109788094D02*
X72276190Y-109788094D01*
X72728571Y-109264285D02*
X72752381Y-109288095D01*
X72776190Y-109359523D01*
X72776190Y-109407142D01*
X72752381Y-109478571D01*
X72704762Y-109526190D01*
X72657143Y-109549999D01*
X72561905Y-109573809D01*
X72490476Y-109573809D01*
X72395238Y-109549999D01*
X72347619Y-109526190D01*
X72300000Y-109478571D01*
X72276190Y-109407142D01*
X72276190Y-109359523D01*
X72300000Y-109288095D01*
X72323810Y-109264285D01*
X72276190Y-108835714D02*
X72276190Y-108930952D01*
X72300000Y-108978571D01*
X72323810Y-109002380D01*
X72395238Y-109049999D01*
X72490476Y-109073809D01*
X72680952Y-109073809D01*
X72728571Y-109049999D01*
X72752381Y-109026190D01*
X72776190Y-108978571D01*
X72776190Y-108883333D01*
X72752381Y-108835714D01*
X72728571Y-108811904D01*
X72680952Y-108788095D01*
X72561905Y-108788095D01*
X72514286Y-108811904D01*
X72490476Y-108835714D01*
X72466667Y-108883333D01*
X72466667Y-108978571D01*
X72490476Y-109026190D01*
X72514286Y-109049999D01*
X72561905Y-109073809D01*
D11*
X88154762Y-115047619D02*
X88059524Y-115000000D01*
X87964286Y-114904762D01*
X87821429Y-114761905D01*
X87726190Y-114714286D01*
X87630952Y-114714286D01*
X87678571Y-114952381D02*
X87583333Y-114904762D01*
X87488095Y-114809524D01*
X87440476Y-114619048D01*
X87440476Y-114285714D01*
X87488095Y-114095238D01*
X87583333Y-114000000D01*
X87678571Y-113952381D01*
X87869048Y-113952381D01*
X87964286Y-114000000D01*
X88059524Y-114095238D01*
X88107143Y-114285714D01*
X88107143Y-114619048D01*
X88059524Y-114809524D01*
X87964286Y-114904762D01*
X87869048Y-114952381D01*
X87678571Y-114952381D01*
X88488095Y-114047619D02*
X88535714Y-114000000D01*
X88630952Y-113952381D01*
X88869048Y-113952381D01*
X88964286Y-114000000D01*
X89011905Y-114047619D01*
X89059524Y-114142857D01*
X89059524Y-114238095D01*
X89011905Y-114380952D01*
X88440476Y-114952381D01*
X89059524Y-114952381D01*
X68666667Y-103666667D02*
X68666667Y-103190476D01*
X68952381Y-103761905D02*
X67952381Y-103428572D01*
X68952381Y-103095238D01*
X68428571Y-102761905D02*
X68428571Y-102428571D01*
X68952381Y-102285714D02*
X68952381Y-102761905D01*
X67952381Y-102761905D01*
X67952381Y-102285714D01*
X68047619Y-101904762D02*
X68000000Y-101857143D01*
X67952381Y-101761905D01*
X67952381Y-101523809D01*
X68000000Y-101428571D01*
X68047619Y-101380952D01*
X68142857Y-101333333D01*
X68238095Y-101333333D01*
X68380952Y-101380952D01*
X68952381Y-101952381D01*
X68952381Y-101333333D01*
X68333334Y-106702381D02*
X67857143Y-106702381D01*
X67857143Y-105702381D01*
X68571429Y-105702381D02*
X69238096Y-105702381D01*
X68809524Y-106702381D01*
X75857143Y-106107143D02*
X75809524Y-106154762D01*
X75666667Y-106202381D01*
X75571429Y-106202381D01*
X75428571Y-106154762D01*
X75333333Y-106059524D01*
X75285714Y-105964286D01*
X75238095Y-105773810D01*
X75238095Y-105630952D01*
X75285714Y-105440476D01*
X75333333Y-105345238D01*
X75428571Y-105250000D01*
X75571429Y-105202381D01*
X75666667Y-105202381D01*
X75809524Y-105250000D01*
X75857143Y-105297619D01*
X76238095Y-105297619D02*
X76285714Y-105250000D01*
X76380952Y-105202381D01*
X76619048Y-105202381D01*
X76714286Y-105250000D01*
X76761905Y-105297619D01*
X76809524Y-105392857D01*
X76809524Y-105488095D01*
X76761905Y-105630952D01*
X76190476Y-106202381D01*
X76809524Y-106202381D01*
X77714286Y-105202381D02*
X77238095Y-105202381D01*
X77190476Y-105678571D01*
X77238095Y-105630952D01*
X77333333Y-105583333D01*
X77571429Y-105583333D01*
X77666667Y-105630952D01*
X77714286Y-105678571D01*
X77761905Y-105773810D01*
X77761905Y-106011905D01*
X77714286Y-106107143D01*
X77666667Y-106154762D01*
X77571429Y-106202381D01*
X77333333Y-106202381D01*
X77238095Y-106154762D01*
X77190476Y-106107143D01*
X83107143Y-104857143D02*
X83059524Y-104904762D01*
X82916667Y-104952381D01*
X82821429Y-104952381D01*
X82678571Y-104904762D01*
X82583333Y-104809524D01*
X82535714Y-104714286D01*
X82488095Y-104523810D01*
X82488095Y-104380952D01*
X82535714Y-104190476D01*
X82583333Y-104095238D01*
X82678571Y-104000000D01*
X82821429Y-103952381D01*
X82916667Y-103952381D01*
X83059524Y-104000000D01*
X83107143Y-104047619D01*
X83488095Y-104047619D02*
X83535714Y-104000000D01*
X83630952Y-103952381D01*
X83869048Y-103952381D01*
X83964286Y-104000000D01*
X84011905Y-104047619D01*
X84059524Y-104142857D01*
X84059524Y-104238095D01*
X84011905Y-104380952D01*
X83440476Y-104952381D01*
X84059524Y-104952381D01*
X84916667Y-104285714D02*
X84916667Y-104952381D01*
X84678571Y-103904762D02*
X84440476Y-104619048D01*
X85059524Y-104619048D01*
X95857143Y-111142857D02*
X95904762Y-111190476D01*
X95952381Y-111333333D01*
X95952381Y-111428571D01*
X95904762Y-111571429D01*
X95809524Y-111666667D01*
X95714286Y-111714286D01*
X95523810Y-111761905D01*
X95380952Y-111761905D01*
X95190476Y-111714286D01*
X95095238Y-111666667D01*
X95000000Y-111571429D01*
X94952381Y-111428571D01*
X94952381Y-111333333D01*
X95000000Y-111190476D01*
X95047619Y-111142857D01*
X95047619Y-110761905D02*
X95000000Y-110714286D01*
X94952381Y-110619048D01*
X94952381Y-110380952D01*
X95000000Y-110285714D01*
X95047619Y-110238095D01*
X95142857Y-110190476D01*
X95238095Y-110190476D01*
X95380952Y-110238095D01*
X95952381Y-110809524D01*
X95952381Y-110190476D01*
X94952381Y-109333333D02*
X94952381Y-109523810D01*
X95000000Y-109619048D01*
X95047619Y-109666667D01*
X95190476Y-109761905D01*
X95380952Y-109809524D01*
X95761905Y-109809524D01*
X95857143Y-109761905D01*
X95904762Y-109714286D01*
X95952381Y-109619048D01*
X95952381Y-109428571D01*
X95904762Y-109333333D01*
X95857143Y-109285714D01*
X95761905Y-109238095D01*
X95523810Y-109238095D01*
X95428571Y-109285714D01*
X95380952Y-109333333D01*
X95333333Y-109428571D01*
X95333333Y-109619048D01*
X95380952Y-109714286D01*
X95428571Y-109761905D01*
X95523810Y-109809524D01*
X94035714Y-126202381D02*
X94035714Y-125202381D01*
X94273809Y-125202381D01*
X94416667Y-125250000D01*
X94511905Y-125345238D01*
X94559524Y-125440476D01*
X94607143Y-125630952D01*
X94607143Y-125773810D01*
X94559524Y-125964286D01*
X94511905Y-126059524D01*
X94416667Y-126154762D01*
X94273809Y-126202381D01*
X94035714Y-126202381D01*
X95559524Y-126202381D02*
X94988095Y-126202381D01*
X95273809Y-126202381D02*
X95273809Y-125202381D01*
X95178571Y-125345238D01*
X95083333Y-125440476D01*
X94988095Y-125488095D01*
X95940476Y-125297619D02*
X95988095Y-125250000D01*
X96083333Y-125202381D01*
X96321429Y-125202381D01*
X96416667Y-125250000D01*
X96464286Y-125297619D01*
X96511905Y-125392857D01*
X96511905Y-125488095D01*
X96464286Y-125630952D01*
X95892857Y-126202381D01*
X96511905Y-126202381D01*
X100035714Y-126202381D02*
X100035714Y-125202381D01*
X100273809Y-125202381D01*
X100416667Y-125250000D01*
X100511905Y-125345238D01*
X100559524Y-125440476D01*
X100607143Y-125630952D01*
X100607143Y-125773810D01*
X100559524Y-125964286D01*
X100511905Y-126059524D01*
X100416667Y-126154762D01*
X100273809Y-126202381D01*
X100035714Y-126202381D01*
X101559524Y-126202381D02*
X100988095Y-126202381D01*
X101273809Y-126202381D02*
X101273809Y-125202381D01*
X101178571Y-125345238D01*
X101083333Y-125440476D01*
X100988095Y-125488095D01*
X101892857Y-125202381D02*
X102511905Y-125202381D01*
X102178571Y-125583333D01*
X102321429Y-125583333D01*
X102416667Y-125630952D01*
X102464286Y-125678571D01*
X102511905Y-125773810D01*
X102511905Y-126011905D01*
X102464286Y-126107143D01*
X102416667Y-126154762D01*
X102321429Y-126202381D01*
X102035714Y-126202381D01*
X101940476Y-126154762D01*
X101892857Y-126107143D01*
X96952381Y-106142857D02*
X96476190Y-106476191D01*
X96952381Y-106714286D02*
X95952381Y-106714286D01*
X95952381Y-106333333D01*
X96000000Y-106238095D01*
X96047619Y-106190476D01*
X96142857Y-106142857D01*
X96285714Y-106142857D01*
X96380952Y-106190476D01*
X96428571Y-106238095D01*
X96476190Y-106333333D01*
X96476190Y-106714286D01*
X96952381Y-105190476D02*
X96952381Y-105761905D01*
X96952381Y-105476191D02*
X95952381Y-105476191D01*
X96095238Y-105571429D01*
X96190476Y-105666667D01*
X96238095Y-105761905D01*
X95952381Y-104571429D02*
X95952381Y-104476190D01*
X96000000Y-104380952D01*
X96047619Y-104333333D01*
X96142857Y-104285714D01*
X96333333Y-104238095D01*
X96571429Y-104238095D01*
X96761905Y-104285714D01*
X96857143Y-104333333D01*
X96904762Y-104380952D01*
X96952381Y-104476190D01*
X96952381Y-104571429D01*
X96904762Y-104666667D01*
X96857143Y-104714286D01*
X96761905Y-104761905D01*
X96571429Y-104809524D01*
X96333333Y-104809524D01*
X96142857Y-104761905D01*
X96047619Y-104714286D01*
X96000000Y-104666667D01*
X95952381Y-104571429D01*
X95702381Y-106142857D02*
X95226190Y-106476191D01*
X95702381Y-106714286D02*
X94702381Y-106714286D01*
X94702381Y-106333333D01*
X94750000Y-106238095D01*
X94797619Y-106190476D01*
X94892857Y-106142857D01*
X95035714Y-106142857D01*
X95130952Y-106190476D01*
X95178571Y-106238095D01*
X95226190Y-106333333D01*
X95226190Y-106714286D01*
X95702381Y-105190476D02*
X95702381Y-105761905D01*
X95702381Y-105476191D02*
X94702381Y-105476191D01*
X94845238Y-105571429D01*
X94940476Y-105666667D01*
X94988095Y-105761905D01*
X95702381Y-104238095D02*
X95702381Y-104809524D01*
X95702381Y-104523810D02*
X94702381Y-104523810D01*
X94845238Y-104619048D01*
X94940476Y-104714286D01*
X94988095Y-104809524D01*
X95107143Y-115952381D02*
X94773809Y-115476190D01*
X94535714Y-115952381D02*
X94535714Y-114952381D01*
X94916667Y-114952381D01*
X95011905Y-115000000D01*
X95059524Y-115047619D01*
X95107143Y-115142857D01*
X95107143Y-115285714D01*
X95059524Y-115380952D01*
X95011905Y-115428571D01*
X94916667Y-115476190D01*
X94535714Y-115476190D01*
X96059524Y-115952381D02*
X95488095Y-115952381D01*
X95773809Y-115952381D02*
X95773809Y-114952381D01*
X95678571Y-115095238D01*
X95583333Y-115190476D01*
X95488095Y-115238095D01*
X96392857Y-114952381D02*
X97011905Y-114952381D01*
X96678571Y-115333333D01*
X96821429Y-115333333D01*
X96916667Y-115380952D01*
X96964286Y-115428571D01*
X97011905Y-115523810D01*
X97011905Y-115761905D01*
X96964286Y-115857143D01*
X96916667Y-115904762D01*
X96821429Y-115952381D01*
X96535714Y-115952381D01*
X96440476Y-115904762D01*
X96392857Y-115857143D01*
X95107143Y-114702381D02*
X94773809Y-114226190D01*
X94535714Y-114702381D02*
X94535714Y-113702381D01*
X94916667Y-113702381D01*
X95011905Y-113750000D01*
X95059524Y-113797619D01*
X95107143Y-113892857D01*
X95107143Y-114035714D01*
X95059524Y-114130952D01*
X95011905Y-114178571D01*
X94916667Y-114226190D01*
X94535714Y-114226190D01*
X96059524Y-114702381D02*
X95488095Y-114702381D01*
X95773809Y-114702381D02*
X95773809Y-113702381D01*
X95678571Y-113845238D01*
X95583333Y-113940476D01*
X95488095Y-113988095D01*
X96916667Y-114035714D02*
X96916667Y-114702381D01*
X96678571Y-113654762D02*
X96440476Y-114369048D01*
X97059524Y-114369048D01*
X98357143Y-110607143D02*
X98309524Y-110654762D01*
X98166667Y-110702381D01*
X98071429Y-110702381D01*
X97928571Y-110654762D01*
X97833333Y-110559524D01*
X97785714Y-110464286D01*
X97738095Y-110273810D01*
X97738095Y-110130952D01*
X97785714Y-109940476D01*
X97833333Y-109845238D01*
X97928571Y-109750000D01*
X98071429Y-109702381D01*
X98166667Y-109702381D01*
X98309524Y-109750000D01*
X98357143Y-109797619D01*
X98738095Y-109797619D02*
X98785714Y-109750000D01*
X98880952Y-109702381D01*
X99119048Y-109702381D01*
X99214286Y-109750000D01*
X99261905Y-109797619D01*
X99309524Y-109892857D01*
X99309524Y-109988095D01*
X99261905Y-110130952D01*
X98690476Y-110702381D01*
X99309524Y-110702381D01*
X99642857Y-109702381D02*
X100309524Y-109702381D01*
X99880952Y-110702381D01*
X103857143Y-108357143D02*
X103809524Y-108404762D01*
X103666667Y-108452381D01*
X103571429Y-108452381D01*
X103428571Y-108404762D01*
X103333333Y-108309524D01*
X103285714Y-108214286D01*
X103238095Y-108023810D01*
X103238095Y-107880952D01*
X103285714Y-107690476D01*
X103333333Y-107595238D01*
X103428571Y-107500000D01*
X103571429Y-107452381D01*
X103666667Y-107452381D01*
X103809524Y-107500000D01*
X103857143Y-107547619D01*
X104238095Y-107547619D02*
X104285714Y-107500000D01*
X104380952Y-107452381D01*
X104619048Y-107452381D01*
X104714286Y-107500000D01*
X104761905Y-107547619D01*
X104809524Y-107642857D01*
X104809524Y-107738095D01*
X104761905Y-107880952D01*
X104190476Y-108452381D01*
X104809524Y-108452381D01*
X105285714Y-108452381D02*
X105476190Y-108452381D01*
X105571429Y-108404762D01*
X105619048Y-108357143D01*
X105714286Y-108214286D01*
X105761905Y-108023810D01*
X105761905Y-107642857D01*
X105714286Y-107547619D01*
X105666667Y-107500000D01*
X105571429Y-107452381D01*
X105380952Y-107452381D01*
X105285714Y-107500000D01*
X105238095Y-107547619D01*
X105190476Y-107642857D01*
X105190476Y-107880952D01*
X105238095Y-107976190D01*
X105285714Y-108023810D01*
X105380952Y-108071429D01*
X105571429Y-108071429D01*
X105666667Y-108023810D01*
X105714286Y-107976190D01*
X105761905Y-107880952D01*
X131607143Y-109142857D02*
X131654762Y-109190476D01*
X131702381Y-109333333D01*
X131702381Y-109428571D01*
X131654762Y-109571429D01*
X131559524Y-109666667D01*
X131464286Y-109714286D01*
X131273810Y-109761905D01*
X131130952Y-109761905D01*
X130940476Y-109714286D01*
X130845238Y-109666667D01*
X130750000Y-109571429D01*
X130702381Y-109428571D01*
X130702381Y-109333333D01*
X130750000Y-109190476D01*
X130797619Y-109142857D01*
X130702381Y-108809524D02*
X130702381Y-108190476D01*
X131083333Y-108523810D01*
X131083333Y-108380952D01*
X131130952Y-108285714D01*
X131178571Y-108238095D01*
X131273810Y-108190476D01*
X131511905Y-108190476D01*
X131607143Y-108238095D01*
X131654762Y-108285714D01*
X131702381Y-108380952D01*
X131702381Y-108666667D01*
X131654762Y-108761905D01*
X131607143Y-108809524D01*
X130702381Y-107571429D02*
X130702381Y-107476190D01*
X130750000Y-107380952D01*
X130797619Y-107333333D01*
X130892857Y-107285714D01*
X131083333Y-107238095D01*
X131321429Y-107238095D01*
X131511905Y-107285714D01*
X131607143Y-107333333D01*
X131654762Y-107380952D01*
X131702381Y-107476190D01*
X131702381Y-107571429D01*
X131654762Y-107666667D01*
X131607143Y-107714286D01*
X131511905Y-107761905D01*
X131321429Y-107809524D01*
X131083333Y-107809524D01*
X130892857Y-107761905D01*
X130797619Y-107714286D01*
X130750000Y-107666667D01*
X130702381Y-107571429D01*
X108500000Y-105476190D02*
X108500000Y-105952381D01*
X108166667Y-104952381D02*
X108500000Y-105476190D01*
X108833334Y-104952381D01*
X109166667Y-105702381D02*
X109833334Y-106702381D01*
X109833334Y-105702381D02*
X109166667Y-106702381D01*
X106166667Y-107202381D02*
X106833334Y-107202381D01*
X106166667Y-108202381D01*
X106833334Y-108202381D01*
X130752381Y-119964286D02*
X129752381Y-119964286D01*
X129752381Y-119726191D01*
X129800000Y-119583333D01*
X129895238Y-119488095D01*
X129990476Y-119440476D01*
X130180952Y-119392857D01*
X130323810Y-119392857D01*
X130514286Y-119440476D01*
X130609524Y-119488095D01*
X130704762Y-119583333D01*
X130752381Y-119726191D01*
X130752381Y-119964286D01*
X130752381Y-118440476D02*
X130752381Y-119011905D01*
X130752381Y-118726191D02*
X129752381Y-118726191D01*
X129895238Y-118821429D01*
X129990476Y-118916667D01*
X130038095Y-119011905D01*
X130085714Y-117583333D02*
X130752381Y-117583333D01*
X129704762Y-117821429D02*
X130419048Y-118059524D01*
X130419048Y-117440476D01*
X117035714Y-126202381D02*
X117035714Y-125202381D01*
X117273809Y-125202381D01*
X117416667Y-125250000D01*
X117511905Y-125345238D01*
X117559524Y-125440476D01*
X117607143Y-125630952D01*
X117607143Y-125773810D01*
X117559524Y-125964286D01*
X117511905Y-126059524D01*
X117416667Y-126154762D01*
X117273809Y-126202381D01*
X117035714Y-126202381D01*
X118559524Y-126202381D02*
X117988095Y-126202381D01*
X118273809Y-126202381D02*
X118273809Y-125202381D01*
X118178571Y-125345238D01*
X118083333Y-125440476D01*
X117988095Y-125488095D01*
X119464286Y-125202381D02*
X118988095Y-125202381D01*
X118940476Y-125678571D01*
X118988095Y-125630952D01*
X119083333Y-125583333D01*
X119321429Y-125583333D01*
X119416667Y-125630952D01*
X119464286Y-125678571D01*
X119511905Y-125773810D01*
X119511905Y-126011905D01*
X119464286Y-126107143D01*
X119416667Y-126154762D01*
X119321429Y-126202381D01*
X119083333Y-126202381D01*
X118988095Y-126154762D01*
X118940476Y-126107143D01*
X101452381Y-120952381D02*
X100452381Y-120952381D01*
X101357143Y-119904762D02*
X101404762Y-119952381D01*
X101452381Y-120095238D01*
X101452381Y-120190476D01*
X101404762Y-120333334D01*
X101309524Y-120428572D01*
X101214286Y-120476191D01*
X101023810Y-120523810D01*
X100880952Y-120523810D01*
X100690476Y-120476191D01*
X100595238Y-120428572D01*
X100500000Y-120333334D01*
X100452381Y-120190476D01*
X100452381Y-120095238D01*
X100500000Y-119952381D01*
X100547619Y-119904762D01*
X101452381Y-118952381D02*
X101452381Y-119523810D01*
X101452381Y-119238096D02*
X100452381Y-119238096D01*
X100595238Y-119333334D01*
X100690476Y-119428572D01*
X100738095Y-119523810D01*
X101452381Y-118000000D02*
X101452381Y-118571429D01*
X101452381Y-118285715D02*
X100452381Y-118285715D01*
X100595238Y-118380953D01*
X100690476Y-118476191D01*
X100738095Y-118571429D01*
%LPC*%
D16*
X129500000Y-104500000D03*
X113500000Y-104500000D03*
X129500000Y-106500000D03*
X113500000Y-106500000D03*
X129500000Y-108500000D03*
X113500000Y-108500000D03*
X129500000Y-110500000D03*
X113500000Y-110500000D03*
X129500000Y-112500000D03*
X113500000Y-112500000D03*
X129500000Y-114500000D03*
X113500000Y-114500000D03*
X129500000Y-116500000D03*
X113500000Y-116500000D03*
X129500000Y-118500000D03*
X113500000Y-118500000D03*
D17*
X93050000Y-118000000D03*
X93950000Y-118000000D03*
X104300000Y-113500000D03*
X105200000Y-113500000D03*
X94000000Y-123300000D03*
X94000000Y-124200000D03*
X97250000Y-122700000D03*
X97250000Y-121800000D03*
X96750000Y-112300000D03*
X96750000Y-113200000D03*
X104300000Y-114500000D03*
X105200000Y-114500000D03*
X105000000Y-124550000D03*
X105000000Y-125450000D03*
X110000000Y-125450000D03*
X110000000Y-124550000D03*
X109500000Y-117700000D03*
X109500000Y-116800000D03*
D18*
X91250000Y-116900000D03*
X91250000Y-111600000D03*
D17*
X108250000Y-117700000D03*
X108250000Y-116800000D03*
X106000000Y-125450000D03*
X106000000Y-124550000D03*
X107000000Y-117700000D03*
X107000000Y-116800000D03*
X93050000Y-116750000D03*
X93950000Y-116750000D03*
X73050000Y-107500000D03*
X73950000Y-107500000D03*
X90500000Y-113950000D03*
X90500000Y-113050000D03*
X110550000Y-121000000D03*
X111450000Y-121000000D03*
X81050000Y-103250000D03*
X81950000Y-103250000D03*
X113750000Y-122800000D03*
X113750000Y-123700000D03*
X116000000Y-123050000D03*
X116000000Y-123950000D03*
X118250000Y-121200000D03*
X118250000Y-120300000D03*
X77950000Y-107500000D03*
X77050000Y-107500000D03*
X82800000Y-107750000D03*
X83700000Y-107750000D03*
D19*
X129800000Y-98500000D03*
X128200000Y-98500000D03*
X129800000Y-101500000D03*
X128200000Y-101500000D03*
D20*
X69500000Y-119865000D03*
X69500000Y-123135000D03*
X72750000Y-119865000D03*
X72750000Y-123135000D03*
X76000000Y-119865000D03*
X76000000Y-123135000D03*
X79250000Y-119865000D03*
X79250000Y-123135000D03*
X82500000Y-119865000D03*
X82500000Y-123135000D03*
X85750000Y-119865000D03*
X85750000Y-123135000D03*
X89000000Y-119865000D03*
X89000000Y-123135000D03*
X92250000Y-119865000D03*
X92250000Y-123135000D03*
D21*
X71300000Y-118000000D03*
X68700000Y-118000000D03*
D22*
X108200000Y-109200000D03*
X107250000Y-109200000D03*
X106300000Y-109200000D03*
X106300000Y-111800000D03*
X108200000Y-111800000D03*
X95950000Y-119450000D03*
X95000000Y-119450000D03*
X94050000Y-119450000D03*
X94050000Y-122050000D03*
X95950000Y-122050000D03*
D23*
X111150000Y-109900000D03*
X110500000Y-109900000D03*
X109850000Y-109900000D03*
X109850000Y-112100000D03*
X111150000Y-112100000D03*
D24*
X109000000Y-122250000D03*
X109000000Y-121750000D03*
X109000000Y-121250000D03*
X109000000Y-120750000D03*
X109000000Y-120250000D03*
D25*
X108000000Y-119250000D03*
X107500000Y-119250000D03*
X107000000Y-119250000D03*
X106500000Y-119250000D03*
X106000000Y-119250000D03*
D24*
X105000000Y-120250000D03*
X105000000Y-120750000D03*
X105000000Y-121250000D03*
X105000000Y-121750000D03*
X105000000Y-122250000D03*
D25*
X106000000Y-123250000D03*
X106500000Y-123250000D03*
X107000000Y-123250000D03*
X107500000Y-123250000D03*
X108000000Y-123250000D03*
D26*
X107000000Y-121250000D03*
D27*
X74000000Y-109000000D03*
D28*
X74000000Y-110100000D03*
X74000000Y-111200000D03*
X74000000Y-112300000D03*
X74000000Y-113400000D03*
X74000000Y-114500000D03*
X74000000Y-115600000D03*
X74000000Y-116700000D03*
D27*
X74000000Y-117800000D03*
X83500000Y-109000000D03*
X83500000Y-117800000D03*
D28*
X83500000Y-110100000D03*
X83500000Y-111200000D03*
X83500000Y-112300000D03*
X83500000Y-113400000D03*
X83500000Y-114500000D03*
X83500000Y-115600000D03*
X83500000Y-116700000D03*
D22*
X81200000Y-104700000D03*
X80250000Y-104700000D03*
X79300000Y-104700000D03*
X79300000Y-107300000D03*
X81200000Y-107300000D03*
D17*
X70450000Y-107500000D03*
X69550000Y-107500000D03*
X70300000Y-111750000D03*
X71200000Y-111750000D03*
X110250000Y-118800000D03*
X110250000Y-119700000D03*
X112800000Y-121500000D03*
X113700000Y-121500000D03*
X115050000Y-121750000D03*
X115950000Y-121750000D03*
X117300000Y-122250000D03*
X118200000Y-122250000D03*
D29*
X86900000Y-111950000D03*
X85600000Y-111950000D03*
X86250000Y-114050000D03*
D17*
X110450000Y-108500000D03*
X109550000Y-108500000D03*
X94000000Y-108450000D03*
X94000000Y-107550000D03*
X104950000Y-110500000D03*
X104050000Y-110500000D03*
X126500000Y-99450000D03*
X126500000Y-98550000D03*
D10*
G36*
X102431802Y-123789447D02*
X101710553Y-123068198D01*
X102431802Y-122346949D01*
X103153051Y-123068198D01*
X102431802Y-123789447D01*
X102431802Y-123789447D01*
G37*
G36*
X103068198Y-123153051D02*
X102346949Y-122431802D01*
X103068198Y-121710553D01*
X103789447Y-122431802D01*
X103068198Y-123153051D01*
X103068198Y-123153051D01*
G37*
G36*
X102318198Y-120960553D02*
X103039447Y-121681802D01*
X102318198Y-122403051D01*
X101596949Y-121681802D01*
X102318198Y-120960553D01*
X102318198Y-120960553D01*
G37*
G36*
X101681802Y-121596949D02*
X102403051Y-122318198D01*
X101681802Y-123039447D01*
X100960553Y-122318198D01*
X101681802Y-121596949D01*
X101681802Y-121596949D01*
G37*
D17*
X126500000Y-102450000D03*
X126500000Y-101550000D03*
X88950000Y-111750000D03*
X88050000Y-111750000D03*
X86000000Y-117950000D03*
X86000000Y-117050000D03*
D30*
X102250000Y-112050000D03*
X101750000Y-112050000D03*
X101250000Y-112050000D03*
X100750000Y-112050000D03*
X100250000Y-112050000D03*
X99750000Y-112050000D03*
X99250000Y-112050000D03*
X98750000Y-112050000D03*
D31*
X98050000Y-112750000D03*
X98050000Y-113250000D03*
X98050000Y-113750000D03*
X98050000Y-114250000D03*
X98050000Y-114750000D03*
X98050000Y-115250000D03*
X98050000Y-115750000D03*
X98050000Y-116250000D03*
D30*
X98750000Y-116950000D03*
X99250000Y-116950000D03*
X99750000Y-116950000D03*
X100250000Y-116950000D03*
X100750000Y-116950000D03*
X101250000Y-116950000D03*
X101750000Y-116950000D03*
X102250000Y-116950000D03*
D31*
X102950000Y-116250000D03*
X102950000Y-115750000D03*
X102950000Y-115250000D03*
X102950000Y-114750000D03*
X102950000Y-114250000D03*
X102950000Y-113750000D03*
X102950000Y-113250000D03*
X102950000Y-112750000D03*
D32*
X100500000Y-114500000D03*
D33*
X71790000Y-110590000D03*
X71790000Y-108410000D03*
X71250000Y-110590000D03*
X71250000Y-108410000D03*
X70710000Y-110590000D03*
X70710000Y-108410000D03*
D34*
X71250000Y-109500000D03*
D35*
X87300000Y-117900000D03*
X89200000Y-117900000D03*
X88250000Y-115600000D03*
D36*
X70500000Y-104500000D03*
X70500000Y-97500000D03*
D37*
X75870000Y-101270000D03*
D38*
X75870000Y-98730000D03*
X78410000Y-101270000D03*
X78410000Y-98730000D03*
X80950000Y-101270000D03*
X80950000Y-98730000D03*
X83490000Y-101270000D03*
X83490000Y-98730000D03*
X86030000Y-101270000D03*
X86030000Y-98730000D03*
X88570000Y-101270000D03*
X88570000Y-98730000D03*
X91110000Y-101270000D03*
X91110000Y-98730000D03*
X93650000Y-101270000D03*
X93650000Y-98730000D03*
X96190000Y-101270000D03*
X96190000Y-98730000D03*
X98730000Y-101270000D03*
X98730000Y-98730000D03*
X101270000Y-101270000D03*
X101270000Y-98730000D03*
X103810000Y-101270000D03*
X103810000Y-98730000D03*
X106350000Y-101270000D03*
X106350000Y-98730000D03*
X108890000Y-101270000D03*
X108890000Y-98730000D03*
X111430000Y-101270000D03*
X111430000Y-98730000D03*
X113970000Y-101270000D03*
X113970000Y-98730000D03*
X116510000Y-101270000D03*
X116510000Y-98730000D03*
X119050000Y-101270000D03*
X119050000Y-98730000D03*
X121590000Y-101270000D03*
X121590000Y-98730000D03*
X124130000Y-101270000D03*
X124130000Y-98730000D03*
D17*
X70500000Y-105800000D03*
X70500000Y-106700000D03*
D39*
X78000000Y-104000000D03*
X75000000Y-104000000D03*
D17*
X82800000Y-106750000D03*
X83700000Y-106750000D03*
D40*
X86965000Y-103460000D03*
X91035000Y-103460000D03*
X86965000Y-104730000D03*
X91035000Y-104730000D03*
X86965000Y-106000000D03*
X91035000Y-106000000D03*
X86965000Y-107270000D03*
X91035000Y-107270000D03*
X86965000Y-108540000D03*
X91035000Y-108540000D03*
D17*
X95500000Y-112300000D03*
X95500000Y-113200000D03*
D41*
X97500000Y-125800000D03*
X97500000Y-124200000D03*
X99000000Y-125800000D03*
X99000000Y-124200000D03*
D17*
X96500000Y-108450000D03*
X96500000Y-107550000D03*
X95250000Y-108450000D03*
X95250000Y-107550000D03*
X98500000Y-121800000D03*
X98500000Y-122700000D03*
X93050000Y-115500000D03*
X93950000Y-115500000D03*
X93950000Y-114250000D03*
X93050000Y-114250000D03*
X99750000Y-121800000D03*
X99750000Y-122700000D03*
X98550000Y-109000000D03*
X99450000Y-109000000D03*
D19*
X104450000Y-105000000D03*
X106050000Y-105000000D03*
D17*
X104550000Y-106500000D03*
X105450000Y-106500000D03*
D42*
X98500000Y-107050000D03*
X99300000Y-107050000D03*
X100100000Y-107050000D03*
X100900000Y-107050000D03*
X101700000Y-107050000D03*
X102500000Y-107050000D03*
X102500000Y-104455000D03*
X101700000Y-104455000D03*
X100900000Y-104455000D03*
X100100000Y-104455000D03*
X99300000Y-104455000D03*
X98500000Y-104455000D03*
D43*
X98202500Y-105750000D03*
X102797500Y-105750000D03*
D17*
X131250000Y-111050000D03*
X131250000Y-111950000D03*
D44*
X108825000Y-125565000D03*
X107175000Y-125565000D03*
X107175000Y-124435000D03*
X108825000Y-124435000D03*
D45*
X71750000Y-116500000D03*
X71750000Y-114250000D03*
D46*
X70000000Y-124750000D03*
X73000000Y-124750000D03*
X76000000Y-124750000D03*
X79250000Y-124750000D03*
X82500000Y-124750000D03*
X85750000Y-124750000D03*
X89000000Y-124750000D03*
X92250000Y-124750000D03*
D47*
X129500000Y-121500000D03*
X121500000Y-122250000D03*
D48*
X131500000Y-118750000D03*
X131500000Y-118100000D03*
X118750000Y-123250000D03*
X118750000Y-123900000D03*
D49*
X99500000Y-120250000D03*
X99500000Y-119600000D03*
X99500000Y-118950000D03*
X97300000Y-118950000D03*
X97300000Y-120250000D03*
D50*
G36*
X131423800Y-125423800D02*
X127576200Y-125423800D01*
X127576200Y-119576200D01*
X131423800Y-119576200D01*
X131423800Y-125423800D01*
X131423800Y-125423800D01*
G37*
X131423800Y-125423800D02*
X127576200Y-125423800D01*
X127576200Y-119576200D01*
X131423800Y-119576200D01*
X131423800Y-125423800D01*
G36*
X123423800Y-125423800D02*
X119576200Y-125423800D01*
X119576200Y-120576200D01*
X123423800Y-120576200D01*
X123423800Y-125423800D01*
X123423800Y-125423800D01*
G37*
X123423800Y-125423800D02*
X119576200Y-125423800D01*
X119576200Y-120576200D01*
X123423800Y-120576200D01*
X123423800Y-125423800D01*
M02*
