G04 #@! TF.FileFunction,Paste,Top*
%FSLAX46Y46*%
G04 Gerber Fmt 4.6, Leading zero omitted, Abs format (unit mm)*
G04 Created by KiCad (PCBNEW 4.0.2-stable) date Wednesday, 22 June 2016 'pmt' 15:55:54*
%MOMM*%
G01*
G04 APERTURE LIST*
%ADD10C,0.100000*%
%ADD11R,2.000000X1.300000*%
%ADD12R,0.620000X0.620000*%
%ADD13R,0.950000X1.000000*%
%ADD14R,1.220000X0.910000*%
%ADD15R,0.900000X0.500000*%
%ADD16R,0.600000X1.100000*%
%ADD17R,0.400000X0.950000*%
%ADD18R,0.750000X0.300000*%
%ADD19R,0.300000X0.750000*%
%ADD20R,1.102000X1.102000*%
%ADD21R,1.800000X0.700000*%
%ADD22R,1.800000X0.800000*%
%ADD23R,0.550000X0.850000*%
%ADD24O,0.300000X0.900000*%
%ADD25O,0.900000X0.300000*%
%ADD26R,3.200000X3.200000*%
%ADD27O,0.280000X0.500000*%
%ADD28R,0.600000X1.000000*%
%ADD29R,1.600000X0.800000*%
%ADD30R,1.150000X1.800000*%
%ADD31R,2.790000X0.740000*%
%ADD32R,1.000000X0.950000*%
%ADD33R,0.550000X1.545000*%
%ADD34R,1.545000X0.550000*%
%ADD35R,0.600000X0.750000*%
%ADD36R,0.600000X0.350000*%
%ADD37R,0.950000X0.400000*%
G04 APERTURE END LIST*
D10*
D11*
X129500000Y-104500000D03*
X113500000Y-104500000D03*
X129500000Y-106500000D03*
X113500000Y-106500000D03*
X129500000Y-108500000D03*
X113500000Y-108500000D03*
X129500000Y-110500000D03*
X113500000Y-110500000D03*
X129500000Y-112500000D03*
X113500000Y-112500000D03*
X129500000Y-114500000D03*
X113500000Y-114500000D03*
X129500000Y-116500000D03*
X113500000Y-116500000D03*
X129500000Y-118500000D03*
X113500000Y-118500000D03*
D12*
X93050000Y-118000000D03*
X93950000Y-118000000D03*
X104300000Y-113500000D03*
X105200000Y-113500000D03*
X94000000Y-123300000D03*
X94000000Y-124200000D03*
X97250000Y-122700000D03*
X97250000Y-121800000D03*
X96750000Y-112300000D03*
X96750000Y-113200000D03*
X104300000Y-114500000D03*
X105200000Y-114500000D03*
X105000000Y-124550000D03*
X105000000Y-125450000D03*
X110000000Y-125450000D03*
X110000000Y-124550000D03*
X109500000Y-117700000D03*
X109500000Y-116800000D03*
X108250000Y-117700000D03*
X108250000Y-116800000D03*
X106000000Y-125450000D03*
X106000000Y-124550000D03*
X107000000Y-117700000D03*
X107000000Y-116800000D03*
X93050000Y-116750000D03*
X93950000Y-116750000D03*
X73050000Y-107500000D03*
X73950000Y-107500000D03*
X90500000Y-113950000D03*
X90500000Y-113050000D03*
X110550000Y-121000000D03*
X111450000Y-121000000D03*
X81050000Y-103250000D03*
X81950000Y-103250000D03*
X113750000Y-122800000D03*
X113750000Y-123700000D03*
X116000000Y-123050000D03*
X116000000Y-123950000D03*
X118250000Y-121200000D03*
X118250000Y-120300000D03*
X77950000Y-107500000D03*
X77050000Y-107500000D03*
X82800000Y-107750000D03*
X83700000Y-107750000D03*
D13*
X129800000Y-98500000D03*
X128200000Y-98500000D03*
X129800000Y-101500000D03*
X128200000Y-101500000D03*
D14*
X69500000Y-119865000D03*
X69500000Y-123135000D03*
X72750000Y-119865000D03*
X72750000Y-123135000D03*
X76000000Y-119865000D03*
X76000000Y-123135000D03*
X79250000Y-119865000D03*
X79250000Y-123135000D03*
X82500000Y-119865000D03*
X82500000Y-123135000D03*
X85750000Y-119865000D03*
X85750000Y-123135000D03*
X89000000Y-119865000D03*
X89000000Y-123135000D03*
X92250000Y-119865000D03*
X92250000Y-123135000D03*
D15*
X71300000Y-118000000D03*
X68700000Y-118000000D03*
D16*
X108200000Y-109200000D03*
X107250000Y-109200000D03*
X106300000Y-109200000D03*
X106300000Y-111800000D03*
X108200000Y-111800000D03*
X95950000Y-119450000D03*
X95000000Y-119450000D03*
X94050000Y-119450000D03*
X94050000Y-122050000D03*
X95950000Y-122050000D03*
D17*
X111150000Y-109900000D03*
X110500000Y-109900000D03*
X109850000Y-109900000D03*
X109850000Y-112100000D03*
X111150000Y-112100000D03*
D18*
X109000000Y-122250000D03*
X109000000Y-121750000D03*
X109000000Y-121250000D03*
X109000000Y-120750000D03*
X109000000Y-120250000D03*
D19*
X108000000Y-119250000D03*
X107500000Y-119250000D03*
X107000000Y-119250000D03*
X106500000Y-119250000D03*
X106000000Y-119250000D03*
D18*
X105000000Y-120250000D03*
X105000000Y-120750000D03*
X105000000Y-121250000D03*
X105000000Y-121750000D03*
X105000000Y-122250000D03*
D19*
X106000000Y-123250000D03*
X106500000Y-123250000D03*
X107000000Y-123250000D03*
X107500000Y-123250000D03*
X108000000Y-123250000D03*
D20*
X107650000Y-121900000D03*
X107650000Y-120600000D03*
X106350000Y-121900000D03*
X106350000Y-120600000D03*
D21*
X74000000Y-109000000D03*
D22*
X74000000Y-110100000D03*
X74000000Y-111200000D03*
X74000000Y-112300000D03*
X74000000Y-113400000D03*
X74000000Y-114500000D03*
X74000000Y-115600000D03*
X74000000Y-116700000D03*
D21*
X74000000Y-117800000D03*
X83500000Y-109000000D03*
X83500000Y-117800000D03*
D22*
X83500000Y-110100000D03*
X83500000Y-111200000D03*
X83500000Y-112300000D03*
X83500000Y-113400000D03*
X83500000Y-114500000D03*
X83500000Y-115600000D03*
X83500000Y-116700000D03*
D16*
X81200000Y-104700000D03*
X80250000Y-104700000D03*
X79300000Y-104700000D03*
X79300000Y-107300000D03*
X81200000Y-107300000D03*
D12*
X70450000Y-107500000D03*
X69550000Y-107500000D03*
X70300000Y-111750000D03*
X71200000Y-111750000D03*
X110250000Y-118800000D03*
X110250000Y-119700000D03*
X112800000Y-121500000D03*
X113700000Y-121500000D03*
X115050000Y-121750000D03*
X115950000Y-121750000D03*
X117300000Y-122250000D03*
X118200000Y-122250000D03*
D23*
X86900000Y-111950000D03*
X85600000Y-111950000D03*
X86250000Y-114050000D03*
D12*
X110450000Y-108500000D03*
X109550000Y-108500000D03*
X94000000Y-108450000D03*
X94000000Y-107550000D03*
X104950000Y-110500000D03*
X104050000Y-110500000D03*
X126500000Y-99450000D03*
X126500000Y-98550000D03*
D10*
G36*
X102431802Y-123506604D02*
X101993396Y-123068198D01*
X102431802Y-122629792D01*
X102870208Y-123068198D01*
X102431802Y-123506604D01*
X102431802Y-123506604D01*
G37*
G36*
X103068198Y-122870208D02*
X102629792Y-122431802D01*
X103068198Y-121993396D01*
X103506604Y-122431802D01*
X103068198Y-122870208D01*
X103068198Y-122870208D01*
G37*
G36*
X102318198Y-121243396D02*
X102756604Y-121681802D01*
X102318198Y-122120208D01*
X101879792Y-121681802D01*
X102318198Y-121243396D01*
X102318198Y-121243396D01*
G37*
G36*
X101681802Y-121879792D02*
X102120208Y-122318198D01*
X101681802Y-122756604D01*
X101243396Y-122318198D01*
X101681802Y-121879792D01*
X101681802Y-121879792D01*
G37*
D12*
X126500000Y-102450000D03*
X126500000Y-101550000D03*
X88950000Y-111750000D03*
X88050000Y-111750000D03*
X86000000Y-117950000D03*
X86000000Y-117050000D03*
D24*
X102250000Y-112050000D03*
X101750000Y-112050000D03*
X101250000Y-112050000D03*
X100750000Y-112050000D03*
X100250000Y-112050000D03*
X99750000Y-112050000D03*
X99250000Y-112050000D03*
X98750000Y-112050000D03*
D25*
X98050000Y-112750000D03*
X98050000Y-113250000D03*
X98050000Y-113750000D03*
X98050000Y-114250000D03*
X98050000Y-114750000D03*
X98050000Y-115250000D03*
X98050000Y-115750000D03*
X98050000Y-116250000D03*
D24*
X98750000Y-116950000D03*
X99250000Y-116950000D03*
X99750000Y-116950000D03*
X100250000Y-116950000D03*
X100750000Y-116950000D03*
X101250000Y-116950000D03*
X101750000Y-116950000D03*
X102250000Y-116950000D03*
D25*
X102950000Y-116250000D03*
X102950000Y-115750000D03*
X102950000Y-115250000D03*
X102950000Y-114750000D03*
X102950000Y-114250000D03*
X102950000Y-113750000D03*
X102950000Y-113250000D03*
X102950000Y-112750000D03*
D26*
X100500000Y-114500000D03*
D27*
X70710000Y-108410000D03*
X71250000Y-108410000D03*
X71790000Y-108410000D03*
X70680000Y-109800000D03*
X70680000Y-109200000D03*
X71820000Y-109200000D03*
X71440000Y-109200000D03*
X71060000Y-109200000D03*
X71060000Y-109800000D03*
X71440000Y-109800000D03*
X71820000Y-109800000D03*
X71790000Y-110590000D03*
X71250000Y-110590000D03*
X70710000Y-110590000D03*
D28*
X87300000Y-117900000D03*
X89200000Y-117900000D03*
X88250000Y-115600000D03*
D29*
X70500000Y-104500000D03*
X70500000Y-97500000D03*
D12*
X70500000Y-105800000D03*
X70500000Y-106700000D03*
D30*
X78000000Y-104000000D03*
X75000000Y-104000000D03*
D12*
X82800000Y-106750000D03*
X83700000Y-106750000D03*
D31*
X86965000Y-103460000D03*
X91035000Y-103460000D03*
X86965000Y-104730000D03*
X91035000Y-104730000D03*
X86965000Y-106000000D03*
X91035000Y-106000000D03*
X86965000Y-107270000D03*
X91035000Y-107270000D03*
X86965000Y-108540000D03*
X91035000Y-108540000D03*
D12*
X95500000Y-112300000D03*
X95500000Y-113200000D03*
D32*
X97500000Y-125800000D03*
X97500000Y-124200000D03*
X99000000Y-125800000D03*
X99000000Y-124200000D03*
D12*
X96500000Y-108450000D03*
X96500000Y-107550000D03*
X95250000Y-108450000D03*
X95250000Y-107550000D03*
X98500000Y-121800000D03*
X98500000Y-122700000D03*
X93050000Y-115500000D03*
X93950000Y-115500000D03*
X93950000Y-114250000D03*
X93050000Y-114250000D03*
X99750000Y-121800000D03*
X99750000Y-122700000D03*
X98550000Y-109000000D03*
X99450000Y-109000000D03*
D13*
X104450000Y-105000000D03*
X106050000Y-105000000D03*
D12*
X104550000Y-106500000D03*
X105450000Y-106500000D03*
D33*
X98500000Y-107050000D03*
X99300000Y-107050000D03*
X100100000Y-107050000D03*
X100900000Y-107050000D03*
X101700000Y-107050000D03*
X102500000Y-107050000D03*
X102500000Y-104455000D03*
X101700000Y-104455000D03*
X100900000Y-104455000D03*
X100100000Y-104455000D03*
X99300000Y-104455000D03*
X98500000Y-104455000D03*
D34*
X98202500Y-105750000D03*
X102797500Y-105750000D03*
D12*
X131250000Y-111050000D03*
X131250000Y-111950000D03*
D35*
X108825000Y-125565000D03*
X107175000Y-125565000D03*
X107175000Y-124435000D03*
X108825000Y-124435000D03*
D36*
X131500000Y-118750000D03*
X131500000Y-118100000D03*
X118750000Y-123250000D03*
X118750000Y-123900000D03*
D37*
X99500000Y-120250000D03*
X99500000Y-119600000D03*
X99500000Y-118950000D03*
X97300000Y-118950000D03*
X97300000Y-120250000D03*
M02*
