G04 #@! TF.FileFunction,Copper,L4,Bot,Signal*
%FSLAX46Y46*%
G04 Gerber Fmt 4.6, Leading zero omitted, Abs format (unit mm)*
G04 Created by KiCad (PCBNEW 4.0.2-stable) date Wednesday, 22 June 2016 'pmt' 15:55:54*
%MOMM*%
G01*
G04 APERTURE LIST*
%ADD10C,0.100000*%
%ADD11C,1.800000*%
%ADD12R,1.900000X1.900000*%
%ADD13C,1.900000*%
%ADD14R,2.000000X2.500000*%
%ADD15C,0.600000*%
%ADD16C,0.200000*%
%ADD17C,0.400000*%
%ADD18C,0.152400*%
G04 APERTURE END LIST*
D10*
D11*
X91250000Y-116900000D03*
X91250000Y-111600000D03*
D12*
X75870000Y-101270000D03*
D13*
X75870000Y-98730000D03*
X78410000Y-101270000D03*
X78410000Y-98730000D03*
X80950000Y-101270000D03*
X80950000Y-98730000D03*
X83490000Y-101270000D03*
X83490000Y-98730000D03*
X86030000Y-101270000D03*
X86030000Y-98730000D03*
X88570000Y-101270000D03*
X88570000Y-98730000D03*
X91110000Y-101270000D03*
X91110000Y-98730000D03*
X93650000Y-101270000D03*
X93650000Y-98730000D03*
X96190000Y-101270000D03*
X96190000Y-98730000D03*
X98730000Y-101270000D03*
X98730000Y-98730000D03*
X101270000Y-101270000D03*
X101270000Y-98730000D03*
X103810000Y-101270000D03*
X103810000Y-98730000D03*
X106350000Y-101270000D03*
X106350000Y-98730000D03*
X108890000Y-101270000D03*
X108890000Y-98730000D03*
X111430000Y-101270000D03*
X111430000Y-98730000D03*
X113970000Y-101270000D03*
X113970000Y-98730000D03*
X116510000Y-101270000D03*
X116510000Y-98730000D03*
X119050000Y-101270000D03*
X119050000Y-98730000D03*
X121590000Y-101270000D03*
X121590000Y-98730000D03*
X124130000Y-101270000D03*
X124130000Y-98730000D03*
D14*
X70000000Y-124750000D03*
X73000000Y-124750000D03*
X76000000Y-124750000D03*
X79250000Y-124750000D03*
X82500000Y-124750000D03*
X85750000Y-124750000D03*
X89000000Y-124750000D03*
X92250000Y-124750000D03*
D15*
X127500000Y-117000000D03*
X123500000Y-120000000D03*
X124250000Y-121250000D03*
X124250000Y-125500000D03*
X126750000Y-125500000D03*
X126750000Y-121250000D03*
X127500000Y-118750000D03*
X117000000Y-120500000D03*
X115000000Y-120500000D03*
X113500000Y-120250000D03*
X131500000Y-117000000D03*
X131500000Y-116000000D03*
X115250000Y-118250000D03*
X116000000Y-114250000D03*
X116750000Y-110500000D03*
X117000000Y-107250000D03*
X117000000Y-104250000D03*
X125500000Y-104250000D03*
X127000000Y-107250000D03*
X127500000Y-110500000D03*
X127500000Y-114250000D03*
X111750000Y-114250000D03*
X111750000Y-118250000D03*
X111750000Y-104000000D03*
X111750000Y-104750000D03*
X127500000Y-116000000D03*
X99250000Y-118250000D03*
X96250000Y-121000000D03*
X119500000Y-120000000D03*
X118250000Y-119250000D03*
X112750000Y-122750000D03*
X111000000Y-122250000D03*
X115000000Y-123000000D03*
X117500000Y-123500000D03*
X131250000Y-113000000D03*
X129750000Y-102750000D03*
X131750000Y-109000000D03*
X131750000Y-106000000D03*
X131750000Y-102750000D03*
X129750000Y-100000000D03*
X129750000Y-97250000D03*
X110500000Y-116750000D03*
X109500000Y-115750000D03*
X109500000Y-113750000D03*
X108250000Y-115750000D03*
X100250000Y-125500000D03*
X104000000Y-125500000D03*
X96250000Y-125500000D03*
X95000000Y-124250000D03*
X94000000Y-125250000D03*
X101000000Y-121500000D03*
X95000000Y-118000000D03*
X95000000Y-116750000D03*
X87750000Y-113000000D03*
X89250000Y-113000000D03*
X87250000Y-119000000D03*
X88250000Y-117000000D03*
X87250000Y-115500000D03*
X85000000Y-113250000D03*
X85000000Y-115500000D03*
X85000000Y-117750000D03*
X83500000Y-118750000D03*
X82000000Y-117750000D03*
X82000000Y-115500000D03*
X79000000Y-116250000D03*
X75500000Y-117750000D03*
X79000000Y-113500000D03*
X80000000Y-111250000D03*
X80000000Y-109000000D03*
X77250000Y-106000000D03*
X75500000Y-113500000D03*
X75500000Y-111250000D03*
X75500000Y-109000000D03*
X74000000Y-108250000D03*
X76000000Y-107500000D03*
X75000000Y-107500000D03*
X71500000Y-106000000D03*
X73750000Y-106000000D03*
X76250000Y-104500000D03*
X76250000Y-103500000D03*
X72500000Y-113500000D03*
X72500000Y-111500000D03*
X70000000Y-109500000D03*
X68250000Y-109500000D03*
X68250000Y-123500000D03*
X68250000Y-121500000D03*
X68250000Y-119500000D03*
X68250000Y-117500000D03*
X68250000Y-115500000D03*
X68250000Y-113500000D03*
X68250000Y-111500000D03*
X72500000Y-109500000D03*
X69500000Y-108500000D03*
X69500000Y-106000000D03*
X68250000Y-106000000D03*
X68250000Y-107500000D03*
X102000000Y-108750000D03*
X100750000Y-108750000D03*
X108000000Y-124500000D03*
X110000000Y-123500000D03*
X101500000Y-115500000D03*
X101500000Y-113500000D03*
X99500000Y-115500000D03*
X99500000Y-113500000D03*
X107750000Y-120500000D03*
X107750000Y-122000000D03*
X106250000Y-120500000D03*
X106250000Y-122000000D03*
X105750000Y-118250000D03*
X104000000Y-118250000D03*
X104000000Y-116750000D03*
X105750000Y-116750000D03*
X107250000Y-105000000D03*
X106500000Y-106500000D03*
X105500000Y-107250000D03*
X107250000Y-107250000D03*
X107250000Y-110250000D03*
X109500000Y-107250000D03*
X109000000Y-109750000D03*
X94000000Y-106500000D03*
X82000000Y-102500000D03*
X84750000Y-104750000D03*
X80250000Y-105750000D03*
X83750000Y-105750000D03*
X89000000Y-106000000D03*
X89000000Y-108500000D03*
X84750000Y-107750000D03*
X84750000Y-106750000D03*
X85500000Y-110750000D03*
X96750000Y-114000000D03*
X95500000Y-114000000D03*
X106000000Y-113500000D03*
X106000000Y-114500000D03*
X98250000Y-120250000D03*
X96250000Y-123000000D03*
X95500000Y-123000000D03*
X110750000Y-125500000D03*
X95500000Y-110000000D03*
X89000000Y-104750000D03*
X106250000Y-110250000D03*
X108250000Y-113000000D03*
X111000000Y-113250000D03*
X109400000Y-118400000D03*
X109400000Y-119200000D03*
X108200000Y-118400000D03*
X107000000Y-118400000D03*
X97500000Y-112000000D03*
X103000000Y-123750000D03*
X104500000Y-112750000D03*
X99000000Y-103000000D03*
X72250000Y-114750000D03*
X97750000Y-109000000D03*
X131250000Y-110250000D03*
X103500000Y-106750000D03*
X82000000Y-107750000D03*
X72300000Y-107500000D03*
X71600000Y-107500000D03*
X82000000Y-109000000D03*
X82000000Y-110000000D03*
X82000000Y-111250000D03*
X82000000Y-112250000D03*
X82000000Y-106750000D03*
X80250000Y-103250000D03*
X79250000Y-103250000D03*
X89250000Y-115500000D03*
X89250000Y-114500000D03*
X88250000Y-114500000D03*
X93000000Y-108500000D03*
X111500000Y-109000000D03*
X104500000Y-123000000D03*
X110000000Y-122500000D03*
X75750000Y-115500000D03*
X75750000Y-116500000D03*
X82000000Y-114250000D03*
X103750000Y-111750000D03*
X94500000Y-104750000D03*
X94500000Y-105750000D03*
X103000000Y-111250000D03*
X89750000Y-112250000D03*
X94750000Y-114500000D03*
X97750000Y-117000000D03*
X98500000Y-121000000D03*
X99750000Y-121000000D03*
X98250000Y-118000000D03*
X103250000Y-104250000D03*
X100000000Y-103000000D03*
X130750000Y-124750000D03*
X128000000Y-124750000D03*
X131000000Y-120250000D03*
X128000000Y-120250000D03*
X120000000Y-124750000D03*
X123000000Y-124750000D03*
X120000000Y-121250000D03*
X123000000Y-121250000D03*
D16*
X123500000Y-120500000D02*
X123500000Y-120000000D01*
X124250000Y-121250000D02*
X123500000Y-120500000D01*
X126750000Y-125500000D02*
X124250000Y-125500000D01*
X126750000Y-119500000D02*
X126750000Y-121250000D01*
X127500000Y-118750000D02*
X126750000Y-119500000D01*
X114750000Y-120250000D02*
X115000000Y-120500000D01*
X113500000Y-120250000D02*
X114750000Y-120250000D01*
X115250000Y-118250000D02*
X116000000Y-117500000D01*
X116000000Y-117500000D02*
X116000000Y-114250000D01*
X116750000Y-110500000D02*
X117000000Y-110250000D01*
X117000000Y-110250000D02*
X117000000Y-107250000D01*
X117000000Y-104250000D02*
X125500000Y-104250000D01*
X127000000Y-107250000D02*
X127000000Y-110000000D01*
X127000000Y-110000000D02*
X127500000Y-110500000D01*
X111750000Y-118250000D02*
X111750000Y-114250000D01*
X129750000Y-102750000D02*
X131750000Y-102750000D01*
X131750000Y-106000000D02*
X131750000Y-109000000D01*
X109500000Y-113750000D02*
X109500000Y-115750000D01*
X104000000Y-125500000D02*
X100250000Y-125500000D01*
X87750000Y-113000000D02*
X87250000Y-113500000D01*
X88250000Y-118000000D02*
X87250000Y-119000000D01*
X88250000Y-117000000D02*
X88250000Y-118000000D01*
X87250000Y-113500000D02*
X87250000Y-115500000D01*
X85000000Y-117750000D02*
X85000000Y-115500000D01*
X82000000Y-117750000D02*
X82000000Y-115500000D01*
X79000000Y-116250000D02*
X77500000Y-117750000D01*
X77500000Y-117750000D02*
X75500000Y-117750000D01*
X75500000Y-109000000D02*
X80000000Y-109000000D01*
X80000000Y-112500000D02*
X79000000Y-113500000D01*
X80000000Y-111250000D02*
X80000000Y-112500000D01*
X75500000Y-109000000D02*
X75500000Y-111250000D01*
X75000000Y-107500000D02*
X76000000Y-107500000D01*
X73750000Y-106000000D02*
X71500000Y-106000000D01*
X72500000Y-111500000D02*
X72500000Y-113500000D01*
X68250000Y-109500000D02*
X70000000Y-109500000D01*
X68250000Y-119500000D02*
X68250000Y-121500000D01*
X68250000Y-115500000D02*
X68250000Y-117500000D01*
X68250000Y-111500000D02*
X68250000Y-113500000D01*
X69500000Y-106000000D02*
X68250000Y-106000000D01*
D17*
X100750000Y-108750000D02*
X102000000Y-108750000D01*
D16*
X100500000Y-114500000D02*
X101500000Y-115500000D01*
X100500000Y-114500000D02*
X101500000Y-113500000D01*
X100500000Y-114500000D02*
X99500000Y-113500000D01*
X100500000Y-114500000D02*
X99500000Y-115500000D01*
X107000000Y-121250000D02*
X107750000Y-120500000D01*
X107000000Y-121250000D02*
X107750000Y-122000000D01*
X107000000Y-121250000D02*
X106250000Y-122000000D01*
X107000000Y-121250000D02*
X106250000Y-120500000D01*
X104000000Y-118250000D02*
X105750000Y-118250000D01*
X105750000Y-116750000D02*
X104000000Y-116750000D01*
X89000000Y-108500000D02*
X89000000Y-108750000D01*
D17*
X93500000Y-110000000D02*
X95500000Y-110000000D01*
X92250000Y-108750000D02*
X93500000Y-110000000D01*
X92250000Y-106000000D02*
X92250000Y-108750000D01*
X91000000Y-104750000D02*
X92250000Y-106000000D01*
X89000000Y-104750000D02*
X91000000Y-104750000D01*
D16*
X93000000Y-108500000D02*
X93000000Y-105250000D01*
X110500000Y-108000000D02*
X111500000Y-109000000D01*
X99750000Y-108000000D02*
X110500000Y-108000000D01*
X98750000Y-107000000D02*
X99750000Y-108000000D01*
X97750000Y-107000000D02*
X98750000Y-107000000D01*
X94750000Y-104000000D02*
X97750000Y-107000000D01*
X94250000Y-104000000D02*
X94750000Y-104000000D01*
X93000000Y-105250000D02*
X94250000Y-104000000D01*
X104500000Y-123000000D02*
X109500000Y-123000000D01*
X109500000Y-123000000D02*
X110000000Y-122500000D01*
X80750000Y-112750000D02*
X80750000Y-106500000D01*
X89630000Y-102750000D02*
X82750000Y-102750000D01*
X82750000Y-102750000D02*
X81000000Y-104500000D01*
X80750000Y-112750000D02*
X78000000Y-115500000D01*
X78000000Y-115500000D02*
X75750000Y-115500000D01*
X89630000Y-102750000D02*
X91110000Y-101270000D01*
X81000000Y-106000000D02*
X81000000Y-104500000D01*
X80750000Y-106250000D02*
X81000000Y-106000000D01*
X80750000Y-106500000D02*
X80750000Y-106250000D01*
X93650000Y-101270000D02*
X91670000Y-103250000D01*
X77750000Y-116500000D02*
X75750000Y-116500000D01*
X81250000Y-113000000D02*
X77750000Y-116500000D01*
X81250000Y-106500000D02*
X81250000Y-113000000D01*
X81500000Y-106250000D02*
X81250000Y-106500000D01*
X81500000Y-104750000D02*
X81500000Y-106250000D01*
X83000000Y-103250000D02*
X81500000Y-104750000D01*
X91670000Y-103250000D02*
X83000000Y-103250000D01*
X82750000Y-113500000D02*
X82000000Y-114250000D01*
X82750000Y-104250000D02*
X82750000Y-113500000D01*
X83250000Y-103750000D02*
X82750000Y-104250000D01*
X89000000Y-103750000D02*
X83250000Y-103750000D01*
X93250000Y-103750000D02*
X89000000Y-103750000D01*
X94925000Y-102075000D02*
X93250000Y-103750000D01*
X94925000Y-98075000D02*
X94925000Y-102075000D01*
X95750000Y-97250000D02*
X94925000Y-98075000D01*
X96250000Y-97250000D02*
X95750000Y-97250000D01*
X119750000Y-97250000D02*
X96250000Y-97250000D01*
X119750000Y-97250000D02*
X121230000Y-98730000D01*
X121590000Y-98730000D02*
X121230000Y-98730000D01*
X94500000Y-104750000D02*
X97250000Y-107500000D01*
X102750000Y-110500000D02*
X103250000Y-110500000D01*
X103250000Y-110500000D02*
X103750000Y-111000000D01*
X103750000Y-111000000D02*
X103750000Y-111750000D01*
X101250000Y-110500000D02*
X102750000Y-110500000D01*
X98250000Y-107500000D02*
X101250000Y-110500000D01*
X97250000Y-107500000D02*
X98250000Y-107500000D01*
X96750000Y-108000000D02*
X98000000Y-108000000D01*
X98000000Y-108000000D02*
X101250000Y-111250000D01*
X101250000Y-111250000D02*
X102500000Y-111250000D01*
X102500000Y-111250000D02*
X103000000Y-111250000D01*
X94500000Y-105750000D02*
X96750000Y-108000000D01*
X92000000Y-114500000D02*
X89750000Y-112250000D01*
X94750000Y-114500000D02*
X92000000Y-114500000D01*
X97500000Y-118500000D02*
X97500000Y-117250000D01*
X99000000Y-120000000D02*
X99000000Y-120500000D01*
X98500000Y-121000000D02*
X99000000Y-120500000D01*
X97500000Y-118500000D02*
X99000000Y-120000000D01*
X97500000Y-117250000D02*
X97750000Y-117000000D01*
X99750000Y-120000000D02*
X98250000Y-118500000D01*
X99750000Y-121000000D02*
X99750000Y-120000000D01*
X98250000Y-118500000D02*
X98250000Y-118000000D01*
X102550000Y-102950000D02*
X102550000Y-99990000D01*
X102550000Y-99990000D02*
X103810000Y-98730000D01*
X103250000Y-103650000D02*
X102550000Y-102950000D01*
X103250000Y-104250000D02*
X103250000Y-103650000D01*
X100000000Y-103000000D02*
X100000000Y-100000000D01*
X100000000Y-100000000D02*
X101270000Y-98730000D01*
D18*
G36*
X130511019Y-97059184D02*
X131368120Y-97631882D01*
X131940815Y-98488980D01*
X132148800Y-99534591D01*
X132148800Y-123465409D01*
X131940815Y-124511020D01*
X131368120Y-125368118D01*
X130511019Y-125940816D01*
X129465409Y-126148800D01*
X93482614Y-126148800D01*
X93509424Y-126109562D01*
X93531611Y-126000000D01*
X93531611Y-125614110D01*
X110173701Y-125614110D01*
X110261237Y-125825964D01*
X110423183Y-125988193D01*
X110634884Y-126076099D01*
X110864110Y-126076299D01*
X111075964Y-125988763D01*
X111238193Y-125826817D01*
X111326099Y-125615116D01*
X111326299Y-125385890D01*
X111238763Y-125174036D01*
X111076817Y-125011807D01*
X110865116Y-124923901D01*
X110635890Y-124923701D01*
X110424036Y-125011237D01*
X110261807Y-125173183D01*
X110173901Y-125384884D01*
X110173701Y-125614110D01*
X93531611Y-125614110D01*
X93531611Y-124864110D01*
X119423701Y-124864110D01*
X119511237Y-125075964D01*
X119673183Y-125238193D01*
X119884884Y-125326099D01*
X120114110Y-125326299D01*
X120325964Y-125238763D01*
X120488193Y-125076817D01*
X120576099Y-124865116D01*
X120576099Y-124864110D01*
X122423701Y-124864110D01*
X122511237Y-125075964D01*
X122673183Y-125238193D01*
X122884884Y-125326099D01*
X123114110Y-125326299D01*
X123325964Y-125238763D01*
X123488193Y-125076817D01*
X123576099Y-124865116D01*
X123576099Y-124864110D01*
X127423701Y-124864110D01*
X127511237Y-125075964D01*
X127673183Y-125238193D01*
X127884884Y-125326099D01*
X128114110Y-125326299D01*
X128325964Y-125238763D01*
X128488193Y-125076817D01*
X128576099Y-124865116D01*
X128576099Y-124864110D01*
X130173701Y-124864110D01*
X130261237Y-125075964D01*
X130423183Y-125238193D01*
X130634884Y-125326099D01*
X130864110Y-125326299D01*
X131075964Y-125238763D01*
X131238193Y-125076817D01*
X131326099Y-124865116D01*
X131326299Y-124635890D01*
X131238763Y-124424036D01*
X131076817Y-124261807D01*
X130865116Y-124173901D01*
X130635890Y-124173701D01*
X130424036Y-124261237D01*
X130261807Y-124423183D01*
X130173901Y-124634884D01*
X130173701Y-124864110D01*
X128576099Y-124864110D01*
X128576299Y-124635890D01*
X128488763Y-124424036D01*
X128326817Y-124261807D01*
X128115116Y-124173901D01*
X127885890Y-124173701D01*
X127674036Y-124261237D01*
X127511807Y-124423183D01*
X127423901Y-124634884D01*
X127423701Y-124864110D01*
X123576099Y-124864110D01*
X123576299Y-124635890D01*
X123488763Y-124424036D01*
X123326817Y-124261807D01*
X123115116Y-124173901D01*
X122885890Y-124173701D01*
X122674036Y-124261237D01*
X122511807Y-124423183D01*
X122423901Y-124634884D01*
X122423701Y-124864110D01*
X120576099Y-124864110D01*
X120576299Y-124635890D01*
X120488763Y-124424036D01*
X120326817Y-124261807D01*
X120115116Y-124173901D01*
X119885890Y-124173701D01*
X119674036Y-124261237D01*
X119511807Y-124423183D01*
X119423901Y-124634884D01*
X119423701Y-124864110D01*
X93531611Y-124864110D01*
X93531611Y-123864110D01*
X102423701Y-123864110D01*
X102511237Y-124075964D01*
X102673183Y-124238193D01*
X102884884Y-124326099D01*
X103114110Y-124326299D01*
X103325964Y-124238763D01*
X103488193Y-124076817D01*
X103576099Y-123865116D01*
X103576299Y-123635890D01*
X103488763Y-123424036D01*
X103326817Y-123261807D01*
X103115116Y-123173901D01*
X102885890Y-123173701D01*
X102674036Y-123261237D01*
X102511807Y-123423183D01*
X102423901Y-123634884D01*
X102423701Y-123864110D01*
X93531611Y-123864110D01*
X93531611Y-123500000D01*
X93512352Y-123397646D01*
X93451861Y-123303641D01*
X93359562Y-123240576D01*
X93250000Y-123218389D01*
X91250000Y-123218389D01*
X91147646Y-123237648D01*
X91053641Y-123298139D01*
X90990576Y-123390438D01*
X90968389Y-123500000D01*
X90968389Y-126000000D01*
X90987648Y-126102354D01*
X91017535Y-126148800D01*
X90232614Y-126148800D01*
X90259424Y-126109562D01*
X90281611Y-126000000D01*
X90281611Y-123500000D01*
X90262352Y-123397646D01*
X90201861Y-123303641D01*
X90109562Y-123240576D01*
X90000000Y-123218389D01*
X88000000Y-123218389D01*
X87897646Y-123237648D01*
X87803641Y-123298139D01*
X87740576Y-123390438D01*
X87718389Y-123500000D01*
X87718389Y-126000000D01*
X87737648Y-126102354D01*
X87767535Y-126148800D01*
X86982614Y-126148800D01*
X87009424Y-126109562D01*
X87031611Y-126000000D01*
X87031611Y-123500000D01*
X87012352Y-123397646D01*
X86951861Y-123303641D01*
X86859562Y-123240576D01*
X86750000Y-123218389D01*
X84750000Y-123218389D01*
X84647646Y-123237648D01*
X84553641Y-123298139D01*
X84490576Y-123390438D01*
X84468389Y-123500000D01*
X84468389Y-126000000D01*
X84487648Y-126102354D01*
X84517535Y-126148800D01*
X83732614Y-126148800D01*
X83759424Y-126109562D01*
X83781611Y-126000000D01*
X83781611Y-123500000D01*
X83762352Y-123397646D01*
X83701861Y-123303641D01*
X83609562Y-123240576D01*
X83500000Y-123218389D01*
X81500000Y-123218389D01*
X81397646Y-123237648D01*
X81303641Y-123298139D01*
X81240576Y-123390438D01*
X81218389Y-123500000D01*
X81218389Y-126000000D01*
X81237648Y-126102354D01*
X81267535Y-126148800D01*
X80482614Y-126148800D01*
X80509424Y-126109562D01*
X80531611Y-126000000D01*
X80531611Y-123500000D01*
X80512352Y-123397646D01*
X80451861Y-123303641D01*
X80359562Y-123240576D01*
X80250000Y-123218389D01*
X78250000Y-123218389D01*
X78147646Y-123237648D01*
X78053641Y-123298139D01*
X77990576Y-123390438D01*
X77968389Y-123500000D01*
X77968389Y-126000000D01*
X77987648Y-126102354D01*
X78017535Y-126148800D01*
X77232614Y-126148800D01*
X77259424Y-126109562D01*
X77281611Y-126000000D01*
X77281611Y-123500000D01*
X77262352Y-123397646D01*
X77201861Y-123303641D01*
X77109562Y-123240576D01*
X77000000Y-123218389D01*
X75000000Y-123218389D01*
X74897646Y-123237648D01*
X74803641Y-123298139D01*
X74740576Y-123390438D01*
X74718389Y-123500000D01*
X74718389Y-126000000D01*
X74737648Y-126102354D01*
X74767535Y-126148800D01*
X74232614Y-126148800D01*
X74259424Y-126109562D01*
X74281611Y-126000000D01*
X74281611Y-123500000D01*
X74262352Y-123397646D01*
X74201861Y-123303641D01*
X74109562Y-123240576D01*
X74000000Y-123218389D01*
X72000000Y-123218389D01*
X71897646Y-123237648D01*
X71803641Y-123298139D01*
X71740576Y-123390438D01*
X71718389Y-123500000D01*
X71718389Y-126000000D01*
X71737648Y-126102354D01*
X71767535Y-126148800D01*
X71232614Y-126148800D01*
X71259424Y-126109562D01*
X71281611Y-126000000D01*
X71281611Y-123500000D01*
X71262352Y-123397646D01*
X71201861Y-123303641D01*
X71109562Y-123240576D01*
X71000000Y-123218389D01*
X69000000Y-123218389D01*
X68897646Y-123237648D01*
X68803641Y-123298139D01*
X68740576Y-123390438D01*
X68718389Y-123500000D01*
X68718389Y-125425922D01*
X68631882Y-125368120D01*
X68059184Y-124511019D01*
X67851200Y-123465409D01*
X67851200Y-123114110D01*
X94923701Y-123114110D01*
X95011237Y-123325964D01*
X95173183Y-123488193D01*
X95384884Y-123576099D01*
X95614110Y-123576299D01*
X95825964Y-123488763D01*
X95874943Y-123439869D01*
X95923183Y-123488193D01*
X96134884Y-123576099D01*
X96364110Y-123576299D01*
X96575964Y-123488763D01*
X96738193Y-123326817D01*
X96826099Y-123115116D01*
X96826099Y-123114110D01*
X103923701Y-123114110D01*
X104011237Y-123325964D01*
X104173183Y-123488193D01*
X104384884Y-123576099D01*
X104614110Y-123576299D01*
X104825964Y-123488763D01*
X104938724Y-123376200D01*
X109499995Y-123376200D01*
X109500000Y-123376201D01*
X109620079Y-123352314D01*
X109643966Y-123347563D01*
X109766014Y-123266014D01*
X109955867Y-123076161D01*
X110114110Y-123076299D01*
X110325964Y-122988763D01*
X110488193Y-122826817D01*
X110576099Y-122615116D01*
X110576299Y-122385890D01*
X110488763Y-122174036D01*
X110326817Y-122011807D01*
X110115116Y-121923901D01*
X109885890Y-121923701D01*
X109674036Y-122011237D01*
X109511807Y-122173183D01*
X109423901Y-122384884D01*
X109423762Y-122544210D01*
X109344172Y-122623800D01*
X104938615Y-122623800D01*
X104826817Y-122511807D01*
X104615116Y-122423901D01*
X104385890Y-122423701D01*
X104174036Y-122511237D01*
X104011807Y-122673183D01*
X103923901Y-122884884D01*
X103923701Y-123114110D01*
X96826099Y-123114110D01*
X96826299Y-122885890D01*
X96738763Y-122674036D01*
X96576817Y-122511807D01*
X96365116Y-122423901D01*
X96135890Y-122423701D01*
X95924036Y-122511237D01*
X95875057Y-122560131D01*
X95826817Y-122511807D01*
X95615116Y-122423901D01*
X95385890Y-122423701D01*
X95174036Y-122511237D01*
X95011807Y-122673183D01*
X94923901Y-122884884D01*
X94923701Y-123114110D01*
X67851200Y-123114110D01*
X67851200Y-117132934D01*
X90073596Y-117132934D01*
X90252285Y-117565393D01*
X90582866Y-117896552D01*
X91015013Y-118075995D01*
X91482934Y-118076404D01*
X91915393Y-117897715D01*
X92246552Y-117567134D01*
X92378237Y-117250000D01*
X97123799Y-117250000D01*
X97123800Y-117250005D01*
X97123800Y-118499995D01*
X97123799Y-118500000D01*
X97138937Y-118576099D01*
X97152437Y-118643966D01*
X97207226Y-118725964D01*
X97233986Y-118766014D01*
X98141679Y-119673706D01*
X98135890Y-119673701D01*
X97924036Y-119761237D01*
X97761807Y-119923183D01*
X97673901Y-120134884D01*
X97673701Y-120364110D01*
X97761237Y-120575964D01*
X97923183Y-120738193D01*
X97975749Y-120760020D01*
X97923901Y-120884884D01*
X97923701Y-121114110D01*
X98011237Y-121325964D01*
X98173183Y-121488193D01*
X98384884Y-121576099D01*
X98614110Y-121576299D01*
X98825964Y-121488763D01*
X98988193Y-121326817D01*
X99076099Y-121115116D01*
X99076238Y-120955789D01*
X99192902Y-120839126D01*
X99173901Y-120884884D01*
X99173701Y-121114110D01*
X99261237Y-121325964D01*
X99423183Y-121488193D01*
X99634884Y-121576099D01*
X99864110Y-121576299D01*
X100075964Y-121488763D01*
X100200834Y-121364110D01*
X119423701Y-121364110D01*
X119511237Y-121575964D01*
X119673183Y-121738193D01*
X119884884Y-121826099D01*
X120114110Y-121826299D01*
X120325964Y-121738763D01*
X120488193Y-121576817D01*
X120576099Y-121365116D01*
X120576099Y-121364110D01*
X122423701Y-121364110D01*
X122511237Y-121575964D01*
X122673183Y-121738193D01*
X122884884Y-121826099D01*
X123114110Y-121826299D01*
X123325964Y-121738763D01*
X123488193Y-121576817D01*
X123576099Y-121365116D01*
X123576299Y-121135890D01*
X123488763Y-120924036D01*
X123326817Y-120761807D01*
X123115116Y-120673901D01*
X122885890Y-120673701D01*
X122674036Y-120761237D01*
X122511807Y-120923183D01*
X122423901Y-121134884D01*
X122423701Y-121364110D01*
X120576099Y-121364110D01*
X120576299Y-121135890D01*
X120488763Y-120924036D01*
X120326817Y-120761807D01*
X120115116Y-120673901D01*
X119885890Y-120673701D01*
X119674036Y-120761237D01*
X119511807Y-120923183D01*
X119423901Y-121134884D01*
X119423701Y-121364110D01*
X100200834Y-121364110D01*
X100238193Y-121326817D01*
X100326099Y-121115116D01*
X100326299Y-120885890D01*
X100238763Y-120674036D01*
X100126200Y-120561276D01*
X100126200Y-120364110D01*
X127423701Y-120364110D01*
X127511237Y-120575964D01*
X127673183Y-120738193D01*
X127884884Y-120826099D01*
X128114110Y-120826299D01*
X128325964Y-120738763D01*
X128488193Y-120576817D01*
X128576099Y-120365116D01*
X128576099Y-120364110D01*
X130423701Y-120364110D01*
X130511237Y-120575964D01*
X130673183Y-120738193D01*
X130884884Y-120826099D01*
X131114110Y-120826299D01*
X131325964Y-120738763D01*
X131488193Y-120576817D01*
X131576099Y-120365116D01*
X131576299Y-120135890D01*
X131488763Y-119924036D01*
X131326817Y-119761807D01*
X131115116Y-119673901D01*
X130885890Y-119673701D01*
X130674036Y-119761237D01*
X130511807Y-119923183D01*
X130423901Y-120134884D01*
X130423701Y-120364110D01*
X128576099Y-120364110D01*
X128576299Y-120135890D01*
X128488763Y-119924036D01*
X128326817Y-119761807D01*
X128115116Y-119673901D01*
X127885890Y-119673701D01*
X127674036Y-119761237D01*
X127511807Y-119923183D01*
X127423901Y-120134884D01*
X127423701Y-120364110D01*
X100126200Y-120364110D01*
X100126200Y-120000000D01*
X100097563Y-119856034D01*
X100016014Y-119733986D01*
X100016011Y-119733984D01*
X98796137Y-118514110D01*
X106423701Y-118514110D01*
X106511237Y-118725964D01*
X106673183Y-118888193D01*
X106884884Y-118976099D01*
X107114110Y-118976299D01*
X107325964Y-118888763D01*
X107488193Y-118726817D01*
X107576099Y-118515116D01*
X107576099Y-118514110D01*
X107623701Y-118514110D01*
X107711237Y-118725964D01*
X107873183Y-118888193D01*
X108084884Y-118976099D01*
X108314110Y-118976299D01*
X108525964Y-118888763D01*
X108688193Y-118726817D01*
X108776099Y-118515116D01*
X108776099Y-118514110D01*
X108823701Y-118514110D01*
X108911237Y-118725964D01*
X108985131Y-118799987D01*
X108911807Y-118873183D01*
X108823901Y-119084884D01*
X108823701Y-119314110D01*
X108911237Y-119525964D01*
X109073183Y-119688193D01*
X109284884Y-119776099D01*
X109514110Y-119776299D01*
X109725964Y-119688763D01*
X109888193Y-119526817D01*
X109976099Y-119315116D01*
X109976299Y-119085890D01*
X109888763Y-118874036D01*
X109814869Y-118800013D01*
X109888193Y-118726817D01*
X109976099Y-118515116D01*
X109976299Y-118285890D01*
X109888763Y-118074036D01*
X109726817Y-117911807D01*
X109515116Y-117823901D01*
X109285890Y-117823701D01*
X109074036Y-117911237D01*
X108911807Y-118073183D01*
X108823901Y-118284884D01*
X108823701Y-118514110D01*
X108776099Y-118514110D01*
X108776299Y-118285890D01*
X108688763Y-118074036D01*
X108526817Y-117911807D01*
X108315116Y-117823901D01*
X108085890Y-117823701D01*
X107874036Y-117911237D01*
X107711807Y-118073183D01*
X107623901Y-118284884D01*
X107623701Y-118514110D01*
X107576099Y-118514110D01*
X107576299Y-118285890D01*
X107488763Y-118074036D01*
X107326817Y-117911807D01*
X107115116Y-117823901D01*
X106885890Y-117823701D01*
X106674036Y-117911237D01*
X106511807Y-118073183D01*
X106423901Y-118284884D01*
X106423701Y-118514110D01*
X98796137Y-118514110D01*
X98673462Y-118391435D01*
X98738193Y-118326817D01*
X98826099Y-118115116D01*
X98826299Y-117885890D01*
X98738763Y-117674036D01*
X98576817Y-117511807D01*
X98365116Y-117423901D01*
X98141135Y-117423706D01*
X98238193Y-117326817D01*
X98326099Y-117115116D01*
X98326299Y-116885890D01*
X98238763Y-116674036D01*
X98076817Y-116511807D01*
X97865116Y-116423901D01*
X97635890Y-116423701D01*
X97424036Y-116511237D01*
X97261807Y-116673183D01*
X97173901Y-116884884D01*
X97173736Y-117074158D01*
X97152437Y-117106034D01*
X97147686Y-117129921D01*
X97123799Y-117250000D01*
X92378237Y-117250000D01*
X92425995Y-117134987D01*
X92426404Y-116667066D01*
X92247715Y-116234607D01*
X91917134Y-115903448D01*
X91484987Y-115724005D01*
X91017066Y-115723596D01*
X90584607Y-115902285D01*
X90253448Y-116232866D01*
X90074005Y-116665013D01*
X90073596Y-117132934D01*
X67851200Y-117132934D01*
X67851200Y-115614110D01*
X75173701Y-115614110D01*
X75261237Y-115825964D01*
X75423183Y-115988193D01*
X75451425Y-115999920D01*
X75424036Y-116011237D01*
X75261807Y-116173183D01*
X75173901Y-116384884D01*
X75173701Y-116614110D01*
X75261237Y-116825964D01*
X75423183Y-116988193D01*
X75634884Y-117076099D01*
X75864110Y-117076299D01*
X76075964Y-116988763D01*
X76188724Y-116876200D01*
X77749995Y-116876200D01*
X77750000Y-116876201D01*
X77870079Y-116852314D01*
X77893966Y-116847563D01*
X78016014Y-116766014D01*
X81516011Y-113266016D01*
X81516014Y-113266014D01*
X81597563Y-113143966D01*
X81626200Y-113000000D01*
X81626200Y-112691128D01*
X81673183Y-112738193D01*
X81884884Y-112826099D01*
X82114110Y-112826299D01*
X82325964Y-112738763D01*
X82373800Y-112691010D01*
X82373800Y-113344173D01*
X82044133Y-113673839D01*
X81885890Y-113673701D01*
X81674036Y-113761237D01*
X81511807Y-113923183D01*
X81423901Y-114134884D01*
X81423701Y-114364110D01*
X81511237Y-114575964D01*
X81673183Y-114738193D01*
X81884884Y-114826099D01*
X82114110Y-114826299D01*
X82325964Y-114738763D01*
X82450834Y-114614110D01*
X87673701Y-114614110D01*
X87761237Y-114825964D01*
X87923183Y-114988193D01*
X88134884Y-115076099D01*
X88364110Y-115076299D01*
X88575964Y-114988763D01*
X88738193Y-114826817D01*
X88749920Y-114798575D01*
X88761237Y-114825964D01*
X88923183Y-114988193D01*
X88951425Y-114999920D01*
X88924036Y-115011237D01*
X88761807Y-115173183D01*
X88673901Y-115384884D01*
X88673701Y-115614110D01*
X88761237Y-115825964D01*
X88923183Y-115988193D01*
X89134884Y-116076099D01*
X89364110Y-116076299D01*
X89575964Y-115988763D01*
X89738193Y-115826817D01*
X89826099Y-115615116D01*
X89826299Y-115385890D01*
X89738763Y-115174036D01*
X89576817Y-115011807D01*
X89548575Y-115000080D01*
X89575964Y-114988763D01*
X89738193Y-114826817D01*
X89826099Y-114615116D01*
X89826299Y-114385890D01*
X89738763Y-114174036D01*
X89576817Y-114011807D01*
X89365116Y-113923901D01*
X89135890Y-113923701D01*
X88924036Y-114011237D01*
X88761807Y-114173183D01*
X88750080Y-114201425D01*
X88738763Y-114174036D01*
X88576817Y-114011807D01*
X88365116Y-113923901D01*
X88135890Y-113923701D01*
X87924036Y-114011237D01*
X87761807Y-114173183D01*
X87673901Y-114384884D01*
X87673701Y-114614110D01*
X82450834Y-114614110D01*
X82488193Y-114576817D01*
X82576099Y-114365116D01*
X82576238Y-114205790D01*
X83016011Y-113766016D01*
X83016014Y-113766014D01*
X83097563Y-113643966D01*
X83126200Y-113500000D01*
X83126200Y-112364110D01*
X89173701Y-112364110D01*
X89261237Y-112575964D01*
X89423183Y-112738193D01*
X89634884Y-112826099D01*
X89794210Y-112826238D01*
X91733984Y-114766011D01*
X91733986Y-114766014D01*
X91856034Y-114847563D01*
X91856035Y-114847563D01*
X91856036Y-114847564D01*
X92000000Y-114876201D01*
X92000005Y-114876200D01*
X94311385Y-114876200D01*
X94423183Y-114988193D01*
X94634884Y-115076099D01*
X94864110Y-115076299D01*
X95075964Y-114988763D01*
X95238193Y-114826817D01*
X95326099Y-114615116D01*
X95326299Y-114385890D01*
X95238763Y-114174036D01*
X95076817Y-114011807D01*
X94865116Y-113923901D01*
X94635890Y-113923701D01*
X94424036Y-114011237D01*
X94311276Y-114123800D01*
X92155827Y-114123800D01*
X91130232Y-113098205D01*
X91660700Y-113056480D01*
X91989478Y-112920296D01*
X92011705Y-112864110D01*
X103923701Y-112864110D01*
X104011237Y-113075964D01*
X104173183Y-113238193D01*
X104384884Y-113326099D01*
X104614110Y-113326299D01*
X104825964Y-113238763D01*
X104950834Y-113114110D01*
X107673701Y-113114110D01*
X107761237Y-113325964D01*
X107923183Y-113488193D01*
X108134884Y-113576099D01*
X108364110Y-113576299D01*
X108575964Y-113488763D01*
X108700834Y-113364110D01*
X110423701Y-113364110D01*
X110511237Y-113575964D01*
X110673183Y-113738193D01*
X110884884Y-113826099D01*
X111114110Y-113826299D01*
X111325964Y-113738763D01*
X111488193Y-113576817D01*
X111576099Y-113365116D01*
X111576299Y-113135890D01*
X111488763Y-112924036D01*
X111326817Y-112761807D01*
X111115116Y-112673901D01*
X110885890Y-112673701D01*
X110674036Y-112761237D01*
X110511807Y-112923183D01*
X110423901Y-113134884D01*
X110423701Y-113364110D01*
X108700834Y-113364110D01*
X108738193Y-113326817D01*
X108826099Y-113115116D01*
X108826299Y-112885890D01*
X108738763Y-112674036D01*
X108576817Y-112511807D01*
X108365116Y-112423901D01*
X108135890Y-112423701D01*
X107924036Y-112511237D01*
X107761807Y-112673183D01*
X107673901Y-112884884D01*
X107673701Y-113114110D01*
X104950834Y-113114110D01*
X104988193Y-113076817D01*
X105076099Y-112865116D01*
X105076299Y-112635890D01*
X104988763Y-112424036D01*
X104826817Y-112261807D01*
X104615116Y-112173901D01*
X104385890Y-112173701D01*
X104174036Y-112261237D01*
X104011807Y-112423183D01*
X103923901Y-112634884D01*
X103923701Y-112864110D01*
X92011705Y-112864110D01*
X92082842Y-112684290D01*
X91250000Y-111851447D01*
X91235858Y-111865590D01*
X90984410Y-111614142D01*
X90998553Y-111600000D01*
X91501447Y-111600000D01*
X92334290Y-112432842D01*
X92570296Y-112339478D01*
X92643533Y-112114110D01*
X96923701Y-112114110D01*
X97011237Y-112325964D01*
X97173183Y-112488193D01*
X97384884Y-112576099D01*
X97614110Y-112576299D01*
X97825964Y-112488763D01*
X97988193Y-112326817D01*
X98076099Y-112115116D01*
X98076299Y-111885890D01*
X97988763Y-111674036D01*
X97826817Y-111511807D01*
X97615116Y-111423901D01*
X97385890Y-111423701D01*
X97174036Y-111511237D01*
X97011807Y-111673183D01*
X96923901Y-111884884D01*
X96923701Y-112114110D01*
X92643533Y-112114110D01*
X92752780Y-111777934D01*
X92706480Y-111189300D01*
X92570296Y-110860522D01*
X92334290Y-110767158D01*
X91501447Y-111600000D01*
X90998553Y-111600000D01*
X90165710Y-110767158D01*
X89929704Y-110860522D01*
X89747220Y-111422066D01*
X89767022Y-111673815D01*
X89635890Y-111673701D01*
X89424036Y-111761237D01*
X89261807Y-111923183D01*
X89173901Y-112134884D01*
X89173701Y-112364110D01*
X83126200Y-112364110D01*
X83126200Y-110515710D01*
X90417158Y-110515710D01*
X91250000Y-111348553D01*
X92082842Y-110515710D01*
X91989478Y-110279704D01*
X91427934Y-110097220D01*
X90839300Y-110143520D01*
X90510522Y-110279704D01*
X90417158Y-110515710D01*
X83126200Y-110515710D01*
X83126200Y-104864110D01*
X88423701Y-104864110D01*
X88511237Y-105075964D01*
X88673183Y-105238193D01*
X88884884Y-105326099D01*
X89114110Y-105326299D01*
X89325964Y-105238763D01*
X89338549Y-105226200D01*
X90802752Y-105226200D01*
X91773800Y-106197248D01*
X91773800Y-108750000D01*
X91810049Y-108932234D01*
X91847440Y-108988193D01*
X91913276Y-109086724D01*
X93163276Y-110336724D01*
X93317766Y-110439951D01*
X93500000Y-110476200D01*
X95161211Y-110476200D01*
X95173183Y-110488193D01*
X95384884Y-110576099D01*
X95614110Y-110576299D01*
X95825964Y-110488763D01*
X95988193Y-110326817D01*
X96076099Y-110115116D01*
X96076299Y-109885890D01*
X95988763Y-109674036D01*
X95826817Y-109511807D01*
X95615116Y-109423901D01*
X95385890Y-109423701D01*
X95174036Y-109511237D01*
X95161451Y-109523800D01*
X93697248Y-109523800D01*
X93210089Y-109036641D01*
X93325964Y-108988763D01*
X93488193Y-108826817D01*
X93576099Y-108615116D01*
X93576299Y-108385890D01*
X93488763Y-108174036D01*
X93376200Y-108061276D01*
X93376200Y-105405828D01*
X93923706Y-104858322D01*
X93923701Y-104864110D01*
X94011237Y-105075964D01*
X94173183Y-105238193D01*
X94201425Y-105249920D01*
X94174036Y-105261237D01*
X94011807Y-105423183D01*
X93923901Y-105634884D01*
X93923701Y-105864110D01*
X94011237Y-106075964D01*
X94173183Y-106238193D01*
X94384884Y-106326099D01*
X94544210Y-106326238D01*
X96483984Y-108266011D01*
X96483986Y-108266014D01*
X96606034Y-108347563D01*
X96606035Y-108347563D01*
X96606036Y-108347564D01*
X96750000Y-108376201D01*
X96750005Y-108376200D01*
X97844172Y-108376200D01*
X97910873Y-108442901D01*
X97865116Y-108423901D01*
X97635890Y-108423701D01*
X97424036Y-108511237D01*
X97261807Y-108673183D01*
X97173901Y-108884884D01*
X97173701Y-109114110D01*
X97261237Y-109325964D01*
X97423183Y-109488193D01*
X97634884Y-109576099D01*
X97864110Y-109576299D01*
X98075964Y-109488763D01*
X98238193Y-109326817D01*
X98326099Y-109115116D01*
X98326299Y-108885890D01*
X98306891Y-108838919D01*
X100983986Y-111516014D01*
X101106034Y-111597563D01*
X101129921Y-111602314D01*
X101250000Y-111626201D01*
X101250005Y-111626200D01*
X102561385Y-111626200D01*
X102673183Y-111738193D01*
X102884884Y-111826099D01*
X103114110Y-111826299D01*
X103173755Y-111801654D01*
X103173701Y-111864110D01*
X103261237Y-112075964D01*
X103423183Y-112238193D01*
X103634884Y-112326099D01*
X103864110Y-112326299D01*
X104075964Y-112238763D01*
X104238193Y-112076817D01*
X104326099Y-111865116D01*
X104326299Y-111635890D01*
X104238763Y-111424036D01*
X104126200Y-111311276D01*
X104126200Y-111000005D01*
X104126201Y-111000000D01*
X104097564Y-110856035D01*
X104070503Y-110815536D01*
X104016014Y-110733986D01*
X104016011Y-110733984D01*
X103646138Y-110364110D01*
X105673701Y-110364110D01*
X105761237Y-110575964D01*
X105923183Y-110738193D01*
X106134884Y-110826099D01*
X106364110Y-110826299D01*
X106575964Y-110738763D01*
X106738193Y-110576817D01*
X106826099Y-110365116D01*
X106826099Y-110364110D01*
X130673701Y-110364110D01*
X130761237Y-110575964D01*
X130923183Y-110738193D01*
X131134884Y-110826099D01*
X131364110Y-110826299D01*
X131575964Y-110738763D01*
X131738193Y-110576817D01*
X131826099Y-110365116D01*
X131826299Y-110135890D01*
X131738763Y-109924036D01*
X131576817Y-109761807D01*
X131365116Y-109673901D01*
X131135890Y-109673701D01*
X130924036Y-109761237D01*
X130761807Y-109923183D01*
X130673901Y-110134884D01*
X130673701Y-110364110D01*
X106826099Y-110364110D01*
X106826299Y-110135890D01*
X106738763Y-109924036D01*
X106576817Y-109761807D01*
X106365116Y-109673901D01*
X106135890Y-109673701D01*
X105924036Y-109761237D01*
X105761807Y-109923183D01*
X105673901Y-110134884D01*
X105673701Y-110364110D01*
X103646138Y-110364110D01*
X103516014Y-110233986D01*
X103393966Y-110152437D01*
X103370079Y-110147686D01*
X103250000Y-110123799D01*
X103249995Y-110123800D01*
X101405827Y-110123800D01*
X99635441Y-108353413D01*
X99750000Y-108376201D01*
X99750005Y-108376200D01*
X110344172Y-108376200D01*
X110923839Y-108955866D01*
X110923701Y-109114110D01*
X111011237Y-109325964D01*
X111173183Y-109488193D01*
X111384884Y-109576099D01*
X111614110Y-109576299D01*
X111825964Y-109488763D01*
X111988193Y-109326817D01*
X112076099Y-109115116D01*
X112076299Y-108885890D01*
X111988763Y-108674036D01*
X111826817Y-108511807D01*
X111615116Y-108423901D01*
X111455789Y-108423762D01*
X110766014Y-107733986D01*
X110643966Y-107652437D01*
X110620079Y-107647686D01*
X110500000Y-107623799D01*
X110499995Y-107623800D01*
X99905827Y-107623800D01*
X99146138Y-106864110D01*
X102923701Y-106864110D01*
X103011237Y-107075964D01*
X103173183Y-107238193D01*
X103384884Y-107326099D01*
X103614110Y-107326299D01*
X103825964Y-107238763D01*
X103988193Y-107076817D01*
X104076099Y-106865116D01*
X104076299Y-106635890D01*
X103988763Y-106424036D01*
X103826817Y-106261807D01*
X103615116Y-106173901D01*
X103385890Y-106173701D01*
X103174036Y-106261237D01*
X103011807Y-106423183D01*
X102923901Y-106634884D01*
X102923701Y-106864110D01*
X99146138Y-106864110D01*
X99016014Y-106733986D01*
X98893966Y-106652437D01*
X98870079Y-106647686D01*
X98750000Y-106623799D01*
X98749995Y-106623800D01*
X97905827Y-106623800D01*
X95016014Y-103733986D01*
X94926089Y-103673901D01*
X94893966Y-103652437D01*
X94870079Y-103647686D01*
X94750000Y-103623799D01*
X94749995Y-103623800D01*
X94250005Y-103623800D01*
X94250000Y-103623799D01*
X94106035Y-103652436D01*
X93983986Y-103733986D01*
X92733986Y-104983986D01*
X92652437Y-105106034D01*
X92647686Y-105129921D01*
X92623799Y-105250000D01*
X92623800Y-105250005D01*
X92623800Y-105718764D01*
X92586724Y-105663276D01*
X91336724Y-104413276D01*
X91320502Y-104402437D01*
X91182234Y-104310049D01*
X91000000Y-104273800D01*
X89338789Y-104273800D01*
X89326817Y-104261807D01*
X89115116Y-104173901D01*
X88885890Y-104173701D01*
X88674036Y-104261237D01*
X88511807Y-104423183D01*
X88423901Y-104634884D01*
X88423701Y-104864110D01*
X83126200Y-104864110D01*
X83126200Y-104405828D01*
X83405827Y-104126200D01*
X93249995Y-104126200D01*
X93250000Y-104126201D01*
X93370079Y-104102314D01*
X93393966Y-104097563D01*
X93516014Y-104016014D01*
X93516015Y-104016013D01*
X95191011Y-102341016D01*
X95191014Y-102341014D01*
X95272563Y-102218966D01*
X95272564Y-102218965D01*
X95294521Y-102108581D01*
X95494506Y-102308916D01*
X95945024Y-102495987D01*
X96432836Y-102496413D01*
X96883679Y-102310128D01*
X97228916Y-101965494D01*
X97415987Y-101514976D01*
X97416413Y-101027164D01*
X97230128Y-100576321D01*
X96885494Y-100231084D01*
X96434976Y-100044013D01*
X95947164Y-100043587D01*
X95496321Y-100229872D01*
X95301200Y-100424652D01*
X95301200Y-99575272D01*
X95494506Y-99768916D01*
X95945024Y-99955987D01*
X96432836Y-99956413D01*
X96883679Y-99770128D01*
X97228916Y-99425494D01*
X97283259Y-99294621D01*
X97368183Y-99499645D01*
X97609364Y-99599188D01*
X98478553Y-98730000D01*
X98464410Y-98715858D01*
X98715858Y-98464410D01*
X98730000Y-98478553D01*
X98744142Y-98464410D01*
X98995590Y-98715858D01*
X98981447Y-98730000D01*
X98995590Y-98744142D01*
X98744142Y-98995590D01*
X98730000Y-98981447D01*
X97860812Y-99850636D01*
X97960355Y-100091817D01*
X98188583Y-100166958D01*
X98036321Y-100229872D01*
X97691084Y-100574506D01*
X97504013Y-101025024D01*
X97503587Y-101512836D01*
X97689872Y-101963679D01*
X98034506Y-102308916D01*
X98485024Y-102495987D01*
X98710467Y-102496184D01*
X98674036Y-102511237D01*
X98511807Y-102673183D01*
X98423901Y-102884884D01*
X98423701Y-103114110D01*
X98511237Y-103325964D01*
X98673183Y-103488193D01*
X98884884Y-103576099D01*
X99114110Y-103576299D01*
X99325964Y-103488763D01*
X99488193Y-103326817D01*
X99499920Y-103298575D01*
X99511237Y-103325964D01*
X99673183Y-103488193D01*
X99884884Y-103576099D01*
X100114110Y-103576299D01*
X100325964Y-103488763D01*
X100488193Y-103326817D01*
X100576099Y-103115116D01*
X100576299Y-102885890D01*
X100488763Y-102674036D01*
X100376200Y-102561276D01*
X100376200Y-102110263D01*
X100574506Y-102308916D01*
X101025024Y-102495987D01*
X101512836Y-102496413D01*
X101963679Y-102310128D01*
X102173800Y-102100374D01*
X102173800Y-102949995D01*
X102173799Y-102950000D01*
X102186931Y-103016013D01*
X102202437Y-103093966D01*
X102235846Y-103143966D01*
X102283986Y-103216014D01*
X102873800Y-103805827D01*
X102873800Y-103811385D01*
X102761807Y-103923183D01*
X102673901Y-104134884D01*
X102673701Y-104364110D01*
X102761237Y-104575964D01*
X102923183Y-104738193D01*
X103134884Y-104826099D01*
X103364110Y-104826299D01*
X103575964Y-104738763D01*
X103738193Y-104576817D01*
X103826099Y-104365116D01*
X103826299Y-104135890D01*
X103738763Y-103924036D01*
X103626200Y-103811276D01*
X103626200Y-103650000D01*
X103597563Y-103506034D01*
X103516014Y-103383986D01*
X103516011Y-103383984D01*
X102926200Y-102794172D01*
X102926200Y-102120281D01*
X103114506Y-102308916D01*
X103565024Y-102495987D01*
X104052836Y-102496413D01*
X104308835Y-102390636D01*
X105480812Y-102390636D01*
X105580355Y-102631817D01*
X106160086Y-102822686D01*
X106768729Y-102777171D01*
X107119645Y-102631817D01*
X107219188Y-102390636D01*
X106350000Y-101521447D01*
X105480812Y-102390636D01*
X104308835Y-102390636D01*
X104503679Y-102310128D01*
X104848916Y-101965494D01*
X104903259Y-101834621D01*
X104988183Y-102039645D01*
X105229364Y-102139188D01*
X106098553Y-101270000D01*
X106601447Y-101270000D01*
X107470636Y-102139188D01*
X107711817Y-102039645D01*
X107786958Y-101811417D01*
X107849872Y-101963679D01*
X108194506Y-102308916D01*
X108645024Y-102495987D01*
X109132836Y-102496413D01*
X109583679Y-102310128D01*
X109928916Y-101965494D01*
X110115987Y-101514976D01*
X110115988Y-101512836D01*
X110203587Y-101512836D01*
X110389872Y-101963679D01*
X110734506Y-102308916D01*
X111185024Y-102495987D01*
X111672836Y-102496413D01*
X112123679Y-102310128D01*
X112468916Y-101965494D01*
X112655987Y-101514976D01*
X112655988Y-101512836D01*
X112743587Y-101512836D01*
X112929872Y-101963679D01*
X113274506Y-102308916D01*
X113725024Y-102495987D01*
X114212836Y-102496413D01*
X114663679Y-102310128D01*
X115008916Y-101965494D01*
X115195987Y-101514976D01*
X115195988Y-101512836D01*
X115283587Y-101512836D01*
X115469872Y-101963679D01*
X115814506Y-102308916D01*
X116265024Y-102495987D01*
X116752836Y-102496413D01*
X117203679Y-102310128D01*
X117548916Y-101965494D01*
X117735987Y-101514976D01*
X117735988Y-101512836D01*
X117823587Y-101512836D01*
X118009872Y-101963679D01*
X118354506Y-102308916D01*
X118805024Y-102495987D01*
X119292836Y-102496413D01*
X119743679Y-102310128D01*
X120088916Y-101965494D01*
X120275987Y-101514976D01*
X120275988Y-101512836D01*
X120363587Y-101512836D01*
X120549872Y-101963679D01*
X120894506Y-102308916D01*
X121345024Y-102495987D01*
X121832836Y-102496413D01*
X122088835Y-102390636D01*
X123260812Y-102390636D01*
X123360355Y-102631817D01*
X123940086Y-102822686D01*
X124548729Y-102777171D01*
X124899645Y-102631817D01*
X124999188Y-102390636D01*
X124130000Y-101521447D01*
X123260812Y-102390636D01*
X122088835Y-102390636D01*
X122283679Y-102310128D01*
X122628916Y-101965494D01*
X122683259Y-101834621D01*
X122768183Y-102039645D01*
X123009364Y-102139188D01*
X123878553Y-101270000D01*
X124381447Y-101270000D01*
X125250636Y-102139188D01*
X125491817Y-102039645D01*
X125682686Y-101459914D01*
X125637171Y-100851271D01*
X125491817Y-100500355D01*
X125250636Y-100400812D01*
X124381447Y-101270000D01*
X123878553Y-101270000D01*
X123009364Y-100400812D01*
X122768183Y-100500355D01*
X122693042Y-100728583D01*
X122630128Y-100576321D01*
X122285494Y-100231084D01*
X121834976Y-100044013D01*
X121347164Y-100043587D01*
X120896321Y-100229872D01*
X120551084Y-100574506D01*
X120364013Y-101025024D01*
X120363587Y-101512836D01*
X120275988Y-101512836D01*
X120276413Y-101027164D01*
X120090128Y-100576321D01*
X119745494Y-100231084D01*
X119294976Y-100044013D01*
X118807164Y-100043587D01*
X118356321Y-100229872D01*
X118011084Y-100574506D01*
X117824013Y-101025024D01*
X117823587Y-101512836D01*
X117735988Y-101512836D01*
X117736413Y-101027164D01*
X117550128Y-100576321D01*
X117205494Y-100231084D01*
X117074621Y-100176741D01*
X117279645Y-100091817D01*
X117379188Y-99850636D01*
X116510000Y-98981447D01*
X115640812Y-99850636D01*
X115740355Y-100091817D01*
X115968583Y-100166958D01*
X115816321Y-100229872D01*
X115471084Y-100574506D01*
X115284013Y-101025024D01*
X115283587Y-101512836D01*
X115195988Y-101512836D01*
X115196413Y-101027164D01*
X115010128Y-100576321D01*
X114665494Y-100231084D01*
X114214976Y-100044013D01*
X113727164Y-100043587D01*
X113276321Y-100229872D01*
X112931084Y-100574506D01*
X112744013Y-101025024D01*
X112743587Y-101512836D01*
X112655988Y-101512836D01*
X112656413Y-101027164D01*
X112470128Y-100576321D01*
X112125494Y-100231084D01*
X111994621Y-100176741D01*
X112199645Y-100091817D01*
X112299188Y-99850636D01*
X111430000Y-98981447D01*
X110560812Y-99850636D01*
X110660355Y-100091817D01*
X110888583Y-100166958D01*
X110736321Y-100229872D01*
X110391084Y-100574506D01*
X110204013Y-101025024D01*
X110203587Y-101512836D01*
X110115988Y-101512836D01*
X110116413Y-101027164D01*
X109930128Y-100576321D01*
X109585494Y-100231084D01*
X109134976Y-100044013D01*
X108647164Y-100043587D01*
X108196321Y-100229872D01*
X107851084Y-100574506D01*
X107796741Y-100705379D01*
X107711817Y-100500355D01*
X107470636Y-100400812D01*
X106601447Y-101270000D01*
X106098553Y-101270000D01*
X105229364Y-100400812D01*
X104988183Y-100500355D01*
X104913042Y-100728583D01*
X104850128Y-100576321D01*
X104505494Y-100231084D01*
X104054976Y-100044013D01*
X103567164Y-100043587D01*
X103116321Y-100229872D01*
X102926200Y-100419661D01*
X102926200Y-100145828D01*
X103247774Y-99824254D01*
X103565024Y-99955987D01*
X104052836Y-99956413D01*
X104503679Y-99770128D01*
X104848916Y-99425494D01*
X105035987Y-98974976D01*
X105036413Y-98487164D01*
X104850128Y-98036321D01*
X104505494Y-97691084D01*
X104349236Y-97626200D01*
X105810419Y-97626200D01*
X105656321Y-97689872D01*
X105311084Y-98034506D01*
X105124013Y-98485024D01*
X105123587Y-98972836D01*
X105309872Y-99423679D01*
X105654506Y-99768916D01*
X105785379Y-99823259D01*
X105580355Y-99908183D01*
X105480812Y-100149364D01*
X106350000Y-101018553D01*
X107219188Y-100149364D01*
X107119645Y-99908183D01*
X106891417Y-99833042D01*
X107043679Y-99770128D01*
X107388916Y-99425494D01*
X107575987Y-98974976D01*
X107576413Y-98487164D01*
X107390128Y-98036321D01*
X107045494Y-97691084D01*
X106889236Y-97626200D01*
X108350419Y-97626200D01*
X108196321Y-97689872D01*
X107851084Y-98034506D01*
X107664013Y-98485024D01*
X107663587Y-98972836D01*
X107849872Y-99423679D01*
X108194506Y-99768916D01*
X108645024Y-99955987D01*
X109132836Y-99956413D01*
X109583679Y-99770128D01*
X109928916Y-99425494D01*
X109983259Y-99294621D01*
X110068183Y-99499645D01*
X110309364Y-99599188D01*
X111178553Y-98730000D01*
X111164410Y-98715858D01*
X111415858Y-98464410D01*
X111430000Y-98478553D01*
X111444142Y-98464410D01*
X111695590Y-98715858D01*
X111681447Y-98730000D01*
X112550636Y-99599188D01*
X112791817Y-99499645D01*
X112866958Y-99271417D01*
X112929872Y-99423679D01*
X113274506Y-99768916D01*
X113725024Y-99955987D01*
X114212836Y-99956413D01*
X114663679Y-99770128D01*
X115008916Y-99425494D01*
X115063259Y-99294621D01*
X115148183Y-99499645D01*
X115389364Y-99599188D01*
X116258553Y-98730000D01*
X116244410Y-98715858D01*
X116495858Y-98464410D01*
X116510000Y-98478553D01*
X116524142Y-98464410D01*
X116775590Y-98715858D01*
X116761447Y-98730000D01*
X117630636Y-99599188D01*
X117871817Y-99499645D01*
X117946958Y-99271417D01*
X118009872Y-99423679D01*
X118354506Y-99768916D01*
X118805024Y-99955987D01*
X119292836Y-99956413D01*
X119743679Y-99770128D01*
X120088916Y-99425494D01*
X120275987Y-98974976D01*
X120276413Y-98487164D01*
X120150568Y-98182596D01*
X120390121Y-98422149D01*
X120364013Y-98485024D01*
X120363587Y-98972836D01*
X120549872Y-99423679D01*
X120894506Y-99768916D01*
X121345024Y-99955987D01*
X121832836Y-99956413D01*
X122283679Y-99770128D01*
X122628916Y-99425494D01*
X122815987Y-98974976D01*
X122815988Y-98972836D01*
X122903587Y-98972836D01*
X123089872Y-99423679D01*
X123434506Y-99768916D01*
X123565379Y-99823259D01*
X123360355Y-99908183D01*
X123260812Y-100149364D01*
X124130000Y-101018553D01*
X124999188Y-100149364D01*
X124899645Y-99908183D01*
X124671417Y-99833042D01*
X124823679Y-99770128D01*
X125168916Y-99425494D01*
X125355987Y-98974976D01*
X125356413Y-98487164D01*
X125170128Y-98036321D01*
X124825494Y-97691084D01*
X124374976Y-97504013D01*
X123887164Y-97503587D01*
X123436321Y-97689872D01*
X123091084Y-98034506D01*
X122904013Y-98485024D01*
X122903587Y-98972836D01*
X122815988Y-98972836D01*
X122816413Y-98487164D01*
X122630128Y-98036321D01*
X122285494Y-97691084D01*
X121834976Y-97504013D01*
X121347164Y-97503587D01*
X120896321Y-97689872D01*
X120809034Y-97777006D01*
X120016014Y-96983986D01*
X119893966Y-96902437D01*
X119870079Y-96897686D01*
X119750000Y-96873799D01*
X119749995Y-96873800D01*
X95750000Y-96873800D01*
X95606034Y-96902437D01*
X95483986Y-96983986D01*
X95483984Y-96983989D01*
X94658986Y-97808986D01*
X94580479Y-97926481D01*
X94345494Y-97691084D01*
X93894976Y-97504013D01*
X93407164Y-97503587D01*
X92956321Y-97689872D01*
X92611084Y-98034506D01*
X92556741Y-98165379D01*
X92471817Y-97960355D01*
X92230636Y-97860812D01*
X91361447Y-98730000D01*
X92230636Y-99599188D01*
X92471817Y-99499645D01*
X92546958Y-99271417D01*
X92609872Y-99423679D01*
X92954506Y-99768916D01*
X93405024Y-99955987D01*
X93892836Y-99956413D01*
X94343679Y-99770128D01*
X94548800Y-99565365D01*
X94548800Y-100434746D01*
X94345494Y-100231084D01*
X93894976Y-100044013D01*
X93407164Y-100043587D01*
X92956321Y-100229872D01*
X92611084Y-100574506D01*
X92424013Y-101025024D01*
X92423587Y-101512836D01*
X92555612Y-101832360D01*
X91514172Y-102873800D01*
X90038228Y-102873800D01*
X90547774Y-102364254D01*
X90865024Y-102495987D01*
X91352836Y-102496413D01*
X91803679Y-102310128D01*
X92148916Y-101965494D01*
X92335987Y-101514976D01*
X92336413Y-101027164D01*
X92150128Y-100576321D01*
X91805494Y-100231084D01*
X91674621Y-100176741D01*
X91879645Y-100091817D01*
X91979188Y-99850636D01*
X91110000Y-98981447D01*
X90240812Y-99850636D01*
X90340355Y-100091817D01*
X90568583Y-100166958D01*
X90416321Y-100229872D01*
X90071084Y-100574506D01*
X89884013Y-101025024D01*
X89883587Y-101512836D01*
X90015612Y-101832360D01*
X89474172Y-102373800D01*
X89109581Y-102373800D01*
X89263679Y-102310128D01*
X89608916Y-101965494D01*
X89795987Y-101514976D01*
X89796413Y-101027164D01*
X89610128Y-100576321D01*
X89265494Y-100231084D01*
X88814976Y-100044013D01*
X88327164Y-100043587D01*
X87876321Y-100229872D01*
X87531084Y-100574506D01*
X87476741Y-100705379D01*
X87391817Y-100500355D01*
X87150636Y-100400812D01*
X86281447Y-101270000D01*
X86295590Y-101284142D01*
X86044142Y-101535590D01*
X86030000Y-101521447D01*
X86015858Y-101535590D01*
X85764410Y-101284142D01*
X85778553Y-101270000D01*
X84909364Y-100400812D01*
X84668183Y-100500355D01*
X84593042Y-100728583D01*
X84530128Y-100576321D01*
X84185494Y-100231084D01*
X83734976Y-100044013D01*
X83247164Y-100043587D01*
X82796321Y-100229872D01*
X82451084Y-100574506D01*
X82264013Y-101025024D01*
X82263587Y-101512836D01*
X82449872Y-101963679D01*
X82794506Y-102308916D01*
X82950764Y-102373800D01*
X82750005Y-102373800D01*
X82750000Y-102373799D01*
X82606035Y-102402436D01*
X82565536Y-102429497D01*
X82483986Y-102483986D01*
X82483984Y-102483989D01*
X80733986Y-104233986D01*
X80652437Y-104356034D01*
X80648903Y-104373799D01*
X80623799Y-104500000D01*
X80623800Y-104500005D01*
X80623800Y-105844173D01*
X80483986Y-105983986D01*
X80402437Y-106106034D01*
X80402437Y-106106035D01*
X80373799Y-106250000D01*
X80373800Y-106250005D01*
X80373800Y-112594173D01*
X77844172Y-115123800D01*
X76188615Y-115123800D01*
X76076817Y-115011807D01*
X75865116Y-114923901D01*
X75635890Y-114923701D01*
X75424036Y-115011237D01*
X75261807Y-115173183D01*
X75173901Y-115384884D01*
X75173701Y-115614110D01*
X67851200Y-115614110D01*
X67851200Y-114864110D01*
X71673701Y-114864110D01*
X71761237Y-115075964D01*
X71923183Y-115238193D01*
X72134884Y-115326099D01*
X72364110Y-115326299D01*
X72575964Y-115238763D01*
X72738193Y-115076817D01*
X72826099Y-114865116D01*
X72826299Y-114635890D01*
X72738763Y-114424036D01*
X72576817Y-114261807D01*
X72365116Y-114173901D01*
X72135890Y-114173701D01*
X71924036Y-114261237D01*
X71761807Y-114423183D01*
X71673901Y-114634884D01*
X71673701Y-114864110D01*
X67851200Y-114864110D01*
X67851200Y-107614110D01*
X71023701Y-107614110D01*
X71111237Y-107825964D01*
X71273183Y-107988193D01*
X71484884Y-108076099D01*
X71714110Y-108076299D01*
X71925964Y-107988763D01*
X71949900Y-107964869D01*
X71973183Y-107988193D01*
X72184884Y-108076099D01*
X72414110Y-108076299D01*
X72625964Y-107988763D01*
X72788193Y-107826817D01*
X72876099Y-107615116D01*
X72876299Y-107385890D01*
X72788763Y-107174036D01*
X72626817Y-107011807D01*
X72415116Y-106923901D01*
X72185890Y-106923701D01*
X71974036Y-107011237D01*
X71950100Y-107035131D01*
X71926817Y-107011807D01*
X71715116Y-106923901D01*
X71485890Y-106923701D01*
X71274036Y-107011237D01*
X71111807Y-107173183D01*
X71023901Y-107384884D01*
X71023701Y-107614110D01*
X67851200Y-107614110D01*
X67851200Y-105576200D01*
X74500000Y-105576200D01*
X74527695Y-105570989D01*
X74553132Y-105554621D01*
X74570197Y-105529646D01*
X74576200Y-105500000D01*
X74576200Y-103364110D01*
X78673701Y-103364110D01*
X78761237Y-103575964D01*
X78923183Y-103738193D01*
X79134884Y-103826099D01*
X79364110Y-103826299D01*
X79575964Y-103738763D01*
X79738193Y-103576817D01*
X79749920Y-103548575D01*
X79761237Y-103575964D01*
X79923183Y-103738193D01*
X80134884Y-103826099D01*
X80364110Y-103826299D01*
X80575964Y-103738763D01*
X80738193Y-103576817D01*
X80826099Y-103365116D01*
X80826299Y-103135890D01*
X80738763Y-102924036D01*
X80576817Y-102761807D01*
X80365116Y-102673901D01*
X80135890Y-102673701D01*
X79924036Y-102761237D01*
X79761807Y-102923183D01*
X79750080Y-102951425D01*
X79738763Y-102924036D01*
X79576817Y-102761807D01*
X79365116Y-102673901D01*
X79135890Y-102673701D01*
X78924036Y-102761237D01*
X78761807Y-102923183D01*
X78673901Y-103134884D01*
X78673701Y-103364110D01*
X74576200Y-103364110D01*
X74576200Y-100320000D01*
X74638389Y-100320000D01*
X74638389Y-102220000D01*
X74657648Y-102322354D01*
X74718139Y-102416359D01*
X74810438Y-102479424D01*
X74920000Y-102501611D01*
X76820000Y-102501611D01*
X76922354Y-102482352D01*
X77016359Y-102421861D01*
X77079424Y-102329562D01*
X77101611Y-102220000D01*
X77101611Y-101512836D01*
X77183587Y-101512836D01*
X77369872Y-101963679D01*
X77714506Y-102308916D01*
X78165024Y-102495987D01*
X78652836Y-102496413D01*
X79103679Y-102310128D01*
X79448916Y-101965494D01*
X79635987Y-101514976D01*
X79635988Y-101512836D01*
X79723587Y-101512836D01*
X79909872Y-101963679D01*
X80254506Y-102308916D01*
X80705024Y-102495987D01*
X81192836Y-102496413D01*
X81643679Y-102310128D01*
X81988916Y-101965494D01*
X82175987Y-101514976D01*
X82176413Y-101027164D01*
X81990128Y-100576321D01*
X81645494Y-100231084D01*
X81514621Y-100176741D01*
X81719645Y-100091817D01*
X81819188Y-99850636D01*
X80950000Y-98981447D01*
X80080812Y-99850636D01*
X80180355Y-100091817D01*
X80408583Y-100166958D01*
X80256321Y-100229872D01*
X79911084Y-100574506D01*
X79724013Y-101025024D01*
X79723587Y-101512836D01*
X79635988Y-101512836D01*
X79636413Y-101027164D01*
X79450128Y-100576321D01*
X79105494Y-100231084D01*
X78654976Y-100044013D01*
X78167164Y-100043587D01*
X77716321Y-100229872D01*
X77371084Y-100574506D01*
X77184013Y-101025024D01*
X77183587Y-101512836D01*
X77101611Y-101512836D01*
X77101611Y-100320000D01*
X77082352Y-100217646D01*
X77021861Y-100123641D01*
X76929562Y-100060576D01*
X76820000Y-100038389D01*
X74920000Y-100038389D01*
X74817646Y-100057648D01*
X74723641Y-100118139D01*
X74660576Y-100210438D01*
X74638389Y-100320000D01*
X74576200Y-100320000D01*
X74576200Y-98972836D01*
X74643587Y-98972836D01*
X74829872Y-99423679D01*
X75174506Y-99768916D01*
X75625024Y-99955987D01*
X76112836Y-99956413D01*
X76563679Y-99770128D01*
X76908916Y-99425494D01*
X77095987Y-98974976D01*
X77095988Y-98972836D01*
X77183587Y-98972836D01*
X77369872Y-99423679D01*
X77714506Y-99768916D01*
X78165024Y-99955987D01*
X78652836Y-99956413D01*
X79103679Y-99770128D01*
X79448916Y-99425494D01*
X79503259Y-99294621D01*
X79588183Y-99499645D01*
X79829364Y-99599188D01*
X80698553Y-98730000D01*
X81201447Y-98730000D01*
X82070636Y-99599188D01*
X82311817Y-99499645D01*
X82386958Y-99271417D01*
X82449872Y-99423679D01*
X82794506Y-99768916D01*
X83245024Y-99955987D01*
X83732836Y-99956413D01*
X84183679Y-99770128D01*
X84528916Y-99425494D01*
X84715987Y-98974976D01*
X84715988Y-98972836D01*
X84803587Y-98972836D01*
X84989872Y-99423679D01*
X85334506Y-99768916D01*
X85465379Y-99823259D01*
X85260355Y-99908183D01*
X85160812Y-100149364D01*
X86030000Y-101018553D01*
X86899188Y-100149364D01*
X86799645Y-99908183D01*
X86571417Y-99833042D01*
X86723679Y-99770128D01*
X87068916Y-99425494D01*
X87255987Y-98974976D01*
X87255988Y-98972836D01*
X87343587Y-98972836D01*
X87529872Y-99423679D01*
X87874506Y-99768916D01*
X88325024Y-99955987D01*
X88812836Y-99956413D01*
X89263679Y-99770128D01*
X89608916Y-99425494D01*
X89663259Y-99294621D01*
X89748183Y-99499645D01*
X89989364Y-99599188D01*
X90858553Y-98730000D01*
X89989364Y-97860812D01*
X89748183Y-97960355D01*
X89673042Y-98188583D01*
X89610128Y-98036321D01*
X89265494Y-97691084D01*
X89068690Y-97609364D01*
X90240812Y-97609364D01*
X91110000Y-98478553D01*
X91979188Y-97609364D01*
X91879645Y-97368183D01*
X91299914Y-97177314D01*
X90691271Y-97222829D01*
X90340355Y-97368183D01*
X90240812Y-97609364D01*
X89068690Y-97609364D01*
X88814976Y-97504013D01*
X88327164Y-97503587D01*
X87876321Y-97689872D01*
X87531084Y-98034506D01*
X87344013Y-98485024D01*
X87343587Y-98972836D01*
X87255988Y-98972836D01*
X87256413Y-98487164D01*
X87070128Y-98036321D01*
X86725494Y-97691084D01*
X86274976Y-97504013D01*
X85787164Y-97503587D01*
X85336321Y-97689872D01*
X84991084Y-98034506D01*
X84804013Y-98485024D01*
X84803587Y-98972836D01*
X84715988Y-98972836D01*
X84716413Y-98487164D01*
X84530128Y-98036321D01*
X84185494Y-97691084D01*
X83734976Y-97504013D01*
X83247164Y-97503587D01*
X82796321Y-97689872D01*
X82451084Y-98034506D01*
X82396741Y-98165379D01*
X82311817Y-97960355D01*
X82070636Y-97860812D01*
X81201447Y-98730000D01*
X80698553Y-98730000D01*
X79829364Y-97860812D01*
X79588183Y-97960355D01*
X79513042Y-98188583D01*
X79450128Y-98036321D01*
X79105494Y-97691084D01*
X78908690Y-97609364D01*
X80080812Y-97609364D01*
X80950000Y-98478553D01*
X81819188Y-97609364D01*
X81719645Y-97368183D01*
X81139914Y-97177314D01*
X80531271Y-97222829D01*
X80180355Y-97368183D01*
X80080812Y-97609364D01*
X78908690Y-97609364D01*
X78654976Y-97504013D01*
X78167164Y-97503587D01*
X77716321Y-97689872D01*
X77371084Y-98034506D01*
X77184013Y-98485024D01*
X77183587Y-98972836D01*
X77095988Y-98972836D01*
X77096413Y-98487164D01*
X76910128Y-98036321D01*
X76565494Y-97691084D01*
X76114976Y-97504013D01*
X75627164Y-97503587D01*
X75176321Y-97689872D01*
X74831084Y-98034506D01*
X74644013Y-98485024D01*
X74643587Y-98972836D01*
X74576200Y-98972836D01*
X74576200Y-96851200D01*
X129465409Y-96851200D01*
X130511019Y-97059184D01*
X130511019Y-97059184D01*
G37*
X130511019Y-97059184D02*
X131368120Y-97631882D01*
X131940815Y-98488980D01*
X132148800Y-99534591D01*
X132148800Y-123465409D01*
X131940815Y-124511020D01*
X131368120Y-125368118D01*
X130511019Y-125940816D01*
X129465409Y-126148800D01*
X93482614Y-126148800D01*
X93509424Y-126109562D01*
X93531611Y-126000000D01*
X93531611Y-125614110D01*
X110173701Y-125614110D01*
X110261237Y-125825964D01*
X110423183Y-125988193D01*
X110634884Y-126076099D01*
X110864110Y-126076299D01*
X111075964Y-125988763D01*
X111238193Y-125826817D01*
X111326099Y-125615116D01*
X111326299Y-125385890D01*
X111238763Y-125174036D01*
X111076817Y-125011807D01*
X110865116Y-124923901D01*
X110635890Y-124923701D01*
X110424036Y-125011237D01*
X110261807Y-125173183D01*
X110173901Y-125384884D01*
X110173701Y-125614110D01*
X93531611Y-125614110D01*
X93531611Y-124864110D01*
X119423701Y-124864110D01*
X119511237Y-125075964D01*
X119673183Y-125238193D01*
X119884884Y-125326099D01*
X120114110Y-125326299D01*
X120325964Y-125238763D01*
X120488193Y-125076817D01*
X120576099Y-124865116D01*
X120576099Y-124864110D01*
X122423701Y-124864110D01*
X122511237Y-125075964D01*
X122673183Y-125238193D01*
X122884884Y-125326099D01*
X123114110Y-125326299D01*
X123325964Y-125238763D01*
X123488193Y-125076817D01*
X123576099Y-124865116D01*
X123576099Y-124864110D01*
X127423701Y-124864110D01*
X127511237Y-125075964D01*
X127673183Y-125238193D01*
X127884884Y-125326099D01*
X128114110Y-125326299D01*
X128325964Y-125238763D01*
X128488193Y-125076817D01*
X128576099Y-124865116D01*
X128576099Y-124864110D01*
X130173701Y-124864110D01*
X130261237Y-125075964D01*
X130423183Y-125238193D01*
X130634884Y-125326099D01*
X130864110Y-125326299D01*
X131075964Y-125238763D01*
X131238193Y-125076817D01*
X131326099Y-124865116D01*
X131326299Y-124635890D01*
X131238763Y-124424036D01*
X131076817Y-124261807D01*
X130865116Y-124173901D01*
X130635890Y-124173701D01*
X130424036Y-124261237D01*
X130261807Y-124423183D01*
X130173901Y-124634884D01*
X130173701Y-124864110D01*
X128576099Y-124864110D01*
X128576299Y-124635890D01*
X128488763Y-124424036D01*
X128326817Y-124261807D01*
X128115116Y-124173901D01*
X127885890Y-124173701D01*
X127674036Y-124261237D01*
X127511807Y-124423183D01*
X127423901Y-124634884D01*
X127423701Y-124864110D01*
X123576099Y-124864110D01*
X123576299Y-124635890D01*
X123488763Y-124424036D01*
X123326817Y-124261807D01*
X123115116Y-124173901D01*
X122885890Y-124173701D01*
X122674036Y-124261237D01*
X122511807Y-124423183D01*
X122423901Y-124634884D01*
X122423701Y-124864110D01*
X120576099Y-124864110D01*
X120576299Y-124635890D01*
X120488763Y-124424036D01*
X120326817Y-124261807D01*
X120115116Y-124173901D01*
X119885890Y-124173701D01*
X119674036Y-124261237D01*
X119511807Y-124423183D01*
X119423901Y-124634884D01*
X119423701Y-124864110D01*
X93531611Y-124864110D01*
X93531611Y-123864110D01*
X102423701Y-123864110D01*
X102511237Y-124075964D01*
X102673183Y-124238193D01*
X102884884Y-124326099D01*
X103114110Y-124326299D01*
X103325964Y-124238763D01*
X103488193Y-124076817D01*
X103576099Y-123865116D01*
X103576299Y-123635890D01*
X103488763Y-123424036D01*
X103326817Y-123261807D01*
X103115116Y-123173901D01*
X102885890Y-123173701D01*
X102674036Y-123261237D01*
X102511807Y-123423183D01*
X102423901Y-123634884D01*
X102423701Y-123864110D01*
X93531611Y-123864110D01*
X93531611Y-123500000D01*
X93512352Y-123397646D01*
X93451861Y-123303641D01*
X93359562Y-123240576D01*
X93250000Y-123218389D01*
X91250000Y-123218389D01*
X91147646Y-123237648D01*
X91053641Y-123298139D01*
X90990576Y-123390438D01*
X90968389Y-123500000D01*
X90968389Y-126000000D01*
X90987648Y-126102354D01*
X91017535Y-126148800D01*
X90232614Y-126148800D01*
X90259424Y-126109562D01*
X90281611Y-126000000D01*
X90281611Y-123500000D01*
X90262352Y-123397646D01*
X90201861Y-123303641D01*
X90109562Y-123240576D01*
X90000000Y-123218389D01*
X88000000Y-123218389D01*
X87897646Y-123237648D01*
X87803641Y-123298139D01*
X87740576Y-123390438D01*
X87718389Y-123500000D01*
X87718389Y-126000000D01*
X87737648Y-126102354D01*
X87767535Y-126148800D01*
X86982614Y-126148800D01*
X87009424Y-126109562D01*
X87031611Y-126000000D01*
X87031611Y-123500000D01*
X87012352Y-123397646D01*
X86951861Y-123303641D01*
X86859562Y-123240576D01*
X86750000Y-123218389D01*
X84750000Y-123218389D01*
X84647646Y-123237648D01*
X84553641Y-123298139D01*
X84490576Y-123390438D01*
X84468389Y-123500000D01*
X84468389Y-126000000D01*
X84487648Y-126102354D01*
X84517535Y-126148800D01*
X83732614Y-126148800D01*
X83759424Y-126109562D01*
X83781611Y-126000000D01*
X83781611Y-123500000D01*
X83762352Y-123397646D01*
X83701861Y-123303641D01*
X83609562Y-123240576D01*
X83500000Y-123218389D01*
X81500000Y-123218389D01*
X81397646Y-123237648D01*
X81303641Y-123298139D01*
X81240576Y-123390438D01*
X81218389Y-123500000D01*
X81218389Y-126000000D01*
X81237648Y-126102354D01*
X81267535Y-126148800D01*
X80482614Y-126148800D01*
X80509424Y-126109562D01*
X80531611Y-126000000D01*
X80531611Y-123500000D01*
X80512352Y-123397646D01*
X80451861Y-123303641D01*
X80359562Y-123240576D01*
X80250000Y-123218389D01*
X78250000Y-123218389D01*
X78147646Y-123237648D01*
X78053641Y-123298139D01*
X77990576Y-123390438D01*
X77968389Y-123500000D01*
X77968389Y-126000000D01*
X77987648Y-126102354D01*
X78017535Y-126148800D01*
X77232614Y-126148800D01*
X77259424Y-126109562D01*
X77281611Y-126000000D01*
X77281611Y-123500000D01*
X77262352Y-123397646D01*
X77201861Y-123303641D01*
X77109562Y-123240576D01*
X77000000Y-123218389D01*
X75000000Y-123218389D01*
X74897646Y-123237648D01*
X74803641Y-123298139D01*
X74740576Y-123390438D01*
X74718389Y-123500000D01*
X74718389Y-126000000D01*
X74737648Y-126102354D01*
X74767535Y-126148800D01*
X74232614Y-126148800D01*
X74259424Y-126109562D01*
X74281611Y-126000000D01*
X74281611Y-123500000D01*
X74262352Y-123397646D01*
X74201861Y-123303641D01*
X74109562Y-123240576D01*
X74000000Y-123218389D01*
X72000000Y-123218389D01*
X71897646Y-123237648D01*
X71803641Y-123298139D01*
X71740576Y-123390438D01*
X71718389Y-123500000D01*
X71718389Y-126000000D01*
X71737648Y-126102354D01*
X71767535Y-126148800D01*
X71232614Y-126148800D01*
X71259424Y-126109562D01*
X71281611Y-126000000D01*
X71281611Y-123500000D01*
X71262352Y-123397646D01*
X71201861Y-123303641D01*
X71109562Y-123240576D01*
X71000000Y-123218389D01*
X69000000Y-123218389D01*
X68897646Y-123237648D01*
X68803641Y-123298139D01*
X68740576Y-123390438D01*
X68718389Y-123500000D01*
X68718389Y-125425922D01*
X68631882Y-125368120D01*
X68059184Y-124511019D01*
X67851200Y-123465409D01*
X67851200Y-123114110D01*
X94923701Y-123114110D01*
X95011237Y-123325964D01*
X95173183Y-123488193D01*
X95384884Y-123576099D01*
X95614110Y-123576299D01*
X95825964Y-123488763D01*
X95874943Y-123439869D01*
X95923183Y-123488193D01*
X96134884Y-123576099D01*
X96364110Y-123576299D01*
X96575964Y-123488763D01*
X96738193Y-123326817D01*
X96826099Y-123115116D01*
X96826099Y-123114110D01*
X103923701Y-123114110D01*
X104011237Y-123325964D01*
X104173183Y-123488193D01*
X104384884Y-123576099D01*
X104614110Y-123576299D01*
X104825964Y-123488763D01*
X104938724Y-123376200D01*
X109499995Y-123376200D01*
X109500000Y-123376201D01*
X109620079Y-123352314D01*
X109643966Y-123347563D01*
X109766014Y-123266014D01*
X109955867Y-123076161D01*
X110114110Y-123076299D01*
X110325964Y-122988763D01*
X110488193Y-122826817D01*
X110576099Y-122615116D01*
X110576299Y-122385890D01*
X110488763Y-122174036D01*
X110326817Y-122011807D01*
X110115116Y-121923901D01*
X109885890Y-121923701D01*
X109674036Y-122011237D01*
X109511807Y-122173183D01*
X109423901Y-122384884D01*
X109423762Y-122544210D01*
X109344172Y-122623800D01*
X104938615Y-122623800D01*
X104826817Y-122511807D01*
X104615116Y-122423901D01*
X104385890Y-122423701D01*
X104174036Y-122511237D01*
X104011807Y-122673183D01*
X103923901Y-122884884D01*
X103923701Y-123114110D01*
X96826099Y-123114110D01*
X96826299Y-122885890D01*
X96738763Y-122674036D01*
X96576817Y-122511807D01*
X96365116Y-122423901D01*
X96135890Y-122423701D01*
X95924036Y-122511237D01*
X95875057Y-122560131D01*
X95826817Y-122511807D01*
X95615116Y-122423901D01*
X95385890Y-122423701D01*
X95174036Y-122511237D01*
X95011807Y-122673183D01*
X94923901Y-122884884D01*
X94923701Y-123114110D01*
X67851200Y-123114110D01*
X67851200Y-117132934D01*
X90073596Y-117132934D01*
X90252285Y-117565393D01*
X90582866Y-117896552D01*
X91015013Y-118075995D01*
X91482934Y-118076404D01*
X91915393Y-117897715D01*
X92246552Y-117567134D01*
X92378237Y-117250000D01*
X97123799Y-117250000D01*
X97123800Y-117250005D01*
X97123800Y-118499995D01*
X97123799Y-118500000D01*
X97138937Y-118576099D01*
X97152437Y-118643966D01*
X97207226Y-118725964D01*
X97233986Y-118766014D01*
X98141679Y-119673706D01*
X98135890Y-119673701D01*
X97924036Y-119761237D01*
X97761807Y-119923183D01*
X97673901Y-120134884D01*
X97673701Y-120364110D01*
X97761237Y-120575964D01*
X97923183Y-120738193D01*
X97975749Y-120760020D01*
X97923901Y-120884884D01*
X97923701Y-121114110D01*
X98011237Y-121325964D01*
X98173183Y-121488193D01*
X98384884Y-121576099D01*
X98614110Y-121576299D01*
X98825964Y-121488763D01*
X98988193Y-121326817D01*
X99076099Y-121115116D01*
X99076238Y-120955789D01*
X99192902Y-120839126D01*
X99173901Y-120884884D01*
X99173701Y-121114110D01*
X99261237Y-121325964D01*
X99423183Y-121488193D01*
X99634884Y-121576099D01*
X99864110Y-121576299D01*
X100075964Y-121488763D01*
X100200834Y-121364110D01*
X119423701Y-121364110D01*
X119511237Y-121575964D01*
X119673183Y-121738193D01*
X119884884Y-121826099D01*
X120114110Y-121826299D01*
X120325964Y-121738763D01*
X120488193Y-121576817D01*
X120576099Y-121365116D01*
X120576099Y-121364110D01*
X122423701Y-121364110D01*
X122511237Y-121575964D01*
X122673183Y-121738193D01*
X122884884Y-121826099D01*
X123114110Y-121826299D01*
X123325964Y-121738763D01*
X123488193Y-121576817D01*
X123576099Y-121365116D01*
X123576299Y-121135890D01*
X123488763Y-120924036D01*
X123326817Y-120761807D01*
X123115116Y-120673901D01*
X122885890Y-120673701D01*
X122674036Y-120761237D01*
X122511807Y-120923183D01*
X122423901Y-121134884D01*
X122423701Y-121364110D01*
X120576099Y-121364110D01*
X120576299Y-121135890D01*
X120488763Y-120924036D01*
X120326817Y-120761807D01*
X120115116Y-120673901D01*
X119885890Y-120673701D01*
X119674036Y-120761237D01*
X119511807Y-120923183D01*
X119423901Y-121134884D01*
X119423701Y-121364110D01*
X100200834Y-121364110D01*
X100238193Y-121326817D01*
X100326099Y-121115116D01*
X100326299Y-120885890D01*
X100238763Y-120674036D01*
X100126200Y-120561276D01*
X100126200Y-120364110D01*
X127423701Y-120364110D01*
X127511237Y-120575964D01*
X127673183Y-120738193D01*
X127884884Y-120826099D01*
X128114110Y-120826299D01*
X128325964Y-120738763D01*
X128488193Y-120576817D01*
X128576099Y-120365116D01*
X128576099Y-120364110D01*
X130423701Y-120364110D01*
X130511237Y-120575964D01*
X130673183Y-120738193D01*
X130884884Y-120826099D01*
X131114110Y-120826299D01*
X131325964Y-120738763D01*
X131488193Y-120576817D01*
X131576099Y-120365116D01*
X131576299Y-120135890D01*
X131488763Y-119924036D01*
X131326817Y-119761807D01*
X131115116Y-119673901D01*
X130885890Y-119673701D01*
X130674036Y-119761237D01*
X130511807Y-119923183D01*
X130423901Y-120134884D01*
X130423701Y-120364110D01*
X128576099Y-120364110D01*
X128576299Y-120135890D01*
X128488763Y-119924036D01*
X128326817Y-119761807D01*
X128115116Y-119673901D01*
X127885890Y-119673701D01*
X127674036Y-119761237D01*
X127511807Y-119923183D01*
X127423901Y-120134884D01*
X127423701Y-120364110D01*
X100126200Y-120364110D01*
X100126200Y-120000000D01*
X100097563Y-119856034D01*
X100016014Y-119733986D01*
X100016011Y-119733984D01*
X98796137Y-118514110D01*
X106423701Y-118514110D01*
X106511237Y-118725964D01*
X106673183Y-118888193D01*
X106884884Y-118976099D01*
X107114110Y-118976299D01*
X107325964Y-118888763D01*
X107488193Y-118726817D01*
X107576099Y-118515116D01*
X107576099Y-118514110D01*
X107623701Y-118514110D01*
X107711237Y-118725964D01*
X107873183Y-118888193D01*
X108084884Y-118976099D01*
X108314110Y-118976299D01*
X108525964Y-118888763D01*
X108688193Y-118726817D01*
X108776099Y-118515116D01*
X108776099Y-118514110D01*
X108823701Y-118514110D01*
X108911237Y-118725964D01*
X108985131Y-118799987D01*
X108911807Y-118873183D01*
X108823901Y-119084884D01*
X108823701Y-119314110D01*
X108911237Y-119525964D01*
X109073183Y-119688193D01*
X109284884Y-119776099D01*
X109514110Y-119776299D01*
X109725964Y-119688763D01*
X109888193Y-119526817D01*
X109976099Y-119315116D01*
X109976299Y-119085890D01*
X109888763Y-118874036D01*
X109814869Y-118800013D01*
X109888193Y-118726817D01*
X109976099Y-118515116D01*
X109976299Y-118285890D01*
X109888763Y-118074036D01*
X109726817Y-117911807D01*
X109515116Y-117823901D01*
X109285890Y-117823701D01*
X109074036Y-117911237D01*
X108911807Y-118073183D01*
X108823901Y-118284884D01*
X108823701Y-118514110D01*
X108776099Y-118514110D01*
X108776299Y-118285890D01*
X108688763Y-118074036D01*
X108526817Y-117911807D01*
X108315116Y-117823901D01*
X108085890Y-117823701D01*
X107874036Y-117911237D01*
X107711807Y-118073183D01*
X107623901Y-118284884D01*
X107623701Y-118514110D01*
X107576099Y-118514110D01*
X107576299Y-118285890D01*
X107488763Y-118074036D01*
X107326817Y-117911807D01*
X107115116Y-117823901D01*
X106885890Y-117823701D01*
X106674036Y-117911237D01*
X106511807Y-118073183D01*
X106423901Y-118284884D01*
X106423701Y-118514110D01*
X98796137Y-118514110D01*
X98673462Y-118391435D01*
X98738193Y-118326817D01*
X98826099Y-118115116D01*
X98826299Y-117885890D01*
X98738763Y-117674036D01*
X98576817Y-117511807D01*
X98365116Y-117423901D01*
X98141135Y-117423706D01*
X98238193Y-117326817D01*
X98326099Y-117115116D01*
X98326299Y-116885890D01*
X98238763Y-116674036D01*
X98076817Y-116511807D01*
X97865116Y-116423901D01*
X97635890Y-116423701D01*
X97424036Y-116511237D01*
X97261807Y-116673183D01*
X97173901Y-116884884D01*
X97173736Y-117074158D01*
X97152437Y-117106034D01*
X97147686Y-117129921D01*
X97123799Y-117250000D01*
X92378237Y-117250000D01*
X92425995Y-117134987D01*
X92426404Y-116667066D01*
X92247715Y-116234607D01*
X91917134Y-115903448D01*
X91484987Y-115724005D01*
X91017066Y-115723596D01*
X90584607Y-115902285D01*
X90253448Y-116232866D01*
X90074005Y-116665013D01*
X90073596Y-117132934D01*
X67851200Y-117132934D01*
X67851200Y-115614110D01*
X75173701Y-115614110D01*
X75261237Y-115825964D01*
X75423183Y-115988193D01*
X75451425Y-115999920D01*
X75424036Y-116011237D01*
X75261807Y-116173183D01*
X75173901Y-116384884D01*
X75173701Y-116614110D01*
X75261237Y-116825964D01*
X75423183Y-116988193D01*
X75634884Y-117076099D01*
X75864110Y-117076299D01*
X76075964Y-116988763D01*
X76188724Y-116876200D01*
X77749995Y-116876200D01*
X77750000Y-116876201D01*
X77870079Y-116852314D01*
X77893966Y-116847563D01*
X78016014Y-116766014D01*
X81516011Y-113266016D01*
X81516014Y-113266014D01*
X81597563Y-113143966D01*
X81626200Y-113000000D01*
X81626200Y-112691128D01*
X81673183Y-112738193D01*
X81884884Y-112826099D01*
X82114110Y-112826299D01*
X82325964Y-112738763D01*
X82373800Y-112691010D01*
X82373800Y-113344173D01*
X82044133Y-113673839D01*
X81885890Y-113673701D01*
X81674036Y-113761237D01*
X81511807Y-113923183D01*
X81423901Y-114134884D01*
X81423701Y-114364110D01*
X81511237Y-114575964D01*
X81673183Y-114738193D01*
X81884884Y-114826099D01*
X82114110Y-114826299D01*
X82325964Y-114738763D01*
X82450834Y-114614110D01*
X87673701Y-114614110D01*
X87761237Y-114825964D01*
X87923183Y-114988193D01*
X88134884Y-115076099D01*
X88364110Y-115076299D01*
X88575964Y-114988763D01*
X88738193Y-114826817D01*
X88749920Y-114798575D01*
X88761237Y-114825964D01*
X88923183Y-114988193D01*
X88951425Y-114999920D01*
X88924036Y-115011237D01*
X88761807Y-115173183D01*
X88673901Y-115384884D01*
X88673701Y-115614110D01*
X88761237Y-115825964D01*
X88923183Y-115988193D01*
X89134884Y-116076099D01*
X89364110Y-116076299D01*
X89575964Y-115988763D01*
X89738193Y-115826817D01*
X89826099Y-115615116D01*
X89826299Y-115385890D01*
X89738763Y-115174036D01*
X89576817Y-115011807D01*
X89548575Y-115000080D01*
X89575964Y-114988763D01*
X89738193Y-114826817D01*
X89826099Y-114615116D01*
X89826299Y-114385890D01*
X89738763Y-114174036D01*
X89576817Y-114011807D01*
X89365116Y-113923901D01*
X89135890Y-113923701D01*
X88924036Y-114011237D01*
X88761807Y-114173183D01*
X88750080Y-114201425D01*
X88738763Y-114174036D01*
X88576817Y-114011807D01*
X88365116Y-113923901D01*
X88135890Y-113923701D01*
X87924036Y-114011237D01*
X87761807Y-114173183D01*
X87673901Y-114384884D01*
X87673701Y-114614110D01*
X82450834Y-114614110D01*
X82488193Y-114576817D01*
X82576099Y-114365116D01*
X82576238Y-114205790D01*
X83016011Y-113766016D01*
X83016014Y-113766014D01*
X83097563Y-113643966D01*
X83126200Y-113500000D01*
X83126200Y-112364110D01*
X89173701Y-112364110D01*
X89261237Y-112575964D01*
X89423183Y-112738193D01*
X89634884Y-112826099D01*
X89794210Y-112826238D01*
X91733984Y-114766011D01*
X91733986Y-114766014D01*
X91856034Y-114847563D01*
X91856035Y-114847563D01*
X91856036Y-114847564D01*
X92000000Y-114876201D01*
X92000005Y-114876200D01*
X94311385Y-114876200D01*
X94423183Y-114988193D01*
X94634884Y-115076099D01*
X94864110Y-115076299D01*
X95075964Y-114988763D01*
X95238193Y-114826817D01*
X95326099Y-114615116D01*
X95326299Y-114385890D01*
X95238763Y-114174036D01*
X95076817Y-114011807D01*
X94865116Y-113923901D01*
X94635890Y-113923701D01*
X94424036Y-114011237D01*
X94311276Y-114123800D01*
X92155827Y-114123800D01*
X91130232Y-113098205D01*
X91660700Y-113056480D01*
X91989478Y-112920296D01*
X92011705Y-112864110D01*
X103923701Y-112864110D01*
X104011237Y-113075964D01*
X104173183Y-113238193D01*
X104384884Y-113326099D01*
X104614110Y-113326299D01*
X104825964Y-113238763D01*
X104950834Y-113114110D01*
X107673701Y-113114110D01*
X107761237Y-113325964D01*
X107923183Y-113488193D01*
X108134884Y-113576099D01*
X108364110Y-113576299D01*
X108575964Y-113488763D01*
X108700834Y-113364110D01*
X110423701Y-113364110D01*
X110511237Y-113575964D01*
X110673183Y-113738193D01*
X110884884Y-113826099D01*
X111114110Y-113826299D01*
X111325964Y-113738763D01*
X111488193Y-113576817D01*
X111576099Y-113365116D01*
X111576299Y-113135890D01*
X111488763Y-112924036D01*
X111326817Y-112761807D01*
X111115116Y-112673901D01*
X110885890Y-112673701D01*
X110674036Y-112761237D01*
X110511807Y-112923183D01*
X110423901Y-113134884D01*
X110423701Y-113364110D01*
X108700834Y-113364110D01*
X108738193Y-113326817D01*
X108826099Y-113115116D01*
X108826299Y-112885890D01*
X108738763Y-112674036D01*
X108576817Y-112511807D01*
X108365116Y-112423901D01*
X108135890Y-112423701D01*
X107924036Y-112511237D01*
X107761807Y-112673183D01*
X107673901Y-112884884D01*
X107673701Y-113114110D01*
X104950834Y-113114110D01*
X104988193Y-113076817D01*
X105076099Y-112865116D01*
X105076299Y-112635890D01*
X104988763Y-112424036D01*
X104826817Y-112261807D01*
X104615116Y-112173901D01*
X104385890Y-112173701D01*
X104174036Y-112261237D01*
X104011807Y-112423183D01*
X103923901Y-112634884D01*
X103923701Y-112864110D01*
X92011705Y-112864110D01*
X92082842Y-112684290D01*
X91250000Y-111851447D01*
X91235858Y-111865590D01*
X90984410Y-111614142D01*
X90998553Y-111600000D01*
X91501447Y-111600000D01*
X92334290Y-112432842D01*
X92570296Y-112339478D01*
X92643533Y-112114110D01*
X96923701Y-112114110D01*
X97011237Y-112325964D01*
X97173183Y-112488193D01*
X97384884Y-112576099D01*
X97614110Y-112576299D01*
X97825964Y-112488763D01*
X97988193Y-112326817D01*
X98076099Y-112115116D01*
X98076299Y-111885890D01*
X97988763Y-111674036D01*
X97826817Y-111511807D01*
X97615116Y-111423901D01*
X97385890Y-111423701D01*
X97174036Y-111511237D01*
X97011807Y-111673183D01*
X96923901Y-111884884D01*
X96923701Y-112114110D01*
X92643533Y-112114110D01*
X92752780Y-111777934D01*
X92706480Y-111189300D01*
X92570296Y-110860522D01*
X92334290Y-110767158D01*
X91501447Y-111600000D01*
X90998553Y-111600000D01*
X90165710Y-110767158D01*
X89929704Y-110860522D01*
X89747220Y-111422066D01*
X89767022Y-111673815D01*
X89635890Y-111673701D01*
X89424036Y-111761237D01*
X89261807Y-111923183D01*
X89173901Y-112134884D01*
X89173701Y-112364110D01*
X83126200Y-112364110D01*
X83126200Y-110515710D01*
X90417158Y-110515710D01*
X91250000Y-111348553D01*
X92082842Y-110515710D01*
X91989478Y-110279704D01*
X91427934Y-110097220D01*
X90839300Y-110143520D01*
X90510522Y-110279704D01*
X90417158Y-110515710D01*
X83126200Y-110515710D01*
X83126200Y-104864110D01*
X88423701Y-104864110D01*
X88511237Y-105075964D01*
X88673183Y-105238193D01*
X88884884Y-105326099D01*
X89114110Y-105326299D01*
X89325964Y-105238763D01*
X89338549Y-105226200D01*
X90802752Y-105226200D01*
X91773800Y-106197248D01*
X91773800Y-108750000D01*
X91810049Y-108932234D01*
X91847440Y-108988193D01*
X91913276Y-109086724D01*
X93163276Y-110336724D01*
X93317766Y-110439951D01*
X93500000Y-110476200D01*
X95161211Y-110476200D01*
X95173183Y-110488193D01*
X95384884Y-110576099D01*
X95614110Y-110576299D01*
X95825964Y-110488763D01*
X95988193Y-110326817D01*
X96076099Y-110115116D01*
X96076299Y-109885890D01*
X95988763Y-109674036D01*
X95826817Y-109511807D01*
X95615116Y-109423901D01*
X95385890Y-109423701D01*
X95174036Y-109511237D01*
X95161451Y-109523800D01*
X93697248Y-109523800D01*
X93210089Y-109036641D01*
X93325964Y-108988763D01*
X93488193Y-108826817D01*
X93576099Y-108615116D01*
X93576299Y-108385890D01*
X93488763Y-108174036D01*
X93376200Y-108061276D01*
X93376200Y-105405828D01*
X93923706Y-104858322D01*
X93923701Y-104864110D01*
X94011237Y-105075964D01*
X94173183Y-105238193D01*
X94201425Y-105249920D01*
X94174036Y-105261237D01*
X94011807Y-105423183D01*
X93923901Y-105634884D01*
X93923701Y-105864110D01*
X94011237Y-106075964D01*
X94173183Y-106238193D01*
X94384884Y-106326099D01*
X94544210Y-106326238D01*
X96483984Y-108266011D01*
X96483986Y-108266014D01*
X96606034Y-108347563D01*
X96606035Y-108347563D01*
X96606036Y-108347564D01*
X96750000Y-108376201D01*
X96750005Y-108376200D01*
X97844172Y-108376200D01*
X97910873Y-108442901D01*
X97865116Y-108423901D01*
X97635890Y-108423701D01*
X97424036Y-108511237D01*
X97261807Y-108673183D01*
X97173901Y-108884884D01*
X97173701Y-109114110D01*
X97261237Y-109325964D01*
X97423183Y-109488193D01*
X97634884Y-109576099D01*
X97864110Y-109576299D01*
X98075964Y-109488763D01*
X98238193Y-109326817D01*
X98326099Y-109115116D01*
X98326299Y-108885890D01*
X98306891Y-108838919D01*
X100983986Y-111516014D01*
X101106034Y-111597563D01*
X101129921Y-111602314D01*
X101250000Y-111626201D01*
X101250005Y-111626200D01*
X102561385Y-111626200D01*
X102673183Y-111738193D01*
X102884884Y-111826099D01*
X103114110Y-111826299D01*
X103173755Y-111801654D01*
X103173701Y-111864110D01*
X103261237Y-112075964D01*
X103423183Y-112238193D01*
X103634884Y-112326099D01*
X103864110Y-112326299D01*
X104075964Y-112238763D01*
X104238193Y-112076817D01*
X104326099Y-111865116D01*
X104326299Y-111635890D01*
X104238763Y-111424036D01*
X104126200Y-111311276D01*
X104126200Y-111000005D01*
X104126201Y-111000000D01*
X104097564Y-110856035D01*
X104070503Y-110815536D01*
X104016014Y-110733986D01*
X104016011Y-110733984D01*
X103646138Y-110364110D01*
X105673701Y-110364110D01*
X105761237Y-110575964D01*
X105923183Y-110738193D01*
X106134884Y-110826099D01*
X106364110Y-110826299D01*
X106575964Y-110738763D01*
X106738193Y-110576817D01*
X106826099Y-110365116D01*
X106826099Y-110364110D01*
X130673701Y-110364110D01*
X130761237Y-110575964D01*
X130923183Y-110738193D01*
X131134884Y-110826099D01*
X131364110Y-110826299D01*
X131575964Y-110738763D01*
X131738193Y-110576817D01*
X131826099Y-110365116D01*
X131826299Y-110135890D01*
X131738763Y-109924036D01*
X131576817Y-109761807D01*
X131365116Y-109673901D01*
X131135890Y-109673701D01*
X130924036Y-109761237D01*
X130761807Y-109923183D01*
X130673901Y-110134884D01*
X130673701Y-110364110D01*
X106826099Y-110364110D01*
X106826299Y-110135890D01*
X106738763Y-109924036D01*
X106576817Y-109761807D01*
X106365116Y-109673901D01*
X106135890Y-109673701D01*
X105924036Y-109761237D01*
X105761807Y-109923183D01*
X105673901Y-110134884D01*
X105673701Y-110364110D01*
X103646138Y-110364110D01*
X103516014Y-110233986D01*
X103393966Y-110152437D01*
X103370079Y-110147686D01*
X103250000Y-110123799D01*
X103249995Y-110123800D01*
X101405827Y-110123800D01*
X99635441Y-108353413D01*
X99750000Y-108376201D01*
X99750005Y-108376200D01*
X110344172Y-108376200D01*
X110923839Y-108955866D01*
X110923701Y-109114110D01*
X111011237Y-109325964D01*
X111173183Y-109488193D01*
X111384884Y-109576099D01*
X111614110Y-109576299D01*
X111825964Y-109488763D01*
X111988193Y-109326817D01*
X112076099Y-109115116D01*
X112076299Y-108885890D01*
X111988763Y-108674036D01*
X111826817Y-108511807D01*
X111615116Y-108423901D01*
X111455789Y-108423762D01*
X110766014Y-107733986D01*
X110643966Y-107652437D01*
X110620079Y-107647686D01*
X110500000Y-107623799D01*
X110499995Y-107623800D01*
X99905827Y-107623800D01*
X99146138Y-106864110D01*
X102923701Y-106864110D01*
X103011237Y-107075964D01*
X103173183Y-107238193D01*
X103384884Y-107326099D01*
X103614110Y-107326299D01*
X103825964Y-107238763D01*
X103988193Y-107076817D01*
X104076099Y-106865116D01*
X104076299Y-106635890D01*
X103988763Y-106424036D01*
X103826817Y-106261807D01*
X103615116Y-106173901D01*
X103385890Y-106173701D01*
X103174036Y-106261237D01*
X103011807Y-106423183D01*
X102923901Y-106634884D01*
X102923701Y-106864110D01*
X99146138Y-106864110D01*
X99016014Y-106733986D01*
X98893966Y-106652437D01*
X98870079Y-106647686D01*
X98750000Y-106623799D01*
X98749995Y-106623800D01*
X97905827Y-106623800D01*
X95016014Y-103733986D01*
X94926089Y-103673901D01*
X94893966Y-103652437D01*
X94870079Y-103647686D01*
X94750000Y-103623799D01*
X94749995Y-103623800D01*
X94250005Y-103623800D01*
X94250000Y-103623799D01*
X94106035Y-103652436D01*
X93983986Y-103733986D01*
X92733986Y-104983986D01*
X92652437Y-105106034D01*
X92647686Y-105129921D01*
X92623799Y-105250000D01*
X92623800Y-105250005D01*
X92623800Y-105718764D01*
X92586724Y-105663276D01*
X91336724Y-104413276D01*
X91320502Y-104402437D01*
X91182234Y-104310049D01*
X91000000Y-104273800D01*
X89338789Y-104273800D01*
X89326817Y-104261807D01*
X89115116Y-104173901D01*
X88885890Y-104173701D01*
X88674036Y-104261237D01*
X88511807Y-104423183D01*
X88423901Y-104634884D01*
X88423701Y-104864110D01*
X83126200Y-104864110D01*
X83126200Y-104405828D01*
X83405827Y-104126200D01*
X93249995Y-104126200D01*
X93250000Y-104126201D01*
X93370079Y-104102314D01*
X93393966Y-104097563D01*
X93516014Y-104016014D01*
X93516015Y-104016013D01*
X95191011Y-102341016D01*
X95191014Y-102341014D01*
X95272563Y-102218966D01*
X95272564Y-102218965D01*
X95294521Y-102108581D01*
X95494506Y-102308916D01*
X95945024Y-102495987D01*
X96432836Y-102496413D01*
X96883679Y-102310128D01*
X97228916Y-101965494D01*
X97415987Y-101514976D01*
X97416413Y-101027164D01*
X97230128Y-100576321D01*
X96885494Y-100231084D01*
X96434976Y-100044013D01*
X95947164Y-100043587D01*
X95496321Y-100229872D01*
X95301200Y-100424652D01*
X95301200Y-99575272D01*
X95494506Y-99768916D01*
X95945024Y-99955987D01*
X96432836Y-99956413D01*
X96883679Y-99770128D01*
X97228916Y-99425494D01*
X97283259Y-99294621D01*
X97368183Y-99499645D01*
X97609364Y-99599188D01*
X98478553Y-98730000D01*
X98464410Y-98715858D01*
X98715858Y-98464410D01*
X98730000Y-98478553D01*
X98744142Y-98464410D01*
X98995590Y-98715858D01*
X98981447Y-98730000D01*
X98995590Y-98744142D01*
X98744142Y-98995590D01*
X98730000Y-98981447D01*
X97860812Y-99850636D01*
X97960355Y-100091817D01*
X98188583Y-100166958D01*
X98036321Y-100229872D01*
X97691084Y-100574506D01*
X97504013Y-101025024D01*
X97503587Y-101512836D01*
X97689872Y-101963679D01*
X98034506Y-102308916D01*
X98485024Y-102495987D01*
X98710467Y-102496184D01*
X98674036Y-102511237D01*
X98511807Y-102673183D01*
X98423901Y-102884884D01*
X98423701Y-103114110D01*
X98511237Y-103325964D01*
X98673183Y-103488193D01*
X98884884Y-103576099D01*
X99114110Y-103576299D01*
X99325964Y-103488763D01*
X99488193Y-103326817D01*
X99499920Y-103298575D01*
X99511237Y-103325964D01*
X99673183Y-103488193D01*
X99884884Y-103576099D01*
X100114110Y-103576299D01*
X100325964Y-103488763D01*
X100488193Y-103326817D01*
X100576099Y-103115116D01*
X100576299Y-102885890D01*
X100488763Y-102674036D01*
X100376200Y-102561276D01*
X100376200Y-102110263D01*
X100574506Y-102308916D01*
X101025024Y-102495987D01*
X101512836Y-102496413D01*
X101963679Y-102310128D01*
X102173800Y-102100374D01*
X102173800Y-102949995D01*
X102173799Y-102950000D01*
X102186931Y-103016013D01*
X102202437Y-103093966D01*
X102235846Y-103143966D01*
X102283986Y-103216014D01*
X102873800Y-103805827D01*
X102873800Y-103811385D01*
X102761807Y-103923183D01*
X102673901Y-104134884D01*
X102673701Y-104364110D01*
X102761237Y-104575964D01*
X102923183Y-104738193D01*
X103134884Y-104826099D01*
X103364110Y-104826299D01*
X103575964Y-104738763D01*
X103738193Y-104576817D01*
X103826099Y-104365116D01*
X103826299Y-104135890D01*
X103738763Y-103924036D01*
X103626200Y-103811276D01*
X103626200Y-103650000D01*
X103597563Y-103506034D01*
X103516014Y-103383986D01*
X103516011Y-103383984D01*
X102926200Y-102794172D01*
X102926200Y-102120281D01*
X103114506Y-102308916D01*
X103565024Y-102495987D01*
X104052836Y-102496413D01*
X104308835Y-102390636D01*
X105480812Y-102390636D01*
X105580355Y-102631817D01*
X106160086Y-102822686D01*
X106768729Y-102777171D01*
X107119645Y-102631817D01*
X107219188Y-102390636D01*
X106350000Y-101521447D01*
X105480812Y-102390636D01*
X104308835Y-102390636D01*
X104503679Y-102310128D01*
X104848916Y-101965494D01*
X104903259Y-101834621D01*
X104988183Y-102039645D01*
X105229364Y-102139188D01*
X106098553Y-101270000D01*
X106601447Y-101270000D01*
X107470636Y-102139188D01*
X107711817Y-102039645D01*
X107786958Y-101811417D01*
X107849872Y-101963679D01*
X108194506Y-102308916D01*
X108645024Y-102495987D01*
X109132836Y-102496413D01*
X109583679Y-102310128D01*
X109928916Y-101965494D01*
X110115987Y-101514976D01*
X110115988Y-101512836D01*
X110203587Y-101512836D01*
X110389872Y-101963679D01*
X110734506Y-102308916D01*
X111185024Y-102495987D01*
X111672836Y-102496413D01*
X112123679Y-102310128D01*
X112468916Y-101965494D01*
X112655987Y-101514976D01*
X112655988Y-101512836D01*
X112743587Y-101512836D01*
X112929872Y-101963679D01*
X113274506Y-102308916D01*
X113725024Y-102495987D01*
X114212836Y-102496413D01*
X114663679Y-102310128D01*
X115008916Y-101965494D01*
X115195987Y-101514976D01*
X115195988Y-101512836D01*
X115283587Y-101512836D01*
X115469872Y-101963679D01*
X115814506Y-102308916D01*
X116265024Y-102495987D01*
X116752836Y-102496413D01*
X117203679Y-102310128D01*
X117548916Y-101965494D01*
X117735987Y-101514976D01*
X117735988Y-101512836D01*
X117823587Y-101512836D01*
X118009872Y-101963679D01*
X118354506Y-102308916D01*
X118805024Y-102495987D01*
X119292836Y-102496413D01*
X119743679Y-102310128D01*
X120088916Y-101965494D01*
X120275987Y-101514976D01*
X120275988Y-101512836D01*
X120363587Y-101512836D01*
X120549872Y-101963679D01*
X120894506Y-102308916D01*
X121345024Y-102495987D01*
X121832836Y-102496413D01*
X122088835Y-102390636D01*
X123260812Y-102390636D01*
X123360355Y-102631817D01*
X123940086Y-102822686D01*
X124548729Y-102777171D01*
X124899645Y-102631817D01*
X124999188Y-102390636D01*
X124130000Y-101521447D01*
X123260812Y-102390636D01*
X122088835Y-102390636D01*
X122283679Y-102310128D01*
X122628916Y-101965494D01*
X122683259Y-101834621D01*
X122768183Y-102039645D01*
X123009364Y-102139188D01*
X123878553Y-101270000D01*
X124381447Y-101270000D01*
X125250636Y-102139188D01*
X125491817Y-102039645D01*
X125682686Y-101459914D01*
X125637171Y-100851271D01*
X125491817Y-100500355D01*
X125250636Y-100400812D01*
X124381447Y-101270000D01*
X123878553Y-101270000D01*
X123009364Y-100400812D01*
X122768183Y-100500355D01*
X122693042Y-100728583D01*
X122630128Y-100576321D01*
X122285494Y-100231084D01*
X121834976Y-100044013D01*
X121347164Y-100043587D01*
X120896321Y-100229872D01*
X120551084Y-100574506D01*
X120364013Y-101025024D01*
X120363587Y-101512836D01*
X120275988Y-101512836D01*
X120276413Y-101027164D01*
X120090128Y-100576321D01*
X119745494Y-100231084D01*
X119294976Y-100044013D01*
X118807164Y-100043587D01*
X118356321Y-100229872D01*
X118011084Y-100574506D01*
X117824013Y-101025024D01*
X117823587Y-101512836D01*
X117735988Y-101512836D01*
X117736413Y-101027164D01*
X117550128Y-100576321D01*
X117205494Y-100231084D01*
X117074621Y-100176741D01*
X117279645Y-100091817D01*
X117379188Y-99850636D01*
X116510000Y-98981447D01*
X115640812Y-99850636D01*
X115740355Y-100091817D01*
X115968583Y-100166958D01*
X115816321Y-100229872D01*
X115471084Y-100574506D01*
X115284013Y-101025024D01*
X115283587Y-101512836D01*
X115195988Y-101512836D01*
X115196413Y-101027164D01*
X115010128Y-100576321D01*
X114665494Y-100231084D01*
X114214976Y-100044013D01*
X113727164Y-100043587D01*
X113276321Y-100229872D01*
X112931084Y-100574506D01*
X112744013Y-101025024D01*
X112743587Y-101512836D01*
X112655988Y-101512836D01*
X112656413Y-101027164D01*
X112470128Y-100576321D01*
X112125494Y-100231084D01*
X111994621Y-100176741D01*
X112199645Y-100091817D01*
X112299188Y-99850636D01*
X111430000Y-98981447D01*
X110560812Y-99850636D01*
X110660355Y-100091817D01*
X110888583Y-100166958D01*
X110736321Y-100229872D01*
X110391084Y-100574506D01*
X110204013Y-101025024D01*
X110203587Y-101512836D01*
X110115988Y-101512836D01*
X110116413Y-101027164D01*
X109930128Y-100576321D01*
X109585494Y-100231084D01*
X109134976Y-100044013D01*
X108647164Y-100043587D01*
X108196321Y-100229872D01*
X107851084Y-100574506D01*
X107796741Y-100705379D01*
X107711817Y-100500355D01*
X107470636Y-100400812D01*
X106601447Y-101270000D01*
X106098553Y-101270000D01*
X105229364Y-100400812D01*
X104988183Y-100500355D01*
X104913042Y-100728583D01*
X104850128Y-100576321D01*
X104505494Y-100231084D01*
X104054976Y-100044013D01*
X103567164Y-100043587D01*
X103116321Y-100229872D01*
X102926200Y-100419661D01*
X102926200Y-100145828D01*
X103247774Y-99824254D01*
X103565024Y-99955987D01*
X104052836Y-99956413D01*
X104503679Y-99770128D01*
X104848916Y-99425494D01*
X105035987Y-98974976D01*
X105036413Y-98487164D01*
X104850128Y-98036321D01*
X104505494Y-97691084D01*
X104349236Y-97626200D01*
X105810419Y-97626200D01*
X105656321Y-97689872D01*
X105311084Y-98034506D01*
X105124013Y-98485024D01*
X105123587Y-98972836D01*
X105309872Y-99423679D01*
X105654506Y-99768916D01*
X105785379Y-99823259D01*
X105580355Y-99908183D01*
X105480812Y-100149364D01*
X106350000Y-101018553D01*
X107219188Y-100149364D01*
X107119645Y-99908183D01*
X106891417Y-99833042D01*
X107043679Y-99770128D01*
X107388916Y-99425494D01*
X107575987Y-98974976D01*
X107576413Y-98487164D01*
X107390128Y-98036321D01*
X107045494Y-97691084D01*
X106889236Y-97626200D01*
X108350419Y-97626200D01*
X108196321Y-97689872D01*
X107851084Y-98034506D01*
X107664013Y-98485024D01*
X107663587Y-98972836D01*
X107849872Y-99423679D01*
X108194506Y-99768916D01*
X108645024Y-99955987D01*
X109132836Y-99956413D01*
X109583679Y-99770128D01*
X109928916Y-99425494D01*
X109983259Y-99294621D01*
X110068183Y-99499645D01*
X110309364Y-99599188D01*
X111178553Y-98730000D01*
X111164410Y-98715858D01*
X111415858Y-98464410D01*
X111430000Y-98478553D01*
X111444142Y-98464410D01*
X111695590Y-98715858D01*
X111681447Y-98730000D01*
X112550636Y-99599188D01*
X112791817Y-99499645D01*
X112866958Y-99271417D01*
X112929872Y-99423679D01*
X113274506Y-99768916D01*
X113725024Y-99955987D01*
X114212836Y-99956413D01*
X114663679Y-99770128D01*
X115008916Y-99425494D01*
X115063259Y-99294621D01*
X115148183Y-99499645D01*
X115389364Y-99599188D01*
X116258553Y-98730000D01*
X116244410Y-98715858D01*
X116495858Y-98464410D01*
X116510000Y-98478553D01*
X116524142Y-98464410D01*
X116775590Y-98715858D01*
X116761447Y-98730000D01*
X117630636Y-99599188D01*
X117871817Y-99499645D01*
X117946958Y-99271417D01*
X118009872Y-99423679D01*
X118354506Y-99768916D01*
X118805024Y-99955987D01*
X119292836Y-99956413D01*
X119743679Y-99770128D01*
X120088916Y-99425494D01*
X120275987Y-98974976D01*
X120276413Y-98487164D01*
X120150568Y-98182596D01*
X120390121Y-98422149D01*
X120364013Y-98485024D01*
X120363587Y-98972836D01*
X120549872Y-99423679D01*
X120894506Y-99768916D01*
X121345024Y-99955987D01*
X121832836Y-99956413D01*
X122283679Y-99770128D01*
X122628916Y-99425494D01*
X122815987Y-98974976D01*
X122815988Y-98972836D01*
X122903587Y-98972836D01*
X123089872Y-99423679D01*
X123434506Y-99768916D01*
X123565379Y-99823259D01*
X123360355Y-99908183D01*
X123260812Y-100149364D01*
X124130000Y-101018553D01*
X124999188Y-100149364D01*
X124899645Y-99908183D01*
X124671417Y-99833042D01*
X124823679Y-99770128D01*
X125168916Y-99425494D01*
X125355987Y-98974976D01*
X125356413Y-98487164D01*
X125170128Y-98036321D01*
X124825494Y-97691084D01*
X124374976Y-97504013D01*
X123887164Y-97503587D01*
X123436321Y-97689872D01*
X123091084Y-98034506D01*
X122904013Y-98485024D01*
X122903587Y-98972836D01*
X122815988Y-98972836D01*
X122816413Y-98487164D01*
X122630128Y-98036321D01*
X122285494Y-97691084D01*
X121834976Y-97504013D01*
X121347164Y-97503587D01*
X120896321Y-97689872D01*
X120809034Y-97777006D01*
X120016014Y-96983986D01*
X119893966Y-96902437D01*
X119870079Y-96897686D01*
X119750000Y-96873799D01*
X119749995Y-96873800D01*
X95750000Y-96873800D01*
X95606034Y-96902437D01*
X95483986Y-96983986D01*
X95483984Y-96983989D01*
X94658986Y-97808986D01*
X94580479Y-97926481D01*
X94345494Y-97691084D01*
X93894976Y-97504013D01*
X93407164Y-97503587D01*
X92956321Y-97689872D01*
X92611084Y-98034506D01*
X92556741Y-98165379D01*
X92471817Y-97960355D01*
X92230636Y-97860812D01*
X91361447Y-98730000D01*
X92230636Y-99599188D01*
X92471817Y-99499645D01*
X92546958Y-99271417D01*
X92609872Y-99423679D01*
X92954506Y-99768916D01*
X93405024Y-99955987D01*
X93892836Y-99956413D01*
X94343679Y-99770128D01*
X94548800Y-99565365D01*
X94548800Y-100434746D01*
X94345494Y-100231084D01*
X93894976Y-100044013D01*
X93407164Y-100043587D01*
X92956321Y-100229872D01*
X92611084Y-100574506D01*
X92424013Y-101025024D01*
X92423587Y-101512836D01*
X92555612Y-101832360D01*
X91514172Y-102873800D01*
X90038228Y-102873800D01*
X90547774Y-102364254D01*
X90865024Y-102495987D01*
X91352836Y-102496413D01*
X91803679Y-102310128D01*
X92148916Y-101965494D01*
X92335987Y-101514976D01*
X92336413Y-101027164D01*
X92150128Y-100576321D01*
X91805494Y-100231084D01*
X91674621Y-100176741D01*
X91879645Y-100091817D01*
X91979188Y-99850636D01*
X91110000Y-98981447D01*
X90240812Y-99850636D01*
X90340355Y-100091817D01*
X90568583Y-100166958D01*
X90416321Y-100229872D01*
X90071084Y-100574506D01*
X89884013Y-101025024D01*
X89883587Y-101512836D01*
X90015612Y-101832360D01*
X89474172Y-102373800D01*
X89109581Y-102373800D01*
X89263679Y-102310128D01*
X89608916Y-101965494D01*
X89795987Y-101514976D01*
X89796413Y-101027164D01*
X89610128Y-100576321D01*
X89265494Y-100231084D01*
X88814976Y-100044013D01*
X88327164Y-100043587D01*
X87876321Y-100229872D01*
X87531084Y-100574506D01*
X87476741Y-100705379D01*
X87391817Y-100500355D01*
X87150636Y-100400812D01*
X86281447Y-101270000D01*
X86295590Y-101284142D01*
X86044142Y-101535590D01*
X86030000Y-101521447D01*
X86015858Y-101535590D01*
X85764410Y-101284142D01*
X85778553Y-101270000D01*
X84909364Y-100400812D01*
X84668183Y-100500355D01*
X84593042Y-100728583D01*
X84530128Y-100576321D01*
X84185494Y-100231084D01*
X83734976Y-100044013D01*
X83247164Y-100043587D01*
X82796321Y-100229872D01*
X82451084Y-100574506D01*
X82264013Y-101025024D01*
X82263587Y-101512836D01*
X82449872Y-101963679D01*
X82794506Y-102308916D01*
X82950764Y-102373800D01*
X82750005Y-102373800D01*
X82750000Y-102373799D01*
X82606035Y-102402436D01*
X82565536Y-102429497D01*
X82483986Y-102483986D01*
X82483984Y-102483989D01*
X80733986Y-104233986D01*
X80652437Y-104356034D01*
X80648903Y-104373799D01*
X80623799Y-104500000D01*
X80623800Y-104500005D01*
X80623800Y-105844173D01*
X80483986Y-105983986D01*
X80402437Y-106106034D01*
X80402437Y-106106035D01*
X80373799Y-106250000D01*
X80373800Y-106250005D01*
X80373800Y-112594173D01*
X77844172Y-115123800D01*
X76188615Y-115123800D01*
X76076817Y-115011807D01*
X75865116Y-114923901D01*
X75635890Y-114923701D01*
X75424036Y-115011237D01*
X75261807Y-115173183D01*
X75173901Y-115384884D01*
X75173701Y-115614110D01*
X67851200Y-115614110D01*
X67851200Y-114864110D01*
X71673701Y-114864110D01*
X71761237Y-115075964D01*
X71923183Y-115238193D01*
X72134884Y-115326099D01*
X72364110Y-115326299D01*
X72575964Y-115238763D01*
X72738193Y-115076817D01*
X72826099Y-114865116D01*
X72826299Y-114635890D01*
X72738763Y-114424036D01*
X72576817Y-114261807D01*
X72365116Y-114173901D01*
X72135890Y-114173701D01*
X71924036Y-114261237D01*
X71761807Y-114423183D01*
X71673901Y-114634884D01*
X71673701Y-114864110D01*
X67851200Y-114864110D01*
X67851200Y-107614110D01*
X71023701Y-107614110D01*
X71111237Y-107825964D01*
X71273183Y-107988193D01*
X71484884Y-108076099D01*
X71714110Y-108076299D01*
X71925964Y-107988763D01*
X71949900Y-107964869D01*
X71973183Y-107988193D01*
X72184884Y-108076099D01*
X72414110Y-108076299D01*
X72625964Y-107988763D01*
X72788193Y-107826817D01*
X72876099Y-107615116D01*
X72876299Y-107385890D01*
X72788763Y-107174036D01*
X72626817Y-107011807D01*
X72415116Y-106923901D01*
X72185890Y-106923701D01*
X71974036Y-107011237D01*
X71950100Y-107035131D01*
X71926817Y-107011807D01*
X71715116Y-106923901D01*
X71485890Y-106923701D01*
X71274036Y-107011237D01*
X71111807Y-107173183D01*
X71023901Y-107384884D01*
X71023701Y-107614110D01*
X67851200Y-107614110D01*
X67851200Y-105576200D01*
X74500000Y-105576200D01*
X74527695Y-105570989D01*
X74553132Y-105554621D01*
X74570197Y-105529646D01*
X74576200Y-105500000D01*
X74576200Y-103364110D01*
X78673701Y-103364110D01*
X78761237Y-103575964D01*
X78923183Y-103738193D01*
X79134884Y-103826099D01*
X79364110Y-103826299D01*
X79575964Y-103738763D01*
X79738193Y-103576817D01*
X79749920Y-103548575D01*
X79761237Y-103575964D01*
X79923183Y-103738193D01*
X80134884Y-103826099D01*
X80364110Y-103826299D01*
X80575964Y-103738763D01*
X80738193Y-103576817D01*
X80826099Y-103365116D01*
X80826299Y-103135890D01*
X80738763Y-102924036D01*
X80576817Y-102761807D01*
X80365116Y-102673901D01*
X80135890Y-102673701D01*
X79924036Y-102761237D01*
X79761807Y-102923183D01*
X79750080Y-102951425D01*
X79738763Y-102924036D01*
X79576817Y-102761807D01*
X79365116Y-102673901D01*
X79135890Y-102673701D01*
X78924036Y-102761237D01*
X78761807Y-102923183D01*
X78673901Y-103134884D01*
X78673701Y-103364110D01*
X74576200Y-103364110D01*
X74576200Y-100320000D01*
X74638389Y-100320000D01*
X74638389Y-102220000D01*
X74657648Y-102322354D01*
X74718139Y-102416359D01*
X74810438Y-102479424D01*
X74920000Y-102501611D01*
X76820000Y-102501611D01*
X76922354Y-102482352D01*
X77016359Y-102421861D01*
X77079424Y-102329562D01*
X77101611Y-102220000D01*
X77101611Y-101512836D01*
X77183587Y-101512836D01*
X77369872Y-101963679D01*
X77714506Y-102308916D01*
X78165024Y-102495987D01*
X78652836Y-102496413D01*
X79103679Y-102310128D01*
X79448916Y-101965494D01*
X79635987Y-101514976D01*
X79635988Y-101512836D01*
X79723587Y-101512836D01*
X79909872Y-101963679D01*
X80254506Y-102308916D01*
X80705024Y-102495987D01*
X81192836Y-102496413D01*
X81643679Y-102310128D01*
X81988916Y-101965494D01*
X82175987Y-101514976D01*
X82176413Y-101027164D01*
X81990128Y-100576321D01*
X81645494Y-100231084D01*
X81514621Y-100176741D01*
X81719645Y-100091817D01*
X81819188Y-99850636D01*
X80950000Y-98981447D01*
X80080812Y-99850636D01*
X80180355Y-100091817D01*
X80408583Y-100166958D01*
X80256321Y-100229872D01*
X79911084Y-100574506D01*
X79724013Y-101025024D01*
X79723587Y-101512836D01*
X79635988Y-101512836D01*
X79636413Y-101027164D01*
X79450128Y-100576321D01*
X79105494Y-100231084D01*
X78654976Y-100044013D01*
X78167164Y-100043587D01*
X77716321Y-100229872D01*
X77371084Y-100574506D01*
X77184013Y-101025024D01*
X77183587Y-101512836D01*
X77101611Y-101512836D01*
X77101611Y-100320000D01*
X77082352Y-100217646D01*
X77021861Y-100123641D01*
X76929562Y-100060576D01*
X76820000Y-100038389D01*
X74920000Y-100038389D01*
X74817646Y-100057648D01*
X74723641Y-100118139D01*
X74660576Y-100210438D01*
X74638389Y-100320000D01*
X74576200Y-100320000D01*
X74576200Y-98972836D01*
X74643587Y-98972836D01*
X74829872Y-99423679D01*
X75174506Y-99768916D01*
X75625024Y-99955987D01*
X76112836Y-99956413D01*
X76563679Y-99770128D01*
X76908916Y-99425494D01*
X77095987Y-98974976D01*
X77095988Y-98972836D01*
X77183587Y-98972836D01*
X77369872Y-99423679D01*
X77714506Y-99768916D01*
X78165024Y-99955987D01*
X78652836Y-99956413D01*
X79103679Y-99770128D01*
X79448916Y-99425494D01*
X79503259Y-99294621D01*
X79588183Y-99499645D01*
X79829364Y-99599188D01*
X80698553Y-98730000D01*
X81201447Y-98730000D01*
X82070636Y-99599188D01*
X82311817Y-99499645D01*
X82386958Y-99271417D01*
X82449872Y-99423679D01*
X82794506Y-99768916D01*
X83245024Y-99955987D01*
X83732836Y-99956413D01*
X84183679Y-99770128D01*
X84528916Y-99425494D01*
X84715987Y-98974976D01*
X84715988Y-98972836D01*
X84803587Y-98972836D01*
X84989872Y-99423679D01*
X85334506Y-99768916D01*
X85465379Y-99823259D01*
X85260355Y-99908183D01*
X85160812Y-100149364D01*
X86030000Y-101018553D01*
X86899188Y-100149364D01*
X86799645Y-99908183D01*
X86571417Y-99833042D01*
X86723679Y-99770128D01*
X87068916Y-99425494D01*
X87255987Y-98974976D01*
X87255988Y-98972836D01*
X87343587Y-98972836D01*
X87529872Y-99423679D01*
X87874506Y-99768916D01*
X88325024Y-99955987D01*
X88812836Y-99956413D01*
X89263679Y-99770128D01*
X89608916Y-99425494D01*
X89663259Y-99294621D01*
X89748183Y-99499645D01*
X89989364Y-99599188D01*
X90858553Y-98730000D01*
X89989364Y-97860812D01*
X89748183Y-97960355D01*
X89673042Y-98188583D01*
X89610128Y-98036321D01*
X89265494Y-97691084D01*
X89068690Y-97609364D01*
X90240812Y-97609364D01*
X91110000Y-98478553D01*
X91979188Y-97609364D01*
X91879645Y-97368183D01*
X91299914Y-97177314D01*
X90691271Y-97222829D01*
X90340355Y-97368183D01*
X90240812Y-97609364D01*
X89068690Y-97609364D01*
X88814976Y-97504013D01*
X88327164Y-97503587D01*
X87876321Y-97689872D01*
X87531084Y-98034506D01*
X87344013Y-98485024D01*
X87343587Y-98972836D01*
X87255988Y-98972836D01*
X87256413Y-98487164D01*
X87070128Y-98036321D01*
X86725494Y-97691084D01*
X86274976Y-97504013D01*
X85787164Y-97503587D01*
X85336321Y-97689872D01*
X84991084Y-98034506D01*
X84804013Y-98485024D01*
X84803587Y-98972836D01*
X84715988Y-98972836D01*
X84716413Y-98487164D01*
X84530128Y-98036321D01*
X84185494Y-97691084D01*
X83734976Y-97504013D01*
X83247164Y-97503587D01*
X82796321Y-97689872D01*
X82451084Y-98034506D01*
X82396741Y-98165379D01*
X82311817Y-97960355D01*
X82070636Y-97860812D01*
X81201447Y-98730000D01*
X80698553Y-98730000D01*
X79829364Y-97860812D01*
X79588183Y-97960355D01*
X79513042Y-98188583D01*
X79450128Y-98036321D01*
X79105494Y-97691084D01*
X78908690Y-97609364D01*
X80080812Y-97609364D01*
X80950000Y-98478553D01*
X81819188Y-97609364D01*
X81719645Y-97368183D01*
X81139914Y-97177314D01*
X80531271Y-97222829D01*
X80180355Y-97368183D01*
X80080812Y-97609364D01*
X78908690Y-97609364D01*
X78654976Y-97504013D01*
X78167164Y-97503587D01*
X77716321Y-97689872D01*
X77371084Y-98034506D01*
X77184013Y-98485024D01*
X77183587Y-98972836D01*
X77095988Y-98972836D01*
X77096413Y-98487164D01*
X76910128Y-98036321D01*
X76565494Y-97691084D01*
X76114976Y-97504013D01*
X75627164Y-97503587D01*
X75176321Y-97689872D01*
X74831084Y-98034506D01*
X74644013Y-98485024D01*
X74643587Y-98972836D01*
X74576200Y-98972836D01*
X74576200Y-96851200D01*
X129465409Y-96851200D01*
X130511019Y-97059184D01*
M02*
