M48
;DRILL file {KiCad 4.0.2-stable} date Wednesday, 22 June 2016 'pmt' 15:56:12
;FORMAT={-:-/ absolute / inch / decimal}
FMAT,2
INCH,TZ
T1C0.012
T2C0.024
T3C0.031
T4C0.039
%
G90
G05
M72
T1
X2.687Y-4.1732
X2.687Y-4.2323
X2.687Y-4.311
X2.687Y-4.3898
X2.687Y-4.4685
X2.687Y-4.5472
X2.687Y-4.626
X2.687Y-4.7047
X2.687Y-4.7835
X2.687Y-4.8622
X2.7362Y-4.1732
X2.7362Y-4.2717
X2.7559Y-4.311
X2.815Y-4.1732
X2.8189Y-4.2323
X2.8445Y-4.5177
X2.8465Y-4.2323
X2.8543Y-4.311
X2.8543Y-4.3898
X2.8543Y-4.4685
X2.9035Y-4.1732
X2.9134Y-4.2618
X2.9528Y-4.2323
X2.9724Y-4.2913
X2.9724Y-4.3799
X2.9724Y-4.4685
X2.9724Y-4.6358
X2.9823Y-4.5472
X2.9823Y-4.5866
X2.9921Y-4.2323
X3.002Y-4.0748
X3.002Y-4.1142
X3.0413Y-4.1732
X3.1102Y-4.4685
X3.1102Y-4.5768
X3.1201Y-4.065
X3.1496Y-4.2913
X3.1496Y-4.3799
X3.1594Y-4.065
X3.1594Y-4.1634
X3.2283Y-4.0354
X3.2283Y-4.2028
X3.2283Y-4.2421
X3.2283Y-4.2913
X3.2283Y-4.3307
X3.2283Y-4.3799
X3.2283Y-4.4193
X3.2283Y-4.498
X3.2283Y-4.5472
X3.2283Y-4.6358
X3.2874Y-4.6752
X3.2972Y-4.1634
X3.3366Y-4.124
X3.3366Y-4.2028
X3.3366Y-4.2421
X3.3465Y-4.4587
X3.3465Y-4.5472
X3.3465Y-4.6358
X3.3661Y-4.3602
X3.435Y-4.5472
X3.435Y-4.685
X3.4547Y-4.4488
X3.4744Y-4.5079
X3.4744Y-4.6063
X3.5039Y-4.124
X3.5039Y-4.1732
X3.5039Y-4.2717
X3.5138Y-4.4488
X3.5138Y-4.5079
X3.5138Y-4.5472
X3.5335Y-4.4193
X3.6614Y-4.2717
X3.7008Y-4.1929
X3.7008Y-4.9311
X3.7205Y-4.124
X3.7205Y-4.1634
X3.7303Y-4.5079
X3.7402Y-4.5965
X3.7402Y-4.6457
X3.7402Y-4.8917
X3.7598Y-4.3307
X3.7598Y-4.4882
X3.7598Y-4.8425
X3.7894Y-4.7638
X3.7894Y-4.8425
X3.7894Y-4.9409
X3.8091Y-4.4882
X3.8386Y-4.4094
X3.8484Y-4.2913
X3.8484Y-4.6063
X3.8681Y-4.6457
X3.8681Y-4.7343
X3.878Y-4.7638
X3.8976Y-4.0551
X3.9075Y-4.6555
X3.9173Y-4.4685
X3.9173Y-4.5472
X3.9272Y-4.7638
X3.937Y-4.0551
X3.9469Y-4.9409
X3.9665Y-4.2815
X3.9764Y-4.7835
X3.9961Y-4.4685
X3.9961Y-4.5472
X4.0157Y-4.2815
X4.0551Y-4.3799
X4.0551Y-4.872
X4.065Y-4.1043
X4.0748Y-4.2028
X4.0846Y-4.3996
X4.0945Y-4.5965
X4.0945Y-4.6555
X4.0945Y-4.9409
X4.1142Y-4.439
X4.1142Y-4.8425
X4.1535Y-4.2224
X4.1634Y-4.5965
X4.1634Y-4.6555
X4.1732Y-4.4685
X4.1732Y-4.5079
X4.1831Y-4.3406
X4.1831Y-4.7441
X4.1831Y-4.8031
X4.1929Y-4.1929
X4.2126Y-4.6614
X4.2224Y-4.1339
X4.2224Y-4.2224
X4.2224Y-4.3406
X4.2421Y-4.7441
X4.2421Y-4.8031
X4.252Y-4.9016
X4.2598Y-4.6614
X4.2618Y-4.4488
X4.2618Y-4.5571
X4.2913Y-4.3209
X4.3071Y-4.6614
X4.3071Y-4.6929
X4.311Y-4.2224
X4.311Y-4.4783
X4.311Y-4.5571
X4.3307Y-4.8228
X4.3307Y-4.8622
X4.3504Y-4.5965
X4.3602Y-4.9409
X4.3701Y-4.4587
X4.3701Y-4.813
X4.3898Y-4.2913
X4.3996Y-4.0945
X4.3996Y-4.124
X4.3996Y-4.498
X4.3996Y-4.6555
X4.439Y-4.8327
X4.4685Y-4.7343
X4.5276Y-4.7441
X4.5276Y-4.8425
X4.5374Y-4.6555
X4.5669Y-4.498
X4.5965Y-4.3504
X4.6063Y-4.1043
X4.6063Y-4.2224
X4.6063Y-4.7441
X4.626Y-4.8622
X4.6555Y-4.6949
X4.7047Y-4.7244
X4.7244Y-4.7736
X4.7244Y-4.9114
X4.8425Y-4.7736
X4.8425Y-4.9114
X4.8622Y-4.7244
X4.8917Y-4.7736
X4.8917Y-4.9409
X4.9409Y-4.1043
X4.9902Y-4.7736
X4.9902Y-4.9409
X5.Y-4.2224
X5.0197Y-4.3504
X5.0197Y-4.498
X5.0197Y-4.5669
X5.0197Y-4.6063
X5.0197Y-4.6752
X5.0394Y-4.7343
X5.0394Y-4.9114
X5.1083Y-3.8287
X5.1083Y-3.937
X5.1083Y-4.0453
X5.1476Y-4.9114
X5.1575Y-4.7343
X5.1673Y-4.3406
X5.1673Y-4.4488
X5.1772Y-4.5669
X5.1772Y-4.6063
X5.187Y-4.0453
X5.187Y-4.1732
X5.187Y-4.2913
T2
X2.7559Y-4.9311
X2.874Y-4.9311
X2.9921Y-4.9311
X3.1201Y-4.9311
X3.248Y-4.9311
X3.376Y-4.9311
X3.5039Y-4.9311
X3.6319Y-4.9311
T3
X3.5925Y-4.3937
X3.5925Y-4.6024
T4
X2.987Y-3.887
X2.987Y-3.987
X3.087Y-3.887
X3.087Y-3.987
X3.187Y-3.887
X3.187Y-3.987
X3.287Y-3.887
X3.287Y-3.987
X3.387Y-3.887
X3.387Y-3.987
X3.487Y-3.887
X3.487Y-3.987
X3.587Y-3.887
X3.587Y-3.987
X3.687Y-3.887
X3.687Y-3.987
X3.787Y-3.887
X3.787Y-3.987
X3.887Y-3.887
X3.887Y-3.987
X3.987Y-3.887
X3.987Y-3.987
X4.087Y-3.887
X4.087Y-3.987
X4.187Y-3.887
X4.187Y-3.987
X4.287Y-3.887
X4.287Y-3.987
X4.387Y-3.887
X4.387Y-3.987
X4.487Y-3.887
X4.487Y-3.987
X4.587Y-3.887
X4.587Y-3.987
X4.687Y-3.887
X4.687Y-3.987
X4.787Y-3.887
X4.787Y-3.987
X4.887Y-3.887
X4.887Y-3.987
T0
M30
